<ttFont>
    <TTGlyph name=".notdef" xMin="251" yMin="-555" xMax="1107" yMax="2146">
      <contour>
        <pt x="1107" y="-555" on="1"/>
        <pt x="251" y="-555" on="1"/>
        <pt x="251" y="2146" on="1"/>
        <pt x="1107" y="2146" on="1"/>
      </contour>
      <contour>
        <pt x="454" y="1965" on="1"/>
        <pt x="454" y="1876" on="1"/>
        <pt x="629" y="1876" on="1"/>
        <pt x="629" y="1776" on="1"/>
        <pt x="451" y="1776" on="1"/>
        <pt x="451" y="1687" on="1"/>
        <pt x="899" y="1687" on="1"/>
        <pt x="899" y="1776" on="1"/>
        <pt x="721" y="1776" on="1"/>
        <pt x="721" y="1876" on="1"/>
        <pt x="899" y="1876" on="1"/>
        <pt x="899" y="1965" on="1"/>
      </contour>
      <contour>
        <pt x="451" y="1617" on="1"/>
        <pt x="451" y="1336" on="1"/>
        <pt x="899" y="1336" on="1"/>
        <pt x="899" y="1428" on="1"/>
        <pt x="721" y="1428" on="1"/>
        <pt x="721" y="1617" on="1"/>
      </contour>
      <contour>
        <pt x="629" y="1428" on="1"/>
        <pt x="540" y="1428" on="1"/>
        <pt x="540" y="1525" on="1"/>
        <pt x="629" y="1525" on="1"/>
      </contour>
      <contour>
        <pt x="451" y="1263" on="1"/>
        <pt x="451" y="1174" on="1"/>
        <pt x="629" y="1174" on="1"/>
        <pt x="629" y="1074" on="1"/>
        <pt x="451" y="1074" on="1"/>
        <pt x="451" y="985" on="1"/>
        <pt x="721" y="985" on="1"/>
        <pt x="721" y="1174" on="1"/>
        <pt x="899" y="1174" on="1"/>
        <pt x="899" y="1263" on="1"/>
      </contour>
      <contour>
        <pt x="810" y="1101" on="1"/>
        <pt x="810" y="922" on="1"/>
        <pt x="451" y="922" on="1"/>
        <pt x="451" y="831" on="1"/>
        <pt x="899" y="831" on="1"/>
        <pt x="899" y="1101" on="1"/>
      </contour>
      <contour>
        <pt x="629" y="771" on="1"/>
        <pt x="629" y="620" on="1"/>
        <pt x="721" y="620" on="1"/>
        <pt x="721" y="682" on="1"/>
        <pt x="810" y="682" on="1"/>
        <pt x="810" y="555" on="1"/>
        <pt x="540" y="555" on="1"/>
        <pt x="540" y="771" on="1"/>
        <pt x="451" y="771" on="1"/>
        <pt x="451" y="466" on="1"/>
        <pt x="899" y="466" on="1"/>
        <pt x="899" y="771" on="1"/>
      </contour>
      <contour>
        <pt x="451" y="304" on="1"/>
        <pt x="451" y="-1" on="1"/>
        <pt x="899" y="-1" on="1"/>
        <pt x="899" y="304" on="1"/>
      </contour>
      <contour>
        <pt x="810" y="88" on="1"/>
        <pt x="540" y="88" on="1"/>
        <pt x="540" y="215" on="1"/>
        <pt x="810" y="215" on="1"/>
      </contour>
      <contour>
        <pt x="451" y="-63" on="1"/>
        <pt x="451" y="-153" on="1"/>
        <pt x="640" y="-153" on="1"/>
        <pt x="451" y="-279" on="1"/>
        <pt x="451" y="-369" on="1"/>
        <pt x="899" y="-369" on="1"/>
        <pt x="899" y="-279" on="1"/>
        <pt x="624" y="-279" on="1"/>
        <pt x="813" y="-153" on="1"/>
        <pt x="899" y="-153" on="1"/>
        <pt x="899" y="-63" on="1"/>
      </contour>
    </TTGlyph>
    <TTGlyph name=".ttfautohint" xMin="0" yMin="0" xMax="0" yMax="0">
      <contour>
        <pt x="0" y="0" on="1"/>
      </contour>
    </TTGlyph>
    <TTGlyph name="A" xMin="2" yMin="0" xMax="1385" yMax="1456">
      <contour>
        <pt x="948" y="281" on="1"/>
        <pt x="439" y="281" on="1"/>
        <pt x="348" y="0" on="1"/>
        <pt x="2" y="0" on="1"/>
        <pt x="541" y="1456" on="1"/>
        <pt x="844" y="1456" on="1"/>
        <pt x="1385" y="0" on="1"/>
        <pt x="1039" y="0" on="1"/>
      </contour>
      <contour>
        <pt x="862" y="543" on="1"/>
        <pt x="693" y="1063" on="1"/>
        <pt x="524" y="543" on="1"/>
      </contour>
    </TTGlyph>
    <TTGlyph name="A.smcp" xMin="-7" yMin="0" xMax="1210" yMax="1165">
      <contour>
        <pt x="818" y="210" on="1"/>
        <pt x="383" y="210" on="1"/>
        <pt x="307" y="0" on="1"/>
        <pt x="-7" y="0" on="1"/>
        <pt x="450" y="1165" on="1"/>
        <pt x="748" y="1165" on="1"/>
        <pt x="1210" y="0" on="1"/>
        <pt x="896" y="0" on="1"/>
      </contour>
      <contour>
        <pt x="735" y="434" on="1"/>
        <pt x="597" y="805" on="1"/>
        <pt x="463" y="434" on="1"/>
      </contour>
    </TTGlyph>
    <TTGlyph name="AE" xMin="9" yMin="0" xMax="1859" yMax="1456">
      <contour>
        <pt x="1859" y="255" on="1"/>
        <pt x="1859" y="0" on="1"/>
        <pt x="962" y="0" on="1"/>
        <pt x="948" y="331" on="1"/>
        <pt x="532" y="331" on="1"/>
        <pt x="372" y="0" on="1"/>
        <pt x="9" y="0" on="1"/>
        <pt x="771" y="1456" on="1"/>
        <pt x="1798" y="1456" on="1"/>
        <pt x="1798" y="1201" on="1"/>
        <pt x="1224" y="1201" on="1"/>
        <pt x="1237" y="873" on="1"/>
        <pt x="1717" y="873" on="1"/>
        <pt x="1717" y="618" on="1"/>
        <pt x="1248" y="618" on="1"/>
        <pt x="1263" y="255" on="1"/>
      </contour>
      <contour>
        <pt x="937" y="593" on="1"/>
        <pt x="915" y="1122" on="1"/>
        <pt x="659" y="593" on="1"/>
      </contour>
    </TTGlyph>
    <TTGlyph name="AE.smcp" xMin="-54" yMin="0" xMax="1562" yMax="1165">
      <contour>
        <pt x="1562" y="250" on="1"/>
        <pt x="1562" y="0" on="1"/>
        <pt x="724" y="0" on="1"/>
        <pt x="716" y="207" on="1"/>
        <pt x="377" y="207" on="1"/>
        <pt x="284" y="0" on="1"/>
        <pt x="-54" y="0" on="1"/>
        <pt x="513" y="1165" on="1"/>
        <pt x="1516" y="1165" on="1"/>
        <pt x="1516" y="915" on="1"/>
        <pt x="998" y="915" on="1"/>
        <pt x="1005" y="730" on="1"/>
        <pt x="1456" y="730" on="1"/>
        <pt x="1456" y="480" on="1"/>
        <pt x="1015" y="480" on="1"/>
        <pt x="1024" y="250" on="1"/>
      </contour>
      <contour>
        <pt x="707" y="453" on="1"/>
        <pt x="689" y="906" on="1"/>
        <pt x="486" y="453" on="1"/>
      </contour>
    </TTGlyph>
    <TTGlyph name="Aacute" xMin="2" yMin="0" xMax="1385" yMax="1846">
      <component glyphName=".ttfautohint" x="2" y="0" flags="0x0"/>
      <component glyphName="A" x="0" y="0" flags="0x0"/>
      <component glyphName="acutecomb" x="1228" y="310" flags="0x4"/>
    </TTGlyph>
    <TTGlyph name="Aacute.smcp" xMin="-7" yMin="0" xMax="1210" yMax="1566">
      <component glyphName=".ttfautohint" x="0" y="0" flags="0x0"/>
      <component glyphName="A.smcp" x="0" y="0" flags="0x0"/>
      <component glyphName="acutecomb" x="1136" y="30" flags="0x4"/>
    </TTGlyph>
    <TTGlyph name="Acircumflex" xMin="2" yMin="0" xMax="1385" yMax="1846">
      <component glyphName=".ttfautohint" x="2" y="0" flags="0x0"/>
      <component glyphName="A" x="0" y="0" flags="0x0"/>
      <component glyphName="circumflex" x="187" y="310" flags="0x4"/>
    </TTGlyph>
    <TTGlyph name="Acircumflex.smcp" xMin="-7" yMin="0" xMax="1210" yMax="1566">
      <component glyphName=".ttfautohint" x="0" y="0" flags="0x0"/>
      <component glyphName="A.smcp" x="0" y="0" flags="0x0"/>
      <component glyphName="circumflex" x="95" y="30" flags="0x4"/>
    </TTGlyph>
    <TTGlyph name="Adieresis" xMin="2" yMin="0" xMax="1385" yMax="1806">
      <component glyphName=".ttfautohint" x="2" y="0" flags="0x0"/>
      <component glyphName="A" x="0" y="0" flags="0x0"/>
      <component glyphName="dieresis" x="205" y="310" flags="0x4"/>
    </TTGlyph>
    <TTGlyph name="Adieresis.smcp" xMin="-7" yMin="0" xMax="1210" yMax="1526">
      <component glyphName=".ttfautohint" x="0" y="0" flags="0x0"/>
      <component glyphName="A.smcp" x="0" y="0" flags="0x0"/>
      <component glyphName="dieresis" x="113" y="30" flags="0x4"/>
    </TTGlyph>
    <TTGlyph name="Agrave" xMin="2" yMin="0" xMax="1385" yMax="1846">
      <component glyphName=".ttfautohint" x="2" y="0" flags="0x0"/>
      <component glyphName="A" x="0" y="0" flags="0x0"/>
      <component glyphName="gravecomb" x="1241" y="310" flags="0x4"/>
    </TTGlyph>
    <TTGlyph name="Agrave.smcp" xMin="-7" yMin="0" xMax="1210" yMax="1566">
      <component glyphName=".ttfautohint" x="0" y="0" flags="0x0"/>
      <component glyphName="A.smcp" x="0" y="0" flags="0x0"/>
      <component glyphName="gravecomb" x="1149" y="30" flags="0x4"/>
    </TTGlyph>
    <TTGlyph name="Aring" xMin="2" yMin="0" xMax="1385" yMax="1933">
      <component glyphName=".ttfautohint" x="2" y="0" flags="0x0"/>
      <component glyphName="A" x="0" y="0" flags="0x0"/>
      <component glyphName="ring" x="355" y="426" flags="0x4"/>
    </TTGlyph>
    <TTGlyph name="Aring.smcp" xMin="-7" yMin="0" xMax="1210" yMax="1653">
      <component glyphName=".ttfautohint" x="0" y="0" flags="0x0"/>
      <component glyphName="A.smcp" x="0" y="0" flags="0x0"/>
      <component glyphName="ring" x="263" y="146" flags="0x4"/>
    </TTGlyph>
    <TTGlyph name="Atilde" xMin="2" yMin="0" xMax="1385" yMax="1847">
      <component glyphName=".ttfautohint" x="2" y="0" flags="0x0"/>
      <component glyphName="A" x="0" y="0" flags="0x0"/>
      <component glyphName="tilde" x="199" y="306" flags="0x4"/>
    </TTGlyph>
    <TTGlyph name="Atilde.smcp" xMin="-7" yMin="0" xMax="1210" yMax="1567">
      <component glyphName=".ttfautohint" x="0" y="0" flags="0x0"/>
      <component glyphName="A.smcp" x="0" y="0" flags="0x0"/>
      <component glyphName="tilde" x="107" y="26" flags="0x4"/>
    </TTGlyph>
    <TTGlyph name="B" xMin="121" yMin="0" xMax="1225" yMax="1456">
      <contour>
        <pt x="1108" y="716" on="0"/>
        <pt x="1225" y="541" on="0"/>
        <pt x="1225" y="430" on="1"/>
        <pt x="1225" y="217" on="0"/>
        <pt x="951" y="0" on="0"/>
        <pt x="689" y="0" on="1"/>
        <pt x="121" y="0" on="1"/>
        <pt x="121" y="1456" on="1"/>
        <pt x="637" y="1456" on="1"/>
        <pt x="904" y="1456" on="0"/>
        <pt x="1193" y="1255" on="0"/>
        <pt x="1193" y="1055" on="1"/>
        <pt x="1193" y="951" on="0"/>
        <pt x="1092" y="787" on="0"/>
        <pt x="988" y="746" on="1"/>
      </contour>
      <contour>
        <pt x="446" y="1194" on="1"/>
        <pt x="446" y="848" on="1"/>
        <pt x="637" y="848" on="1"/>
        <pt x="756" y="848" on="0"/>
        <pt x="869" y="933" on="0"/>
        <pt x="869" y="1017" on="1"/>
        <pt x="869" y="1110" on="0"/>
        <pt x="758" y="1194" on="0"/>
        <pt x="637" y="1194" on="1"/>
      </contour>
      <contour>
        <pt x="796" y="261" on="0"/>
        <pt x="901" y="357" on="0"/>
        <pt x="901" y="435" on="1"/>
        <pt x="901" y="624" on="0"/>
        <pt x="702" y="624" on="1"/>
        <pt x="446" y="624" on="1"/>
        <pt x="446" y="261" on="1"/>
        <pt x="689" y="261" on="1"/>
      </contour>
    </TTGlyph>
    <TTGlyph name="B.smcp" xMin="91" yMin="0" xMax="1071" yMax="1165">
      <contour>
        <pt x="974" y="562" on="0"/>
        <pt x="1071" y="418" on="0"/>
        <pt x="1071" y="334" on="1"/>
        <pt x="1071" y="162" on="0"/>
        <pt x="834" y="0" on="0"/>
        <pt x="595" y="0" on="1"/>
        <pt x="91" y="0" on="1"/>
        <pt x="91" y="1165" on="1"/>
        <pt x="549" y="1165" on="1"/>
        <pt x="788" y="1165" on="0"/>
        <pt x="1045" y="1002" on="0"/>
        <pt x="1045" y="842" on="1"/>
        <pt x="1045" y="757" on="0"/>
        <pt x="962" y="620" on="0"/>
        <pt x="873" y="588" on="1"/>
      </contour>
      <contour>
        <pt x="404" y="913" on="1"/>
        <pt x="404" y="682" on="1"/>
        <pt x="569" y="682" on="1"/>
        <pt x="653" y="682" on="0"/>
        <pt x="733" y="737" on="0"/>
        <pt x="733" y="794" on="1"/>
        <pt x="733" y="858" on="0"/>
        <pt x="658" y="913" on="0"/>
        <pt x="577" y="913" on="1"/>
      </contour>
      <contour>
        <pt x="678" y="251" on="0"/>
        <pt x="759" y="315" on="0"/>
        <pt x="759" y="359" on="1"/>
        <pt x="759" y="416" on="0"/>
        <pt x="688" y="475" on="0"/>
        <pt x="608" y="475" on="1"/>
        <pt x="404" y="475" on="1"/>
        <pt x="404" y="251" on="1"/>
        <pt x="595" y="251" on="1"/>
      </contour>
    </TTGlyph>
    <TTGlyph name="C" xMin="79" yMin="-20" xMax="1283" yMax="1477">
      <contour>
        <pt x="1272" y="339" on="0"/>
        <pt x="1126" y="108" on="0"/>
        <pt x="863" y="-20" on="0"/>
        <pt x="687" y="-20" on="1"/>
        <pt x="499" y="-20" on="0"/>
        <pt x="225" y="151" on="0"/>
        <pt x="79" y="469" on="0"/>
        <pt x="79" y="686" on="1"/>
        <pt x="79" y="770" on="1"/>
        <pt x="79" y="985" on="0"/>
        <pt x="229" y="1305" on="0"/>
        <pt x="504" y="1477" on="0"/>
        <pt x="687" y="1477" on="1"/>
        <pt x="868" y="1477" on="0"/>
        <pt x="1126" y="1344" on="0"/>
        <pt x="1269" y="1109" on="0"/>
        <pt x="1283" y="956" on="1"/>
        <pt x="959" y="956" on="1"/>
        <pt x="951" y="1086" on="0"/>
        <pt x="827" y="1211" on="0"/>
        <pt x="687" y="1211" on="1"/>
        <pt x="544" y="1211" on="0"/>
        <pt x="408" y="1001" on="0"/>
        <pt x="408" y="772" on="1"/>
        <pt x="408" y="686" on="1"/>
        <pt x="408" y="530" on="0"/>
        <pt x="463" y="338" on="0"/>
        <pt x="585" y="246" on="0"/>
        <pt x="687" y="246" on="1"/>
        <pt x="818" y="246" on="0"/>
        <pt x="949" y="366" on="0"/>
        <pt x="957" y="491" on="1"/>
        <pt x="1281" y="491" on="1"/>
      </contour>
    </TTGlyph>
    <TTGlyph name="C.smcp" xMin="56" yMin="-16" xMax="1114" yMax="1182">
      <contour>
        <pt x="1106" y="278" on="0"/>
        <pt x="975" y="87" on="0"/>
        <pt x="743" y="-16" on="0"/>
        <pt x="590" y="-16" on="1"/>
        <pt x="422" y="-16" on="0"/>
        <pt x="182" y="122" on="0"/>
        <pt x="56" y="382" on="0"/>
        <pt x="56" y="561" on="1"/>
        <pt x="56" y="603" on="1"/>
        <pt x="56" y="781" on="0"/>
        <pt x="187" y="1042" on="0"/>
        <pt x="426" y="1182" on="0"/>
        <pt x="585" y="1182" on="1"/>
        <pt x="746" y="1182" on="0"/>
        <pt x="976" y="1072" on="0"/>
        <pt x="1102" y="877" on="0"/>
        <pt x="1114" y="751" on="1"/>
        <pt x="802" y="751" on="1"/>
        <pt x="800" y="830" on="0"/>
        <pt x="696" y="930" on="0"/>
        <pt x="585" y="930" on="1"/>
        <pt x="476" y="930" on="0"/>
        <pt x="369" y="772" on="0"/>
        <pt x="369" y="604" on="1"/>
        <pt x="369" y="561" on="1"/>
        <pt x="369" y="443" on="0"/>
        <pt x="413" y="301" on="0"/>
        <pt x="510" y="235" on="0"/>
        <pt x="590" y="235" on="1"/>
        <pt x="692" y="235" on="0"/>
        <pt x="799" y="317" on="0"/>
        <pt x="800" y="405" on="1"/>
        <pt x="1112" y="405" on="1"/>
      </contour>
    </TTGlyph>
    <TTGlyph name="C.ss06" xMin="78" yMin="-21" xMax="1319" yMax="1477">
      <contour>
        <pt x="1294" y="244" on="0"/>
        <pt x="986" y="-21" on="0"/>
        <pt x="717" y="-21" on="1"/>
        <pt x="527" y="-21" on="0"/>
        <pt x="237" y="155" on="0"/>
        <pt x="78" y="484" on="0"/>
        <pt x="78" y="705" on="1"/>
        <pt x="78" y="750" on="1"/>
        <pt x="78" y="970" on="0"/>
        <pt x="242" y="1300" on="0"/>
        <pt x="533" y="1477" on="0"/>
        <pt x="717" y="1477" on="1"/>
        <pt x="900" y="1477" on="0"/>
        <pt x="1159" y="1351" on="0"/>
        <pt x="1304" y="1117" on="0"/>
        <pt x="1319" y="956" on="1"/>
        <pt x="994" y="956" on="1"/>
        <pt x="983" y="1044" on="0"/>
        <pt x="925" y="1156" on="0"/>
        <pt x="811" y="1215" on="0"/>
        <pt x="717" y="1215" on="1"/>
        <pt x="623" y="1215" on="0"/>
        <pt x="481" y="1106" on="0"/>
        <pt x="403" y="897" on="0"/>
        <pt x="403" y="752" on="1"/>
        <pt x="403" y="705" on="1"/>
        <pt x="403" y="484" on="0"/>
        <pt x="566" y="240" on="0"/>
        <pt x="717" y="240" on="1"/>
        <pt x="844" y="240" on="0"/>
        <pt x="977" y="369" on="0"/>
        <pt x="993" y="491" on="1"/>
        <pt x="1316" y="491" on="1"/>
      </contour>
    </TTGlyph>
    <TTGlyph name="Ccedilla" xMin="79" yMin="-470" xMax="1283" yMax="1477">
      <component glyphName=".ttfautohint" x="79" y="0" flags="0x0"/>
      <component glyphName="C" x="0" y="0" flags="0x0"/>
      <component glyphName="cedilla" x="448" y="-1" flags="0x4"/>
    </TTGlyph>
    <TTGlyph name="Ccedilla.smcp" xMin="56" yMin="-465" xMax="1114" yMax="1182">
      <component glyphName=".ttfautohint" x="56" y="0" flags="0x0"/>
      <component glyphName="C.smcp" x="0" y="0" flags="0x0"/>
      <component glyphName="cedilla" x="354" y="4" flags="0x4"/>
    </TTGlyph>
    <TTGlyph name="D" xMin="121" yMin="0" xMax="1249" yMax="1456">
      <contour>
        <pt x="774" y="1456" on="0"/>
        <pt x="1078" y="1280" on="0"/>
        <pt x="1249" y="963" on="0"/>
        <pt x="1249" y="759" on="1"/>
        <pt x="1249" y="696" on="1"/>
        <pt x="1249" y="492" on="0"/>
        <pt x="1079" y="176" on="0"/>
        <pt x="774" y="0" on="0"/>
        <pt x="579" y="0" on="1"/>
        <pt x="121" y="0" on="1"/>
        <pt x="121" y="1456" on="1"/>
        <pt x="579" y="1456" on="1"/>
      </contour>
      <contour>
        <pt x="919" y="761" on="1"/>
        <pt x="919" y="973" on="0"/>
        <pt x="745" y="1194" on="0"/>
        <pt x="579" y="1194" on="1"/>
        <pt x="446" y="1194" on="1"/>
        <pt x="446" y="261" on="1"/>
        <pt x="579" y="261" on="1"/>
        <pt x="744" y="261" on="0"/>
        <pt x="919" y="483" on="0"/>
        <pt x="919" y="696" on="1"/>
      </contour>
    </TTGlyph>
    <TTGlyph name="D.smcp" xMin="91" yMin="0" xMax="1081" yMax="1165">
      <contour>
        <pt x="666" y="1165" on="0"/>
        <pt x="931" y="1020" on="0"/>
        <pt x="1081" y="764" on="0"/>
        <pt x="1081" y="603" on="1"/>
        <pt x="1081" y="561" on="1"/>
        <pt x="1081" y="400" on="0"/>
        <pt x="932" y="144" on="0"/>
        <pt x="669" y="0" on="0"/>
        <pt x="504" y="0" on="1"/>
        <pt x="91" y="0" on="1"/>
        <pt x="91" y="1165" on="1"/>
        <pt x="498" y="1165" on="1"/>
      </contour>
      <contour>
        <pt x="767" y="605" on="1"/>
        <pt x="767" y="711" on="0"/>
        <pt x="716" y="845" on="0"/>
        <pt x="598" y="913" on="0"/>
        <pt x="498" y="913" on="1"/>
        <pt x="404" y="913" on="1"/>
        <pt x="404" y="251" on="1"/>
        <pt x="504" y="251" on="1"/>
        <pt x="601" y="251" on="0"/>
        <pt x="716" y="317" on="0"/>
        <pt x="767" y="452" on="0"/>
        <pt x="767" y="561" on="1"/>
      </contour>
    </TTGlyph>
    <TTGlyph name="D.ss06" xMin="121" yMin="0" xMax="1305" yMax="1456">
      <contour>
        <pt x="794" y="1456" on="0"/>
        <pt x="1125" y="1271" on="0"/>
        <pt x="1305" y="949" on="0"/>
        <pt x="1305" y="749" on="1"/>
        <pt x="1305" y="706" on="1"/>
        <pt x="1305" y="506" on="0"/>
        <pt x="1125" y="184" on="0"/>
        <pt x="795" y="0" on="0"/>
        <pt x="579" y="0" on="1"/>
        <pt x="121" y="0" on="1"/>
        <pt x="121" y="1456" on="1"/>
        <pt x="578" y="1456" on="1"/>
      </contour>
      <contour>
        <pt x="980" y="751" on="1"/>
        <pt x="980" y="879" on="0"/>
        <pt x="893" y="1078" on="0"/>
        <pt x="704" y="1194" on="0"/>
        <pt x="558" y="1194" on="1"/>
        <pt x="445" y="1194" on="1"/>
        <pt x="445" y="261" on="1"/>
        <pt x="558" y="261" on="1"/>
        <pt x="704" y="261" on="0"/>
        <pt x="892" y="378" on="0"/>
        <pt x="980" y="578" on="0"/>
        <pt x="980" y="706" on="1"/>
      </contour>
    </TTGlyph>
    <TTGlyph name="E" xMin="121" yMin="0" xMax="1110" yMax="1456">
      <contour>
        <pt x="446" y="1194" on="1"/>
        <pt x="446" y="874" on="1"/>
        <pt x="1010" y="874" on="1"/>
        <pt x="1010" y="621" on="1"/>
        <pt x="446" y="621" on="1"/>
        <pt x="446" y="261" on="1"/>
        <pt x="1110" y="261" on="1"/>
        <pt x="1110" y="0" on="1"/>
        <pt x="121" y="0" on="1"/>
        <pt x="121" y="1456" on="1"/>
        <pt x="1110" y="1456" on="1"/>
        <pt x="1110" y="1194" on="1"/>
      </contour>
    </TTGlyph>
    <TTGlyph name="E.smcp" xMin="91" yMin="0" xMax="962" yMax="1165">
      <contour>
        <pt x="404" y="913" on="1"/>
        <pt x="404" y="728" on="1"/>
        <pt x="874" y="728" on="1"/>
        <pt x="874" y="476" on="1"/>
        <pt x="404" y="476" on="1"/>
        <pt x="404" y="251" on="1"/>
        <pt x="959" y="251" on="1"/>
        <pt x="959" y="0" on="1"/>
        <pt x="91" y="0" on="1"/>
        <pt x="91" y="1165" on="1"/>
        <pt x="962" y="1165" on="1"/>
        <pt x="962" y="913" on="1"/>
      </contour>
    </TTGlyph>
    <TTGlyph name="Eacute" xMin="121" yMin="0" xMax="1110" yMax="1847">
      <component glyphName=".ttfautohint" x="121" y="0" flags="0x0"/>
      <component glyphName="E" x="0" y="0" flags="0x0"/>
      <component glyphName="acutecomb" x="1171" y="311" flags="0x4"/>
    </TTGlyph>
    <TTGlyph name="Eacute.smcp" xMin="91" yMin="0" xMax="962" yMax="1566">
      <component glyphName=".ttfautohint" x="91" y="0" flags="0x0"/>
      <component glyphName="E.smcp" x="0" y="0" flags="0x0"/>
      <component glyphName="acutecomb" x="1089" y="30" flags="0x4"/>
    </TTGlyph>
    <TTGlyph name="Ecircumflex" xMin="121" yMin="0" xMax="1110" yMax="1847">
      <component glyphName=".ttfautohint" x="121" y="0" flags="0x0"/>
      <component glyphName="E" x="0" y="0" flags="0x0"/>
      <component glyphName="circumflex" x="130" y="311" flags="0x4"/>
    </TTGlyph>
    <TTGlyph name="Ecircumflex.smcp" xMin="91" yMin="0" xMax="962" yMax="1566">
      <component glyphName=".ttfautohint" x="91" y="0" flags="0x0"/>
      <component glyphName="E.smcp" x="0" y="0" flags="0x0"/>
      <component glyphName="circumflex" x="48" y="30" flags="0x4"/>
    </TTGlyph>
    <TTGlyph name="Edieresis" xMin="121" yMin="0" xMax="1110" yMax="1807">
      <component glyphName=".ttfautohint" x="121" y="0" flags="0x0"/>
      <component glyphName="E" x="0" y="0" flags="0x0"/>
      <component glyphName="dieresis" x="148" y="311" flags="0x4"/>
    </TTGlyph>
    <TTGlyph name="Edieresis.smcp" xMin="91" yMin="0" xMax="962" yMax="1526">
      <component glyphName=".ttfautohint" x="91" y="0" flags="0x0"/>
      <component glyphName="E.smcp" x="0" y="0" flags="0x0"/>
      <component glyphName="dieresis" x="66" y="30" flags="0x4"/>
    </TTGlyph>
    <TTGlyph name="Egrave" xMin="121" yMin="0" xMax="1110" yMax="1847">
      <component glyphName=".ttfautohint" x="121" y="0" flags="0x0"/>
      <component glyphName="E" x="0" y="0" flags="0x0"/>
      <component glyphName="gravecomb" x="1184" y="311" flags="0x4"/>
    </TTGlyph>
    <TTGlyph name="Egrave.smcp" xMin="91" yMin="0" xMax="962" yMax="1566">
      <component glyphName=".ttfautohint" x="91" y="0" flags="0x0"/>
      <component glyphName="E.smcp" x="0" y="0" flags="0x0"/>
      <component glyphName="gravecomb" x="1102" y="30" flags="0x4"/>
    </TTGlyph>
    <TTGlyph name="Eth" xMin="-25" yMin="0" xMax="1249" yMax="1456">
      <component glyphName=".ttfautohint" x="0" y="0" flags="0x0"/>
      <component glyphName="D" x="0" y="0" flags="0x0"/>
      <component glyphName="crossbar" x="-165" y="-13" flags="0x4"/>
    </TTGlyph>
    <TTGlyph name="Eth.smcp" xMin="-120" yMin="0" xMax="1081" yMax="1165">
      <component glyphName=".ttfautohint" x="0" y="0" flags="0x0"/>
      <component glyphName="D.smcp" x="0" y="0" flags="0x0"/>
      <component glyphName="crossbar" x="-260" y="-165" flags="0x4"/>
    </TTGlyph>
    <TTGlyph name="Euro" xMin="88" yMin="-19" xMax="1102" yMax="1475">
      <contour>
        <pt x="979" y="241" on="0"/>
        <pt x="1062" y="272" on="1"/>
        <pt x="1102" y="11" on="1"/>
        <pt x="974" y="-19" on="0"/>
        <pt x="842" y="-19" on="1"/>
        <pt x="673" y="-19" on="0"/>
        <pt x="412" y="101" on="0"/>
        <pt x="260" y="340" on="0"/>
        <pt x="255" y="511" on="1"/>
        <pt x="88" y="511" on="1"/>
        <pt x="88" y="668" on="1"/>
        <pt x="255" y="668" on="1"/>
        <pt x="255" y="791" on="1"/>
        <pt x="88" y="791" on="1"/>
        <pt x="88" y="948" on="1"/>
        <pt x="257" y="948" on="1"/>
        <pt x="270" y="1118" on="0"/>
        <pt x="430" y="1355" on="0"/>
        <pt x="696" y="1475" on="0"/>
        <pt x="868" y="1475" on="1"/>
        <pt x="976" y="1475" on="0"/>
        <pt x="1102" y="1444" on="1"/>
        <pt x="1062" y="1182" on="1"/>
        <pt x="1024" y="1197" on="0"/>
        <pt x="930" y="1214" on="0"/>
        <pt x="886" y="1214" on="1"/>
        <pt x="750" y="1214" on="0"/>
        <pt x="597" y="1087" on="0"/>
        <pt x="583" y="948" on="1"/>
        <pt x="904" y="948" on="1"/>
        <pt x="904" y="791" on="1"/>
        <pt x="580" y="791" on="1"/>
        <pt x="580" y="668" on="1"/>
        <pt x="904" y="668" on="1"/>
        <pt x="904" y="511" on="1"/>
        <pt x="580" y="511" on="1"/>
        <pt x="586" y="361" on="0"/>
        <pt x="738" y="241" on="0"/>
        <pt x="879" y="241" on="1"/>
      </contour>
    </TTGlyph>
    <TTGlyph name="Euro.smcp" xMin="72" yMin="-16" xMax="962" yMax="1185">
      <contour>
        <pt x="791" y="236" on="0"/>
        <pt x="873" y="248" on="0"/>
        <pt x="939" y="262" on="1"/>
        <pt x="961" y="15" on="1"/>
        <pt x="901" y="-1" on="0"/>
        <pt x="799" y="-16" on="0"/>
        <pt x="739" y="-16" on="1"/>
        <pt x="598" y="-16" on="0"/>
        <pt x="381" y="76" on="0"/>
        <pt x="245" y="247" on="0"/>
        <pt x="224" y="365" on="1"/>
        <pt x="72" y="365" on="1"/>
        <pt x="72" y="543" on="1"/>
        <pt x="215" y="543" on="1"/>
        <pt x="215" y="612" on="1"/>
        <pt x="72" y="612" on="1"/>
        <pt x="72" y="791" on="1"/>
        <pt x="225" y="791" on="1"/>
        <pt x="247" y="914" on="0"/>
        <pt x="382" y="1091" on="0"/>
        <pt x="597" y="1185" on="0"/>
        <pt x="737" y="1185" on="1"/>
        <pt x="800" y="1185" on="0"/>
        <pt x="901" y="1169" on="0"/>
        <pt x="962" y="1151" on="1"/>
        <pt x="940" y="904" on="1"/>
        <pt x="884" y="920" on="0"/>
        <pt x="794" y="933" on="0"/>
        <pt x="737" y="933" on="1"/>
        <pt x="657" y="933" on="0"/>
        <pt x="561" y="861" on="0"/>
        <pt x="541" y="791" on="1"/>
        <pt x="882" y="791" on="1"/>
        <pt x="882" y="612" on="1"/>
        <pt x="528" y="612" on="1"/>
        <pt x="528" y="543" on="1"/>
        <pt x="882" y="543" on="1"/>
        <pt x="882" y="365" on="1"/>
        <pt x="541" y="365" on="1"/>
        <pt x="561" y="300" on="0"/>
        <pt x="657" y="236" on="0"/>
        <pt x="739" y="236" on="1"/>
      </contour>
    </TTGlyph>
    <TTGlyph name="F" xMin="121" yMin="0" xMax="1082" yMax="1456">
      <contour>
        <pt x="446" y="1194" on="1"/>
        <pt x="446" y="846" on="1"/>
        <pt x="1017" y="846" on="1"/>
        <pt x="1017" y="585" on="1"/>
        <pt x="446" y="585" on="1"/>
        <pt x="446" y="0" on="1"/>
        <pt x="121" y="0" on="1"/>
        <pt x="121" y="1456" on="1"/>
        <pt x="1082" y="1456" on="1"/>
        <pt x="1082" y="1194" on="1"/>
      </contour>
    </TTGlyph>
    <TTGlyph name="F.smcp" xMin="91" yMin="0" xMax="935" yMax="1165">
      <contour>
        <pt x="404" y="913" on="1"/>
        <pt x="404" y="696" on="1"/>
        <pt x="888" y="696" on="1"/>
        <pt x="888" y="445" on="1"/>
        <pt x="404" y="445" on="1"/>
        <pt x="404" y="0" on="1"/>
        <pt x="91" y="0" on="1"/>
        <pt x="91" y="1165" on="1"/>
        <pt x="935" y="1165" on="1"/>
        <pt x="935" y="913" on="1"/>
      </contour>
    </TTGlyph>
    <TTGlyph name="G" xMin="89" yMin="-20" xMax="1292" yMax="1477">
      <contour>
        <pt x="1250" y="133" on="0"/>
        <pt x="1101" y="42" on="0"/>
        <pt x="872" y="-20" on="0"/>
        <pt x="725" y="-20" on="1"/>
        <pt x="533" y="-20" on="0"/>
        <pt x="246" y="146" on="0"/>
        <pt x="89" y="464" on="0"/>
        <pt x="89" y="686" on="1"/>
        <pt x="89" y="769" on="1"/>
        <pt x="89" y="991" on="0"/>
        <pt x="243" y="1310" on="0"/>
        <pt x="521" y="1477" on="0"/>
        <pt x="704" y="1477" on="1"/>
        <pt x="982" y="1477" on="0"/>
        <pt x="1266" y="1215" on="0"/>
        <pt x="1291" y="985" on="1"/>
        <pt x="978" y="985" on="1"/>
        <pt x="961" y="1099" on="0"/>
        <pt x="838" y="1216" on="0"/>
        <pt x="714" y="1216" on="1"/>
        <pt x="572" y="1216" on="0"/>
        <pt x="418" y="990" on="0"/>
        <pt x="418" y="771" on="1"/>
        <pt x="418" y="686" on="1"/>
        <pt x="418" y="241" on="0"/>
        <pt x="745" y="241" on="1"/>
        <pt x="896" y="241" on="0"/>
        <pt x="968" y="306" on="1"/>
        <pt x="968" y="539" on="1"/>
        <pt x="709" y="539" on="1"/>
        <pt x="709" y="774" on="1"/>
        <pt x="1292" y="774" on="1"/>
        <pt x="1292" y="181" on="1"/>
      </contour>
    </TTGlyph>
    <TTGlyph name="G.smcp" xMin="68" yMin="-16" xMax="1124" yMax="1182">
      <contour>
        <pt x="1086" y="101" on="0"/>
        <pt x="950" y="31" on="0"/>
        <pt x="748" y="-16" on="0"/>
        <pt x="622" y="-16" on="1"/>
        <pt x="454" y="-16" on="0"/>
        <pt x="204" y="116" on="0"/>
        <pt x="68" y="372" on="0"/>
        <pt x="68" y="553" on="1"/>
        <pt x="68" y="611" on="1"/>
        <pt x="68" y="790" on="0"/>
        <pt x="206" y="1048" on="0"/>
        <pt x="449" y="1182" on="0"/>
        <pt x="605" y="1182" on="1"/>
        <pt x="856" y="1182" on="0"/>
        <pt x="1104" y="963" on="0"/>
        <pt x="1123" y="769" on="1"/>
        <pt x="823" y="769" on="1"/>
        <pt x="810" y="854" on="0"/>
        <pt x="716" y="930" on="0"/>
        <pt x="616" y="930" on="1"/>
        <pt x="507" y="930" on="0"/>
        <pt x="380" y="774" on="0"/>
        <pt x="380" y="613" on="1"/>
        <pt x="380" y="553" on="1"/>
        <pt x="380" y="390" on="0"/>
        <pt x="509" y="235" on="0"/>
        <pt x="645" y="235" on="1"/>
        <pt x="705" y="235" on="0"/>
        <pt x="789" y="255" on="0"/>
        <pt x="810" y="269" on="1"/>
        <pt x="810" y="419" on="1"/>
        <pt x="597" y="419" on="1"/>
        <pt x="597" y="638" on="1"/>
        <pt x="1124" y="638" on="1"/>
        <pt x="1124" y="139" on="1"/>
      </contour>
    </TTGlyph>
    <TTGlyph name="G.ss06" xMin="78" yMin="-21" xMax="1319" yMax="1477">
      <contour>
        <pt x="1280" y="133" on="0"/>
        <pt x="1134" y="41" on="0"/>
        <pt x="913" y="-21" on="0"/>
        <pt x="776" y="-21" on="1"/>
        <pt x="575" y="-21" on="0"/>
        <pt x="257" y="160" on="0"/>
        <pt x="78" y="486" on="0"/>
        <pt x="78" y="695" on="1"/>
        <pt x="78" y="750" on="1"/>
        <pt x="78" y="965" on="0"/>
        <pt x="243" y="1295" on="0"/>
        <pt x="537" y="1477" on="0"/>
        <pt x="725" y="1477" on="1"/>
        <pt x="908" y="1477" on="0"/>
        <pt x="1163" y="1354" on="0"/>
        <pt x="1303" y="1133" on="0"/>
        <pt x="1318" y="985" on="1"/>
        <pt x="1004" y="985" on="1"/>
        <pt x="989" y="1095" on="0"/>
        <pt x="853" y="1215" on="0"/>
        <pt x="735" y="1215" on="1"/>
        <pt x="636" y="1215" on="0"/>
        <pt x="485" y="1101" on="0"/>
        <pt x="403" y="891" on="0"/>
        <pt x="403" y="752" on="1"/>
        <pt x="403" y="695" on="1"/>
        <pt x="403" y="562" on="0"/>
        <pt x="494" y="355" on="0"/>
        <pt x="662" y="240" on="0"/>
        <pt x="776" y="240" on="1"/>
        <pt x="858" y="240" on="0"/>
        <pt x="971" y="271" on="0"/>
        <pt x="994" y="294" on="1"/>
        <pt x="994" y="523" on="1"/>
        <pt x="756" y="523" on="1"/>
        <pt x="756" y="758" on="1"/>
        <pt x="1319" y="758" on="1"/>
        <pt x="1319" y="180" on="1"/>
      </contour>
    </TTGlyph>
    <TTGlyph name="H" xMin="121" yMin="0" xMax="1322" yMax="1456">
      <contour>
        <pt x="1322" y="1456" on="1"/>
        <pt x="1322" y="0" on="1"/>
        <pt x="998" y="0" on="1"/>
        <pt x="998" y="613" on="1"/>
        <pt x="446" y="613" on="1"/>
        <pt x="446" y="0" on="1"/>
        <pt x="121" y="0" on="1"/>
        <pt x="121" y="1456" on="1"/>
        <pt x="446" y="1456" on="1"/>
        <pt x="446" y="874" on="1"/>
        <pt x="998" y="874" on="1"/>
        <pt x="998" y="1456" on="1"/>
      </contour>
    </TTGlyph>
    <TTGlyph name="H.smcp" xMin="91" yMin="0" xMax="1145" yMax="1165">
      <contour>
        <pt x="1145" y="1165" on="1"/>
        <pt x="1145" y="0" on="1"/>
        <pt x="834" y="0" on="1"/>
        <pt x="834" y="445" on="1"/>
        <pt x="404" y="445" on="1"/>
        <pt x="404" y="0" on="1"/>
        <pt x="91" y="0" on="1"/>
        <pt x="91" y="1165" on="1"/>
        <pt x="404" y="1165" on="1"/>
        <pt x="404" y="696" on="1"/>
        <pt x="834" y="696" on="1"/>
        <pt x="834" y="1165" on="1"/>
      </contour>
    </TTGlyph>
    <TTGlyph name="I" xMin="142" yMin="0" xMax="466" yMax="1456">
      <contour>
        <pt x="142" y="0" on="1"/>
        <pt x="142" y="1456" on="1"/>
        <pt x="466" y="1456" on="1"/>
        <pt x="466" y="0" on="1"/>
      </contour>
    </TTGlyph>
    <TTGlyph name="I.smcp" xMin="112" yMin="0" xMax="424" yMax="1165">
      <contour>
        <pt x="112" y="0" on="1"/>
        <pt x="112" y="1165" on="1"/>
        <pt x="424" y="1165" on="1"/>
        <pt x="424" y="0" on="1"/>
      </contour>
    </TTGlyph>
    <TTGlyph name="Iacute" xMin="142" yMin="0" xMax="680" yMax="1847">
      <component glyphName=".ttfautohint" x="142" y="0" flags="0x0"/>
      <component glyphName="I" x="0" y="0" flags="0x0"/>
      <component glyphName="acutecomb" x="835" y="311" flags="0x4"/>
    </TTGlyph>
    <TTGlyph name="Iacute.smcp" xMin="112" yMin="0" xMax="646" yMax="1566">
      <component glyphName=".ttfautohint" x="112" y="0" flags="0x0"/>
      <component glyphName="I.smcp" x="0" y="0" flags="0x0"/>
      <component glyphName="acutecomb" x="801" y="30" flags="0x4"/>
    </TTGlyph>
    <TTGlyph name="Icircumflex" xMin="-94" yMin="0" xMax="707" yMax="1847">
      <component glyphName=".ttfautohint" x="0" y="0" flags="0x0"/>
      <component glyphName="I" x="0" y="0" flags="0x0"/>
      <component glyphName="circumflex" x="-206" y="311" flags="0x4"/>
    </TTGlyph>
    <TTGlyph name="Icircumflex.smcp" xMin="-128" yMin="0" xMax="673" yMax="1566">
      <component glyphName=".ttfautohint" x="0" y="0" flags="0x0"/>
      <component glyphName="I.smcp" x="0" y="0" flags="0x0"/>
      <component glyphName="circumflex" x="-240" y="30" flags="0x4"/>
    </TTGlyph>
    <TTGlyph name="Idieresis" xMin="-94" yMin="0" xMax="697" yMax="1807">
      <component glyphName=".ttfautohint" x="0" y="0" flags="0x0"/>
      <component glyphName="I" x="0" y="0" flags="0x0"/>
      <component glyphName="dieresis" x="-189" y="311" flags="0x4"/>
    </TTGlyph>
    <TTGlyph name="Idieresis.smcp" xMin="-128" yMin="0" xMax="663" yMax="1526">
      <component glyphName=".ttfautohint" x="0" y="0" flags="0x0"/>
      <component glyphName="I.smcp" x="0" y="0" flags="0x0"/>
      <component glyphName="dieresis" x="-223" y="30" flags="0x4"/>
    </TTGlyph>
    <TTGlyph name="Igrave" xMin="-55" yMin="0" xMax="478" yMax="1847">
      <component glyphName=".ttfautohint" x="0" y="0" flags="0x0"/>
      <component glyphName="I" x="0" y="0" flags="0x0"/>
      <component glyphName="gravecomb" x="848" y="311" flags="0x4"/>
    </TTGlyph>
    <TTGlyph name="Igrave.smcp" xMin="-89" yMin="0" xMax="444" yMax="1566">
      <component glyphName=".ttfautohint" x="0" y="0" flags="0x0"/>
      <component glyphName="I.smcp" x="0" y="0" flags="0x0"/>
      <component glyphName="gravecomb" x="814" y="30" flags="0x4"/>
    </TTGlyph>
    <TTGlyph name="J" xMin="39" yMin="-20" xMax="1028" yMax="1456">
      <contour>
        <pt x="1028" y="1456" on="1"/>
        <pt x="1028" y="454" on="1"/>
        <pt x="1028" y="312" on="0"/>
        <pt x="899" y="97" on="0"/>
        <pt x="674" y="-20" on="0"/>
        <pt x="534" y="-20" on="1"/>
        <pt x="387" y="-20" on="0"/>
        <pt x="164" y="80" on="0"/>
        <pt x="39" y="284" on="0"/>
        <pt x="39" y="437" on="1"/>
        <pt x="364" y="437" on="1"/>
        <pt x="364" y="329" on="0"/>
        <pt x="449" y="241" on="0"/>
        <pt x="534" y="241" on="1"/>
        <pt x="614" y="241" on="0"/>
        <pt x="705" y="354" on="0"/>
        <pt x="705" y="454" on="1"/>
        <pt x="705" y="1456" on="1"/>
      </contour>
    </TTGlyph>
    <TTGlyph name="J.smcp" xMin="31" yMin="-16" xMax="900" yMax="1165">
      <contour>
        <pt x="900" y="1165" on="1"/>
        <pt x="900" y="409" on="1"/>
        <pt x="900" y="278" on="0"/>
        <pt x="786" y="85" on="0"/>
        <pt x="591" y="-16" on="0"/>
        <pt x="473" y="-16" on="1"/>
        <pt x="266" y="-16" on="0"/>
        <pt x="31" y="183" on="0"/>
        <pt x="31" y="383" on="1"/>
        <pt x="344" y="383" on="1"/>
        <pt x="344" y="306" on="0"/>
        <pt x="406" y="235" on="0"/>
        <pt x="473" y="235" on="1"/>
        <pt x="531" y="235" on="0"/>
        <pt x="587" y="318" on="0"/>
        <pt x="587" y="409" on="1"/>
        <pt x="587" y="1165" on="1"/>
      </contour>
    </TTGlyph>
    <TTGlyph name="K" xMin="121" yMin="0" xMax="1324" yMax="1456">
      <contour>
        <pt x="597" y="562" on="1"/>
        <pt x="446" y="399" on="1"/>
        <pt x="446" y="0" on="1"/>
        <pt x="121" y="0" on="1"/>
        <pt x="121" y="1456" on="1"/>
        <pt x="446" y="1456" on="1"/>
        <pt x="446" y="809" on="1"/>
        <pt x="573" y="992" on="1"/>
        <pt x="917" y="1456" on="1"/>
        <pt x="1316" y="1456" on="1"/>
        <pt x="813" y="810" on="1"/>
        <pt x="1324" y="0" on="1"/>
        <pt x="940" y="0" on="1"/>
      </contour>
    </TTGlyph>
    <TTGlyph name="K.alt" xMin="121" yMin="0" xMax="1344" yMax="1456">
      <contour>
        <pt x="617" y="582" on="1"/>
        <pt x="445" y="582" on="1"/>
        <pt x="445" y="0" on="1"/>
        <pt x="121" y="0" on="1"/>
        <pt x="121" y="1456" on="1"/>
        <pt x="445" y="1456" on="1"/>
        <pt x="445" y="887" on="1"/>
        <pt x="582" y="887" on="1"/>
        <pt x="902" y="1456" on="1"/>
        <pt x="1295" y="1456" on="1"/>
        <pt x="872" y="773" on="1"/>
        <pt x="1344" y="0" on="1"/>
        <pt x="959" y="0" on="1"/>
      </contour>
    </TTGlyph>
    <TTGlyph name="K.alt2" xMin="121" yMin="0" xMax="1314" yMax="1456">
      <contour>
        <pt x="908" y="0" on="1"/>
        <pt x="445" y="633" on="1"/>
        <pt x="445" y="0" on="1"/>
        <pt x="121" y="0" on="1"/>
        <pt x="121" y="1456" on="1"/>
        <pt x="445" y="1456" on="1"/>
        <pt x="445" y="819" on="1"/>
        <pt x="884" y="1456" on="1"/>
        <pt x="1285" y="1456" on="1"/>
        <pt x="756" y="734" on="1"/>
        <pt x="1314" y="0" on="1"/>
      </contour>
    </TTGlyph>
    <TTGlyph name="K.smcp" xMin="91" yMin="0" xMax="1148" yMax="1165">
      <contour>
        <pt x="525" y="414" on="1"/>
        <pt x="404" y="296" on="1"/>
        <pt x="404" y="0" on="1"/>
        <pt x="91" y="0" on="1"/>
        <pt x="91" y="1165" on="1"/>
        <pt x="404" y="1165" on="1"/>
        <pt x="404" y="695" on="1"/>
        <pt x="496" y="824" on="1"/>
        <pt x="750" y="1165" on="1"/>
        <pt x="1142" y="1165" on="1"/>
        <pt x="737" y="643" on="1"/>
        <pt x="1148" y="0" on="1"/>
        <pt x="780" y="0" on="1"/>
      </contour>
    </TTGlyph>
    <TTGlyph name="L" xMin="121" yMin="0" xMax="1070" yMax="1456">
      <contour>
        <pt x="1070" y="261" on="1"/>
        <pt x="1070" y="0" on="1"/>
        <pt x="121" y="0" on="1"/>
        <pt x="121" y="1456" on="1"/>
        <pt x="446" y="1456" on="1"/>
        <pt x="446" y="261" on="1"/>
      </contour>
    </TTGlyph>
    <TTGlyph name="L.smcp" xMin="91" yMin="0" xMax="923" yMax="1165">
      <contour>
        <pt x="923" y="251" on="1"/>
        <pt x="923" y="0" on="1"/>
        <pt x="91" y="0" on="1"/>
        <pt x="91" y="1165" on="1"/>
        <pt x="404" y="1165" on="1"/>
        <pt x="404" y="251" on="1"/>
      </contour>
    </TTGlyph>
    <TTGlyph name="M" xMin="121" yMin="0" xMax="1672" yMax="1456">
      <contour>
        <pt x="1672" y="0" on="1"/>
        <pt x="1347" y="0" on="1"/>
        <pt x="1347" y="358" on="1"/>
        <pt x="1379" y="1064" on="1"/>
        <pt x="1005" y="0" on="1"/>
        <pt x="787" y="0" on="1"/>
        <pt x="413" y="1064" on="1"/>
        <pt x="445" y="358" on="1"/>
        <pt x="445" y="0" on="1"/>
        <pt x="121" y="0" on="1"/>
        <pt x="121" y="1456" on="1"/>
        <pt x="546" y="1456" on="1"/>
        <pt x="896" y="430" on="1"/>
        <pt x="1246" y="1456" on="1"/>
        <pt x="1672" y="1456" on="1"/>
      </contour>
    </TTGlyph>
    <TTGlyph name="M.smcp" xMin="91" yMin="0" xMax="1453" yMax="1165">
      <contour>
        <pt x="1453" y="0" on="1"/>
        <pt x="1139" y="0" on="1"/>
        <pt x="1139" y="197" on="1"/>
        <pt x="1171" y="828" on="1"/>
        <pt x="873" y="0" on="1"/>
        <pt x="669" y="0" on="1"/>
        <pt x="372" y="826" on="1"/>
        <pt x="405" y="197" on="1"/>
        <pt x="405" y="0" on="1"/>
        <pt x="91" y="0" on="1"/>
        <pt x="91" y="1165" on="1"/>
        <pt x="503" y="1165" on="1"/>
        <pt x="771" y="409" on="1"/>
        <pt x="1039" y="1165" on="1"/>
        <pt x="1453" y="1165" on="1"/>
      </contour>
    </TTGlyph>
    <TTGlyph name="N" xMin="121" yMin="0" xMax="1321" yMax="1456">
      <contour>
        <pt x="997" y="0" on="1"/>
        <pt x="446" y="922" on="1"/>
        <pt x="446" y="0" on="1"/>
        <pt x="121" y="0" on="1"/>
        <pt x="121" y="1456" on="1"/>
        <pt x="446" y="1456" on="1"/>
        <pt x="997" y="533" on="1"/>
        <pt x="997" y="1456" on="1"/>
        <pt x="1321" y="1456" on="1"/>
        <pt x="1321" y="0" on="1"/>
      </contour>
    </TTGlyph>
    <TTGlyph name="N.smcp" xMin="91" yMin="0" xMax="1144" yMax="1165">
      <contour>
        <pt x="832" y="0" on="1"/>
        <pt x="404" y="693" on="1"/>
        <pt x="404" y="0" on="1"/>
        <pt x="91" y="0" on="1"/>
        <pt x="91" y="1165" on="1"/>
        <pt x="404" y="1165" on="1"/>
        <pt x="832" y="472" on="1"/>
        <pt x="832" y="1165" on="1"/>
        <pt x="1144" y="1165" on="1"/>
        <pt x="1144" y="0" on="1"/>
      </contour>
    </TTGlyph>
    <TTGlyph name="Ntilde" xMin="121" yMin="0" xMax="1321" yMax="1847">
      <component glyphName=".ttfautohint" x="121" y="0" flags="0x0"/>
      <component glyphName="N" x="0" y="0" flags="0x0"/>
      <component glyphName="tilde" x="229" y="306" flags="0x4"/>
    </TTGlyph>
    <TTGlyph name="Ntilde.smcp" xMin="91" yMin="0" xMax="1144" yMax="1567">
      <component glyphName=".ttfautohint" x="91" y="0" flags="0x0"/>
      <component glyphName="N.smcp" x="0" y="0" flags="0x0"/>
      <component glyphName="tilde" x="127" y="26" flags="0x4"/>
    </TTGlyph>
    <TTGlyph name="O" xMin="79" yMin="-20" xMax="1335" yMax="1476">
      <contour>
        <pt x="1335" y="478" on="0"/>
        <pt x="1176" y="154" on="0"/>
        <pt x="892" y="-20" on="0"/>
        <pt x="708" y="-20" on="1"/>
        <pt x="523" y="-20" on="0"/>
        <pt x="238" y="154" on="0"/>
        <pt x="79" y="478" on="0"/>
        <pt x="79" y="697" on="1"/>
        <pt x="79" y="758" on="1"/>
        <pt x="79" y="977" on="0"/>
        <pt x="237" y="1302" on="0"/>
        <pt x="521" y="1476" on="0"/>
        <pt x="706" y="1476" on="1"/>
        <pt x="890" y="1476" on="0"/>
        <pt x="1176" y="1302" on="0"/>
        <pt x="1335" y="977" on="0"/>
        <pt x="1335" y="758" on="1"/>
        <pt x="1335" y="697" on="1"/>
      </contour>
      <contour>
        <pt x="1006" y="978" on="0"/>
        <pt x="850" y="1209" on="0"/>
        <pt x="706" y="1209" on="1"/>
        <pt x="560" y="1209" on="0"/>
        <pt x="407" y="979" on="0"/>
        <pt x="407" y="760" on="1"/>
        <pt x="407" y="697" on="1"/>
        <pt x="407" y="479" on="0"/>
        <pt x="563" y="246" on="0"/>
        <pt x="708" y="246" on="1"/>
        <pt x="851" y="246" on="0"/>
        <pt x="1006" y="480" on="0"/>
        <pt x="1006" y="697" on="1"/>
        <pt x="1006" y="760" on="1"/>
      </contour>
    </TTGlyph>
    <TTGlyph name="O.smcp" xMin="56" yMin="-16" xMax="1159" yMax="1181">
      <contour>
        <pt x="1159" y="386" on="0"/>
        <pt x="1019" y="125" on="0"/>
        <pt x="769" y="-16" on="0"/>
        <pt x="609" y="-16" on="1"/>
        <pt x="447" y="-16" on="0"/>
        <pt x="196" y="125" on="0"/>
        <pt x="56" y="386" on="0"/>
        <pt x="56" y="561" on="1"/>
        <pt x="56" y="603" on="1"/>
        <pt x="56" y="778" on="0"/>
        <pt x="195" y="1040" on="0"/>
        <pt x="445" y="1181" on="0"/>
        <pt x="607" y="1181" on="1"/>
        <pt x="767" y="1181" on="0"/>
        <pt x="1018" y="1040" on="0"/>
        <pt x="1159" y="778" on="0"/>
        <pt x="1159" y="603" on="1"/>
        <pt x="1159" y="561" on="1"/>
      </contour>
      <contour>
        <pt x="845" y="760" on="0"/>
        <pt x="720" y="932" on="0"/>
        <pt x="607" y="932" on="1"/>
        <pt x="491" y="932" on="0"/>
        <pt x="370" y="762" on="0"/>
        <pt x="370" y="604" on="1"/>
        <pt x="370" y="561" on="1"/>
        <pt x="370" y="405" on="0"/>
        <pt x="493" y="232" on="0"/>
        <pt x="609" y="232" on="1"/>
        <pt x="720" y="232" on="0"/>
        <pt x="845" y="407" on="0"/>
        <pt x="845" y="561" on="1"/>
        <pt x="845" y="604" on="1"/>
      </contour>
    </TTGlyph>
    <TTGlyph name="O.ss06" xMin="78" yMin="-21" xMax="1410" yMax="1477">
      <contour>
        <pt x="1410" y="504" on="0"/>
        <pt x="1241" y="171" on="0"/>
        <pt x="938" y="-21" on="0"/>
        <pt x="745" y="-21" on="1"/>
        <pt x="552" y="-21" on="0"/>
        <pt x="248" y="171" on="0"/>
        <pt x="78" y="504" on="0"/>
        <pt x="78" y="707" on="1"/>
        <pt x="78" y="749" on="1"/>
        <pt x="78" y="951" on="0"/>
        <pt x="247" y="1284" on="0"/>
        <pt x="550" y="1477" on="0"/>
        <pt x="743" y="1477" on="1"/>
        <pt x="936" y="1477" on="0"/>
        <pt x="1240" y="1284" on="0"/>
        <pt x="1410" y="951" on="0"/>
        <pt x="1410" y="749" on="1"/>
        <pt x="1410" y="707" on="1"/>
      </contour>
      <contour>
        <pt x="1086" y="879" on="0"/>
        <pt x="1004" y="1091" on="0"/>
        <pt x="849" y="1215" on="0"/>
        <pt x="743" y="1215" on="1"/>
        <pt x="637" y="1215" on="0"/>
        <pt x="483" y="1091" on="0"/>
        <pt x="403" y="880" on="0"/>
        <pt x="403" y="751" on="1"/>
        <pt x="403" y="707" on="1"/>
        <pt x="403" y="578" on="0"/>
        <pt x="484" y="365" on="0"/>
        <pt x="639" y="240" on="0"/>
        <pt x="745" y="240" on="1"/>
        <pt x="851" y="240" on="0"/>
        <pt x="1005" y="365" on="0"/>
        <pt x="1086" y="578" on="0"/>
        <pt x="1086" y="707" on="1"/>
        <pt x="1086" y="751" on="1"/>
      </contour>
    </TTGlyph>
    <TTGlyph name="OE" xMin="95" yMin="-20" xMax="1897" yMax="1476">
      <contour>
        <pt x="1233" y="1194" on="1"/>
        <pt x="1233" y="874" on="1"/>
        <pt x="1797" y="874" on="1"/>
        <pt x="1797" y="621" on="1"/>
        <pt x="1233" y="621" on="1"/>
        <pt x="1233" y="261" on="1"/>
        <pt x="1897" y="261" on="1"/>
        <pt x="1897" y="0" on="1"/>
        <pt x="1000" y="0" on="1"/>
        <pt x="822" y="-20" on="0"/>
        <pt x="712" y="-20" on="1"/>
        <pt x="531" y="-20" on="0"/>
        <pt x="251" y="131" on="0"/>
        <pt x="95" y="401" on="0"/>
        <pt x="95" y="576" on="1"/>
        <pt x="95" y="880" on="1"/>
        <pt x="95" y="1055" on="0"/>
        <pt x="250" y="1326" on="0"/>
        <pt x="529" y="1476" on="0"/>
        <pt x="710" y="1476" on="1"/>
        <pt x="838" y="1476" on="0"/>
        <pt x="1000" y="1456" on="1"/>
        <pt x="1897" y="1456" on="1"/>
        <pt x="1897" y="1194" on="1"/>
      </contour>
      <contour>
        <pt x="407" y="408" on="0"/>
        <pt x="569" y="232" on="0"/>
        <pt x="712" y="232" on="1"/>
        <pt x="807" y="232" on="0"/>
        <pt x="908" y="245" on="1"/>
        <pt x="908" y="1211" on="1"/>
        <pt x="807" y="1224" on="0"/>
        <pt x="710" y="1224" on="1"/>
        <pt x="567" y="1224" on="0"/>
        <pt x="407" y="1051" on="0"/>
        <pt x="407" y="882" on="1"/>
        <pt x="407" y="576" on="1"/>
      </contour>
    </TTGlyph>
    <TTGlyph name="Oacute" xMin="79" yMin="-20" xMax="1335" yMax="1846">
      <component glyphName=".ttfautohint" x="79" y="0" flags="0x0"/>
      <component glyphName="O" x="0" y="0" flags="0x0"/>
      <component glyphName="acutecomb" x="1237" y="310" flags="0x4"/>
    </TTGlyph>
    <TTGlyph name="Oacute.smcp" xMin="56" yMin="-16" xMax="1159" yMax="1566">
      <component glyphName=".ttfautohint" x="56" y="0" flags="0x0"/>
      <component glyphName="O.smcp" x="0" y="0" flags="0x0"/>
      <component glyphName="acutecomb" x="1136" y="30" flags="0x4"/>
    </TTGlyph>
    <TTGlyph name="Ocircumflex" xMin="79" yMin="-20" xMax="1335" yMax="1846">
      <component glyphName=".ttfautohint" x="79" y="0" flags="0x0"/>
      <component glyphName="O" x="0" y="0" flags="0x0"/>
      <component glyphName="circumflex" x="196" y="310" flags="0x4"/>
    </TTGlyph>
    <TTGlyph name="Ocircumflex.smcp" xMin="56" yMin="-16" xMax="1159" yMax="1566">
      <component glyphName=".ttfautohint" x="56" y="0" flags="0x0"/>
      <component glyphName="O.smcp" x="0" y="0" flags="0x0"/>
      <component glyphName="circumflex" x="95" y="30" flags="0x4"/>
    </TTGlyph>
    <TTGlyph name="Odieresis" xMin="79" yMin="-20" xMax="1335" yMax="1806">
      <component glyphName=".ttfautohint" x="79" y="0" flags="0x0"/>
      <component glyphName="O" x="0" y="0" flags="0x0"/>
      <component glyphName="dieresis" x="214" y="310" flags="0x4"/>
    </TTGlyph>
    <TTGlyph name="Odieresis.smcp" xMin="56" yMin="-16" xMax="1159" yMax="1526">
      <component glyphName=".ttfautohint" x="56" y="0" flags="0x0"/>
      <component glyphName="O.smcp" x="0" y="0" flags="0x0"/>
      <component glyphName="dieresis" x="113" y="30" flags="0x4"/>
    </TTGlyph>
    <TTGlyph name="Ograve" xMin="79" yMin="-20" xMax="1335" yMax="1846">
      <component glyphName=".ttfautohint" x="79" y="0" flags="0x0"/>
      <component glyphName="O" x="0" y="0" flags="0x0"/>
      <component glyphName="gravecomb" x="1250" y="310" flags="0x4"/>
    </TTGlyph>
    <TTGlyph name="Ograve.smcp" xMin="56" yMin="-16" xMax="1159" yMax="1566">
      <component glyphName=".ttfautohint" x="56" y="0" flags="0x0"/>
      <component glyphName="O.smcp" x="0" y="0" flags="0x0"/>
      <component glyphName="gravecomb" x="1149" y="30" flags="0x4"/>
    </TTGlyph>
    <TTGlyph name="Oslash" xMin="88" yMin="-95" xMax="1344" yMax="1518">
      <contour>
        <pt x="1245" y="1204" on="0"/>
        <pt x="1344" y="929" on="0"/>
        <pt x="1344" y="758" on="1"/>
        <pt x="1344" y="697" on="1"/>
        <pt x="1344" y="478" on="0"/>
        <pt x="1185" y="154" on="0"/>
        <pt x="901" y="-20" on="0"/>
        <pt x="717" y="-20" on="1"/>
        <pt x="554" y="-20" on="0"/>
        <pt x="424" y="48" on="1"/>
        <pt x="341" y="-95" on="1"/>
        <pt x="144" y="-95" on="1"/>
        <pt x="286" y="148" on="1"/>
        <pt x="191" y="243" on="0"/>
        <pt x="88" y="522" on="0"/>
        <pt x="88" y="697" on="1"/>
        <pt x="88" y="758" on="1"/>
        <pt x="88" y="977" on="0"/>
        <pt x="246" y="1302" on="0"/>
        <pt x="530" y="1476" on="0"/>
        <pt x="715" y="1476" on="1"/>
        <pt x="884" y="1476" on="0"/>
        <pt x="1018" y="1403" on="1"/>
        <pt x="1085" y="1518" on="1"/>
        <pt x="1281" y="1518" on="1"/>
        <pt x="1154" y="1299" on="1"/>
      </contour>
      <contour>
        <pt x="416" y="543" on="0"/>
        <pt x="455" y="439" on="1"/>
        <pt x="876" y="1159" on="1"/>
        <pt x="809" y="1209" on="0"/>
        <pt x="715" y="1209" on="1"/>
        <pt x="569" y="1209" on="0"/>
        <pt x="416" y="979" on="0"/>
        <pt x="416" y="760" on="1"/>
        <pt x="416" y="697" on="1"/>
      </contour>
      <contour>
        <pt x="1015" y="760" on="1"/>
        <pt x="1015" y="901" on="0"/>
        <pt x="981" y="1003" on="1"/>
        <pt x="565" y="290" on="1"/>
        <pt x="629" y="246" on="0"/>
        <pt x="717" y="246" on="1"/>
        <pt x="860" y="246" on="0"/>
        <pt x="1015" y="480" on="0"/>
        <pt x="1015" y="697" on="1"/>
      </contour>
    </TTGlyph>
    <TTGlyph name="Oslash.smcp" xMin="56" yMin="-55" xMax="1159" yMax="1218">
      <contour>
        <pt x="1082" y="940" on="0"/>
        <pt x="1159" y="730" on="0"/>
        <pt x="1159" y="603" on="1"/>
        <pt x="1159" y="561" on="1"/>
        <pt x="1159" y="386" on="0"/>
        <pt x="1019" y="125" on="0"/>
        <pt x="769" y="-16" on="0"/>
        <pt x="609" y="-16" on="1"/>
        <pt x="440" y="-16" on="0"/>
        <pt x="313" y="59" on="1"/>
        <pt x="229" y="-55" on="1"/>
        <pt x="58" y="-55" on="1"/>
        <pt x="204" y="146" on="1"/>
        <pt x="133" y="222" on="0"/>
        <pt x="56" y="433" on="0"/>
        <pt x="56" y="561" on="1"/>
        <pt x="56" y="603" on="1"/>
        <pt x="56" y="778" on="0"/>
        <pt x="195" y="1040" on="0"/>
        <pt x="445" y="1181" on="0"/>
        <pt x="607" y="1181" on="1"/>
        <pt x="775" y="1181" on="0"/>
        <pt x="904" y="1104" on="1"/>
        <pt x="987" y="1218" on="1"/>
        <pt x="1158" y="1218" on="1"/>
        <pt x="1011" y="1017" on="1"/>
      </contour>
      <contour>
        <pt x="370" y="470" on="0"/>
        <pt x="391" y="402" on="1"/>
        <pt x="745" y="886" on="1"/>
        <pt x="688" y="932" on="0"/>
        <pt x="607" y="932" on="1"/>
        <pt x="491" y="932" on="0"/>
        <pt x="370" y="762" on="0"/>
        <pt x="370" y="604" on="1"/>
        <pt x="370" y="561" on="1"/>
      </contour>
      <contour>
        <pt x="845" y="604" on="1"/>
        <pt x="845" y="694" on="0"/>
        <pt x="824" y="760" on="1"/>
        <pt x="471" y="277" on="1"/>
        <pt x="528" y="232" on="0"/>
        <pt x="609" y="232" on="1"/>
        <pt x="720" y="232" on="0"/>
        <pt x="845" y="407" on="0"/>
        <pt x="845" y="561" on="1"/>
      </contour>
    </TTGlyph>
    <TTGlyph name="Otilde" xMin="79" yMin="-20" xMax="1335" yMax="1847">
      <component glyphName=".ttfautohint" x="79" y="0" flags="0x0"/>
      <component glyphName="O" x="0" y="0" flags="0x0"/>
      <component glyphName="tilde" x="208" y="306" flags="0x4"/>
    </TTGlyph>
    <TTGlyph name="Otilde.smcp" xMin="56" yMin="-16" xMax="1159" yMax="1567">
      <component glyphName=".ttfautohint" x="56" y="0" flags="0x0"/>
      <component glyphName="O.smcp" x="0" y="0" flags="0x0"/>
      <component glyphName="tilde" x="107" y="26" flags="0x4"/>
    </TTGlyph>
    <TTGlyph name="P" xMin="121" yMin="0" xMax="1251" yMax="1456">
      <contour>
        <pt x="865" y="1456" on="0"/>
        <pt x="1117" y="1330" on="0"/>
        <pt x="1251" y="1108" on="0"/>
        <pt x="1251" y="966" on="1"/>
        <pt x="1251" y="826" on="0"/>
        <pt x="1117" y="615" on="0"/>
        <pt x="867" y="500" on="0"/>
        <pt x="696" y="500" on="1"/>
        <pt x="446" y="500" on="1"/>
        <pt x="446" y="0" on="1"/>
        <pt x="121" y="0" on="1"/>
        <pt x="121" y="1456" on="1"/>
        <pt x="696" y="1456" on="1"/>
      </contour>
      <contour>
        <pt x="811" y="762" on="0"/>
        <pt x="923" y="871" on="0"/>
        <pt x="923" y="964" on="1"/>
        <pt x="923" y="1027" on="0"/>
        <pt x="875" y="1131" on="0"/>
        <pt x="773" y="1194" on="0"/>
        <pt x="696" y="1194" on="1"/>
        <pt x="446" y="1194" on="1"/>
        <pt x="446" y="762" on="1"/>
        <pt x="696" y="762" on="1"/>
      </contour>
    </TTGlyph>
    <TTGlyph name="P.smcp" xMin="91" yMin="0" xMax="1082" yMax="1165">
      <contour>
        <pt x="742" y="1165" on="0"/>
        <pt x="963" y="1059" on="0"/>
        <pt x="1082" y="872" on="0"/>
        <pt x="1082" y="753" on="1"/>
        <pt x="1082" y="641" on="0"/>
        <pt x="963" y="468" on="0"/>
        <pt x="743" y="371" on="0"/>
        <pt x="594" y="371" on="1"/>
        <pt x="404" y="371" on="1"/>
        <pt x="404" y="0" on="1"/>
        <pt x="91" y="0" on="1"/>
        <pt x="91" y="1165" on="1"/>
        <pt x="594" y="1165" on="1"/>
      </contour>
      <contour>
        <pt x="681" y="623" on="0"/>
        <pt x="771" y="693" on="0"/>
        <pt x="771" y="751" on="1"/>
        <pt x="771" y="821" on="0"/>
        <pt x="680" y="913" on="0"/>
        <pt x="594" y="913" on="1"/>
        <pt x="404" y="913" on="1"/>
        <pt x="404" y="623" on="1"/>
        <pt x="594" y="623" on="1"/>
      </contour>
    </TTGlyph>
    <TTGlyph name="Q" xMin="79" yMin="-264" xMax="1335" yMax="1476">
      <contour>
        <pt x="1335" y="499" on="0"/>
        <pt x="1205" y="195" on="0"/>
        <pt x="1087" y="103" on="1"/>
        <pt x="1323" y="-85" on="1"/>
        <pt x="1119" y="-264" on="1"/>
        <pt x="809" y="-13" on="1"/>
        <pt x="763" y="-20" on="0"/>
        <pt x="708" y="-20" on="1"/>
        <pt x="523" y="-20" on="0"/>
        <pt x="238" y="154" on="0"/>
        <pt x="79" y="478" on="0"/>
        <pt x="79" y="697" on="1"/>
        <pt x="79" y="758" on="1"/>
        <pt x="79" y="977" on="0"/>
        <pt x="237" y="1302" on="0"/>
        <pt x="521" y="1476" on="0"/>
        <pt x="706" y="1476" on="1"/>
        <pt x="890" y="1476" on="0"/>
        <pt x="1176" y="1302" on="0"/>
        <pt x="1335" y="977" on="0"/>
        <pt x="1335" y="758" on="1"/>
        <pt x="1335" y="697" on="1"/>
      </contour>
      <contour>
        <pt x="408" y="479" on="0"/>
        <pt x="563" y="246" on="0"/>
        <pt x="708" y="246" on="1"/>
        <pt x="851" y="246" on="0"/>
        <pt x="1006" y="480" on="0"/>
        <pt x="1006" y="697" on="1"/>
        <pt x="1006" y="760" on="1"/>
        <pt x="1006" y="978" on="0"/>
        <pt x="850" y="1209" on="0"/>
        <pt x="706" y="1209" on="1"/>
        <pt x="560" y="1209" on="0"/>
        <pt x="408" y="980" on="0"/>
        <pt x="408" y="760" on="1"/>
        <pt x="408" y="697" on="1"/>
      </contour>
    </TTGlyph>
    <TTGlyph name="Q.smcp" xMin="60" yMin="-219" xMax="1161" yMax="1181">
      <contour>
        <pt x="1161" y="408" on="0"/>
        <pt x="1053" y="168" on="0"/>
        <pt x="954" y="92" on="1"/>
        <pt x="1145" y="-53" on="1"/>
        <pt x="952" y="-219" on="1"/>
        <pt x="684" y="-12" on="1"/>
        <pt x="652" y="-16" on="0"/>
        <pt x="611" y="-16" on="1"/>
        <pt x="449" y="-16" on="0"/>
        <pt x="199" y="125" on="0"/>
        <pt x="60" y="386" on="0"/>
        <pt x="60" y="561" on="1"/>
        <pt x="60" y="603" on="1"/>
        <pt x="60" y="778" on="0"/>
        <pt x="199" y="1040" on="0"/>
        <pt x="448" y="1181" on="0"/>
        <pt x="610" y="1181" on="1"/>
        <pt x="770" y="1181" on="0"/>
        <pt x="1020" y="1040" on="0"/>
        <pt x="1161" y="778" on="0"/>
        <pt x="1161" y="603" on="1"/>
        <pt x="1161" y="561" on="1"/>
      </contour>
      <contour>
        <pt x="372" y="405" on="0"/>
        <pt x="495" y="232" on="0"/>
        <pt x="611" y="232" on="1"/>
        <pt x="723" y="232" on="0"/>
        <pt x="849" y="407" on="0"/>
        <pt x="849" y="561" on="1"/>
        <pt x="849" y="604" on="1"/>
        <pt x="849" y="760" on="0"/>
        <pt x="723" y="932" on="0"/>
        <pt x="610" y="932" on="1"/>
        <pt x="494" y="932" on="0"/>
        <pt x="372" y="762" on="0"/>
        <pt x="372" y="604" on="1"/>
        <pt x="372" y="561" on="1"/>
      </contour>
    </TTGlyph>
    <TTGlyph name="Q.ss06" xMin="78" yMin="-253" xMax="1410" yMax="1477">
      <contour>
        <pt x="1410" y="531" on="0"/>
        <pt x="1282" y="226" on="0"/>
        <pt x="1165" y="127" on="1"/>
        <pt x="1397" y="-74" on="1"/>
        <pt x="1194" y="-253" on="1"/>
        <pt x="909" y="-2" on="1"/>
        <pt x="833" y="-21" on="0"/>
        <pt x="745" y="-21" on="1"/>
        <pt x="550" y="-21" on="0"/>
        <pt x="247" y="167" on="0"/>
        <pt x="78" y="503" on="0"/>
        <pt x="78" y="717" on="1"/>
        <pt x="78" y="738" on="1"/>
        <pt x="78" y="952" on="0"/>
        <pt x="246" y="1289" on="0"/>
        <pt x="549" y="1477" on="0"/>
        <pt x="743" y="1477" on="1"/>
        <pt x="937" y="1477" on="0"/>
        <pt x="1241" y="1289" on="0"/>
        <pt x="1410" y="952" on="0"/>
        <pt x="1410" y="738" on="1"/>
        <pt x="1410" y="717" on="1"/>
      </contour>
      <contour>
        <pt x="403" y="577" on="0"/>
        <pt x="483" y="361" on="0"/>
        <pt x="638" y="240" on="0"/>
        <pt x="745" y="240" on="1"/>
        <pt x="852" y="240" on="0"/>
        <pt x="1006" y="361" on="0"/>
        <pt x="1086" y="577" on="0"/>
        <pt x="1086" y="717" on="1"/>
        <pt x="1086" y="740" on="1"/>
        <pt x="1086" y="880" on="0"/>
        <pt x="1005" y="1095" on="0"/>
        <pt x="850" y="1215" on="0"/>
        <pt x="743" y="1215" on="1"/>
        <pt x="636" y="1215" on="0"/>
        <pt x="482" y="1096" on="0"/>
        <pt x="403" y="881" on="0"/>
        <pt x="403" y="740" on="1"/>
        <pt x="403" y="717" on="1"/>
      </contour>
    </TTGlyph>
    <TTGlyph name="R" xMin="121" yMin="0" xMax="1274" yMax="1456">
      <contour>
        <pt x="1274" y="15" on="1"/>
        <pt x="1274" y="0" on="1"/>
        <pt x="926" y="0" on="1"/>
        <pt x="663" y="520" on="1"/>
        <pt x="446" y="520" on="1"/>
        <pt x="446" y="0" on="1"/>
        <pt x="121" y="0" on="1"/>
        <pt x="121" y="1456" on="1"/>
        <pt x="678" y="1456" on="1"/>
        <pt x="846" y="1456" on="0"/>
        <pt x="1091" y="1355" on="0"/>
        <pt x="1222" y="1158" on="0"/>
        <pt x="1222" y="1016" on="1"/>
        <pt x="1222" y="858" on="0"/>
        <pt x="1090" y="661" on="0"/>
        <pt x="965" y="605" on="1"/>
      </contour>
      <contour>
        <pt x="446" y="782" on="1"/>
        <pt x="678" y="782" on="1"/>
        <pt x="785" y="782" on="0"/>
        <pt x="897" y="891" on="0"/>
        <pt x="897" y="987" on="1"/>
        <pt x="897" y="1085" on="0"/>
        <pt x="786" y="1194" on="0"/>
        <pt x="678" y="1194" on="1"/>
        <pt x="446" y="1194" on="1"/>
      </contour>
    </TTGlyph>
    <TTGlyph name="R.alt" xMin="121" yMin="0" xMax="1281" yMax="1456">
      <contour>
        <pt x="1206" y="199" on="0"/>
        <pt x="1240" y="61" on="0"/>
        <pt x="1281" y="30" on="1"/>
        <pt x="1281" y="0" on="1"/>
        <pt x="948" y="0" on="1"/>
        <pt x="909" y="31" on="0"/>
        <pt x="882" y="190" on="0"/>
        <pt x="882" y="255" on="1"/>
        <pt x="882" y="343" on="1"/>
        <pt x="882" y="449" on="0"/>
        <pt x="780" y="556" on="0"/>
        <pt x="674" y="556" on="1"/>
        <pt x="445" y="556" on="1"/>
        <pt x="445" y="0" on="1"/>
        <pt x="121" y="0" on="1"/>
        <pt x="121" y="1456" on="1"/>
        <pt x="708" y="1456" on="1"/>
        <pt x="958" y="1456" on="0"/>
        <pt x="1221" y="1232" on="0"/>
        <pt x="1221" y="1026" on="1"/>
        <pt x="1221" y="903" on="0"/>
        <pt x="1085" y="745" on="0"/>
        <pt x="956" y="697" on="1"/>
        <pt x="1091" y="659" on="0"/>
        <pt x="1206" y="480" on="0"/>
        <pt x="1206" y="345" on="1"/>
        <pt x="1206" y="253" on="1"/>
      </contour>
      <contour>
        <pt x="677" y="818" on="1"/>
        <pt x="786" y="818" on="0"/>
        <pt x="897" y="910" on="0"/>
        <pt x="897" y="997" on="1"/>
        <pt x="897" y="1087" on="0"/>
        <pt x="792" y="1194" on="0"/>
        <pt x="687" y="1194" on="1"/>
        <pt x="445" y="1194" on="1"/>
        <pt x="445" y="818" on="1"/>
      </contour>
    </TTGlyph>
    <TTGlyph name="R.smcp" xMin="91" yMin="0" xMax="1109" yMax="1165">
      <contour>
        <pt x="1109" y="13" on="1"/>
        <pt x="1109" y="0" on="1"/>
        <pt x="773" y="0" on="1"/>
        <pt x="564" y="391" on="1"/>
        <pt x="404" y="391" on="1"/>
        <pt x="404" y="0" on="1"/>
        <pt x="91" y="0" on="1"/>
        <pt x="91" y="1165" on="1"/>
        <pt x="591" y="1165" on="1"/>
        <pt x="736" y="1165" on="0"/>
        <pt x="950" y="1086" on="0"/>
        <pt x="1067" y="929" on="0"/>
        <pt x="1067" y="817" on="1"/>
        <pt x="1067" y="680" on="0"/>
        <pt x="958" y="526" on="0"/>
        <pt x="852" y="477" on="1"/>
      </contour>
      <contour>
        <pt x="404" y="643" on="1"/>
        <pt x="591" y="643" on="1"/>
        <pt x="755" y="643" on="0"/>
        <pt x="755" y="780" on="1"/>
        <pt x="755" y="845" on="0"/>
        <pt x="670" y="913" on="0"/>
        <pt x="591" y="913" on="1"/>
        <pt x="404" y="913" on="1"/>
      </contour>
    </TTGlyph>
    <TTGlyph name="S" xMin="67" yMin="-20" xMax="1199" yMax="1476">
      <contour>
        <pt x="454" y="652" on="0"/>
        <pt x="241" y="769" on="0"/>
        <pt x="111" y="945" on="0"/>
        <pt x="111" y="1068" on="1"/>
        <pt x="111" y="1190" on="0"/>
        <pt x="252" y="1375" on="0"/>
        <pt x="501" y="1476" on="0"/>
        <pt x="660" y="1476" on="1"/>
        <pt x="819" y="1476" on="0"/>
        <pt x="1064" y="1364" on="0"/>
        <pt x="1199" y="1159" on="0"/>
        <pt x="1199" y="1025" on="1"/>
        <pt x="875" y="1025" on="1"/>
        <pt x="875" y="1114" on="0"/>
        <pt x="762" y="1219" on="0"/>
        <pt x="653" y="1219" on="1"/>
        <pt x="548" y="1219" on="0"/>
        <pt x="435" y="1132" on="0"/>
        <pt x="435" y="1065" on="1"/>
        <pt x="435" y="1001" on="0"/>
        <pt x="571" y="910" on="0"/>
        <pt x="713" y="866" on="1"/>
        <pt x="958" y="790" on="0"/>
        <pt x="1199" y="564" on="0"/>
        <pt x="1199" y="388" on="1"/>
        <pt x="1199" y="260" on="0"/>
        <pt x="1068" y="76" on="0"/>
        <pt x="828" y="-20" on="0"/>
        <pt x="666" y="-20" on="1"/>
        <pt x="511" y="-20" on="0"/>
        <pt x="238" y="86" on="0"/>
        <pt x="67" y="306" on="0"/>
        <pt x="67" y="468" on="1"/>
        <pt x="392" y="468" on="1"/>
        <pt x="392" y="344" on="0"/>
        <pt x="532" y="236" on="0"/>
        <pt x="666" y="236" on="1"/>
        <pt x="769" y="236" on="0"/>
        <pt x="874" y="320" on="0"/>
        <pt x="874" y="386" on="1"/>
        <pt x="874" y="436" on="0"/>
        <pt x="832" y="504" on="0"/>
        <pt x="715" y="567" on="0"/>
        <pt x="602" y="604" on="1"/>
      </contour>
    </TTGlyph>
    <TTGlyph name="S.smcp" xMin="57" yMin="-16" xMax="1035" yMax="1181">
      <contour>
        <pt x="368" y="500" on="0"/>
        <pt x="185" y="589" on="0"/>
        <pt x="97" y="725" on="0"/>
        <pt x="97" y="832" on="1"/>
        <pt x="97" y="934" on="0"/>
        <pt x="213" y="1093" on="0"/>
        <pt x="418" y="1181" on="0"/>
        <pt x="547" y="1181" on="1"/>
        <pt x="690" y="1181" on="0"/>
        <pt x="911" y="1096" on="0"/>
        <pt x="1035" y="932" on="0"/>
        <pt x="1035" y="816" on="1"/>
        <pt x="723" y="816" on="1"/>
        <pt x="723" y="852" on="0"/>
        <pt x="681" y="915" on="0"/>
        <pt x="601" y="953" on="0"/>
        <pt x="548" y="953" on="1"/>
        <pt x="496" y="953" on="0"/>
        <pt x="425" y="920" on="0"/>
        <pt x="390" y="871" on="0"/>
        <pt x="390" y="846" on="1"/>
        <pt x="390" y="815" on="0"/>
        <pt x="428" y="771" on="0"/>
        <pt x="514" y="734" on="0"/>
        <pt x="589" y="716" on="1"/>
        <pt x="743" y="683" on="0"/>
        <pt x="936" y="586" on="0"/>
        <pt x="1031" y="437" on="0"/>
        <pt x="1031" y="327" on="1"/>
        <pt x="1031" y="219" on="0"/>
        <pt x="917" y="65" on="0"/>
        <pt x="708" y="-16" on="0"/>
        <pt x="568" y="-16" on="1"/>
        <pt x="434" y="-16" on="0"/>
        <pt x="202" y="66" on="0"/>
        <pt x="57" y="243" on="0"/>
        <pt x="57" y="377" on="1"/>
        <pt x="370" y="377" on="1"/>
        <pt x="370" y="289" on="0"/>
        <pt x="473" y="211" on="0"/>
        <pt x="587" y="211" on="1"/>
        <pt x="667" y="211" on="0"/>
        <pt x="737" y="276" on="0"/>
        <pt x="737" y="317" on="1"/>
        <pt x="737" y="352" on="0"/>
        <pt x="698" y="404" on="0"/>
        <pt x="606" y="445" on="0"/>
        <pt x="526" y="463" on="1"/>
      </contour>
    </TTGlyph>
    <TTGlyph name="T" xMin="39" yMin="0" xMax="1239" yMax="1456">
      <contour>
        <pt x="1239" y="1194" on="1"/>
        <pt x="798" y="1194" on="1"/>
        <pt x="798" y="0" on="1"/>
        <pt x="473" y="0" on="1"/>
        <pt x="473" y="1194" on="1"/>
        <pt x="39" y="1194" on="1"/>
        <pt x="39" y="1456" on="1"/>
        <pt x="1239" y="1456" on="1"/>
      </contour>
    </TTGlyph>
    <TTGlyph name="T.smcp" xMin="31" yMin="0" xMax="1084" yMax="1165">
      <contour>
        <pt x="1084" y="913" on="1"/>
        <pt x="710" y="913" on="1"/>
        <pt x="710" y="0" on="1"/>
        <pt x="396" y="0" on="1"/>
        <pt x="396" y="913" on="1"/>
        <pt x="31" y="913" on="1"/>
        <pt x="31" y="1165" on="1"/>
        <pt x="1084" y="1165" on="1"/>
      </contour>
    </TTGlyph>
    <TTGlyph name="Thorn" xMin="125" yMin="0" xMax="1197" yMax="1456">
      <contour>
        <pt x="823" y="1195" on="0"/>
        <pt x="1070" y="1079" on="0"/>
        <pt x="1197" y="873" on="0"/>
        <pt x="1197" y="738" on="1"/>
        <pt x="1197" y="604" on="0"/>
        <pt x="1070" y="397" on="0"/>
        <pt x="823" y="281" on="0"/>
        <pt x="649" y="281" on="1"/>
        <pt x="438" y="281" on="1"/>
        <pt x="438" y="0" on="1"/>
        <pt x="125" y="0" on="1"/>
        <pt x="125" y="1456" on="1"/>
        <pt x="438" y="1456" on="1"/>
        <pt x="438" y="1195" on="1"/>
        <pt x="649" y="1195" on="1"/>
      </contour>
      <contour>
        <pt x="768" y="533" on="0"/>
        <pt x="884" y="649" on="0"/>
        <pt x="884" y="736" on="1"/>
        <pt x="884" y="826" on="0"/>
        <pt x="768" y="944" on="0"/>
        <pt x="649" y="944" on="1"/>
        <pt x="438" y="944" on="1"/>
        <pt x="438" y="533" on="1"/>
        <pt x="649" y="533" on="1"/>
      </contour>
    </TTGlyph>
    <TTGlyph name="Thorn.smcp" xMin="91" yMin="0" xMax="1010" yMax="1165">
      <contour>
        <pt x="669" y="1011" on="0"/>
        <pt x="891" y="910" on="0"/>
        <pt x="1010" y="731" on="0"/>
        <pt x="1010" y="617" on="1"/>
        <pt x="1010" y="499" on="0"/>
        <pt x="891" y="318" on="0"/>
        <pt x="670" y="217" on="0"/>
        <pt x="521" y="217" on="1"/>
        <pt x="404" y="217" on="1"/>
        <pt x="404" y="0" on="1"/>
        <pt x="91" y="0" on="1"/>
        <pt x="91" y="1165" on="1"/>
        <pt x="404" y="1165" on="1"/>
        <pt x="404" y="1011" on="1"/>
        <pt x="521" y="1011" on="1"/>
      </contour>
      <contour>
        <pt x="608" y="468" on="0"/>
        <pt x="699" y="550" on="0"/>
        <pt x="699" y="615" on="1"/>
        <pt x="699" y="677" on="0"/>
        <pt x="607" y="759" on="0"/>
        <pt x="521" y="759" on="1"/>
        <pt x="404" y="759" on="1"/>
        <pt x="404" y="468" on="1"/>
        <pt x="521" y="468" on="1"/>
      </contour>
    </TTGlyph>
    <TTGlyph name="U" xMin="111" yMin="-20" xMax="1242" yMax="1456">
      <contour>
        <pt x="1242" y="502" on="1"/>
        <pt x="1242" y="336" on="0"/>
        <pt x="1101" y="101" on="0"/>
        <pt x="846" y="-20" on="0"/>
        <pt x="678" y="-20" on="1"/>
        <pt x="509" y="-20" on="0"/>
        <pt x="254" y="101" on="0"/>
        <pt x="111" y="336" on="0"/>
        <pt x="111" y="502" on="1"/>
        <pt x="111" y="1456" on="1"/>
        <pt x="436" y="1456" on="1"/>
        <pt x="436" y="502" on="1"/>
        <pt x="436" y="241" on="0"/>
        <pt x="678" y="241" on="1"/>
        <pt x="796" y="241" on="0"/>
        <pt x="917" y="367" on="0"/>
        <pt x="917" y="502" on="1"/>
        <pt x="917" y="1456" on="1"/>
        <pt x="1242" y="1456" on="1"/>
      </contour>
    </TTGlyph>
    <TTGlyph name="U.smcp" xMin="89" yMin="-16" xMax="1082" yMax="1165">
      <contour>
        <pt x="1082" y="415" on="1"/>
        <pt x="1082" y="278" on="0"/>
        <pt x="961" y="84" on="0"/>
        <pt x="738" y="-16" on="0"/>
        <pt x="587" y="-16" on="1"/>
        <pt x="438" y="-16" on="0"/>
        <pt x="213" y="84" on="0"/>
        <pt x="89" y="279" on="0"/>
        <pt x="89" y="415" on="1"/>
        <pt x="89" y="1165" on="1"/>
        <pt x="402" y="1165" on="1"/>
        <pt x="402" y="415" on="1"/>
        <pt x="402" y="321" on="0"/>
        <pt x="495" y="235" on="0"/>
        <pt x="587" y="235" on="1"/>
        <pt x="679" y="235" on="0"/>
        <pt x="769" y="321" on="0"/>
        <pt x="769" y="415" on="1"/>
        <pt x="769" y="1165" on="1"/>
        <pt x="1082" y="1165" on="1"/>
      </contour>
    </TTGlyph>
    <TTGlyph name="Uacute" xMin="111" yMin="-20" xMax="1242" yMax="1846">
      <component glyphName=".ttfautohint" x="111" y="0" flags="0x0"/>
      <component glyphName="U" x="0" y="0" flags="0x0"/>
      <component glyphName="acutecomb" x="1204" y="310" flags="0x4"/>
    </TTGlyph>
    <TTGlyph name="Uacute.smcp" xMin="89" yMin="-16" xMax="1082" yMax="1566">
      <component glyphName=".ttfautohint" x="89" y="0" flags="0x0"/>
      <component glyphName="U.smcp" x="0" y="0" flags="0x0"/>
      <component glyphName="acutecomb" x="1112" y="30" flags="0x4"/>
    </TTGlyph>
    <TTGlyph name="Ucircumflex" xMin="111" yMin="-20" xMax="1242" yMax="1846">
      <component glyphName=".ttfautohint" x="111" y="0" flags="0x0"/>
      <component glyphName="U" x="0" y="0" flags="0x0"/>
      <component glyphName="circumflex" x="163" y="310" flags="0x4"/>
    </TTGlyph>
    <TTGlyph name="Ucircumflex.smcp" xMin="89" yMin="-16" xMax="1082" yMax="1566">
      <component glyphName=".ttfautohint" x="89" y="0" flags="0x0"/>
      <component glyphName="U.smcp" x="0" y="0" flags="0x0"/>
      <component glyphName="circumflex" x="71" y="30" flags="0x4"/>
    </TTGlyph>
    <TTGlyph name="Udieresis" xMin="111" yMin="-20" xMax="1242" yMax="1806">
      <component glyphName=".ttfautohint" x="111" y="0" flags="0x0"/>
      <component glyphName="U" x="0" y="0" flags="0x0"/>
      <component glyphName="dieresis" x="181" y="310" flags="0x4"/>
    </TTGlyph>
    <TTGlyph name="Udieresis.smcp" xMin="89" yMin="-16" xMax="1082" yMax="1526">
      <component glyphName=".ttfautohint" x="89" y="0" flags="0x0"/>
      <component glyphName="U.smcp" x="0" y="0" flags="0x0"/>
      <component glyphName="dieresis" x="89" y="30" flags="0x4"/>
    </TTGlyph>
    <TTGlyph name="Ugrave" xMin="111" yMin="-20" xMax="1242" yMax="1846">
      <component glyphName=".ttfautohint" x="111" y="0" flags="0x0"/>
      <component glyphName="U" x="0" y="0" flags="0x0"/>
      <component glyphName="gravecomb" x="1217" y="310" flags="0x4"/>
    </TTGlyph>
    <TTGlyph name="Ugrave.smcp" xMin="89" yMin="-16" xMax="1082" yMax="1566">
      <component glyphName=".ttfautohint" x="89" y="0" flags="0x0"/>
      <component glyphName="U.smcp" x="0" y="0" flags="0x0"/>
      <component glyphName="gravecomb" x="1125" y="30" flags="0x4"/>
    </TTGlyph>
    <TTGlyph name="V" xMin="2" yMin="0" xMax="1345" yMax="1456">
      <contour>
        <pt x="1345" y="1456" on="1"/>
        <pt x="845" y="0" on="1"/>
        <pt x="499" y="0" on="1"/>
        <pt x="2" y="1456" on="1"/>
        <pt x="362" y="1456" on="1"/>
        <pt x="672" y="385" on="1"/>
        <pt x="983" y="1456" on="1"/>
      </contour>
    </TTGlyph>
    <TTGlyph name="V.smcp" xMin="-7" yMin="0" xMax="1173" yMax="1165">
      <contour>
        <pt x="1173" y="1165" on="1"/>
        <pt x="755" y="0" on="1"/>
        <pt x="410" y="0" on="1"/>
        <pt x="-7" y="1165" on="1"/>
        <pt x="320" y="1165" on="1"/>
        <pt x="574" y="324" on="1"/>
        <pt x="582" y="284" on="1"/>
        <pt x="589" y="321" on="1"/>
        <pt x="846" y="1165" on="1"/>
      </contour>
    </TTGlyph>
    <TTGlyph name="W" xMin="29" yMin="0" xMax="1756" yMax="1456">
      <contour>
        <pt x="1756" y="1456" on="1"/>
        <pt x="1440" y="0" on="1"/>
        <pt x="1109" y="0" on="1"/>
        <pt x="892" y="921" on="1"/>
        <pt x="677" y="0" on="1"/>
        <pt x="346" y="0" on="1"/>
        <pt x="29" y="1456" on="1"/>
        <pt x="351" y="1456" on="1"/>
        <pt x="534" y="463" on="1"/>
        <pt x="755" y="1456" on="1"/>
        <pt x="1030" y="1456" on="1"/>
        <pt x="1253" y="461" on="1"/>
        <pt x="1435" y="1456" on="1"/>
      </contour>
    </TTGlyph>
    <TTGlyph name="W.smcp" xMin="27" yMin="0" xMax="1494" yMax="1165">
      <contour>
        <pt x="1494" y="1165" on="1"/>
        <pt x="1232" y="0" on="1"/>
        <pt x="918" y="0" on="1"/>
        <pt x="759" y="681" on="1"/>
        <pt x="605" y="0" on="1"/>
        <pt x="291" y="0" on="1"/>
        <pt x="27" y="1165" on="1"/>
        <pt x="327" y="1165" on="1"/>
        <pt x="462" y="416" on="1"/>
        <pt x="623" y="1165" on="1"/>
        <pt x="897" y="1165" on="1"/>
        <pt x="1062" y="417" on="1"/>
        <pt x="1196" y="1165" on="1"/>
      </contour>
    </TTGlyph>
    <TTGlyph name="X" xMin="14" yMin="0" xMax="1291" yMax="1456">
      <contour>
        <pt x="909" y="1456" on="1"/>
        <pt x="1280" y="1456" on="1"/>
        <pt x="865" y="734" on="1"/>
        <pt x="1291" y="0" on="1"/>
        <pt x="916" y="0" on="1"/>
        <pt x="653" y="498" on="1"/>
        <pt x="389" y="0" on="1"/>
        <pt x="14" y="0" on="1"/>
        <pt x="441" y="734" on="1"/>
        <pt x="25" y="1456" on="1"/>
        <pt x="396" y="1456" on="1"/>
        <pt x="653" y="967" on="1"/>
      </contour>
    </TTGlyph>
    <TTGlyph name="X.smcp" xMin="-5" yMin="0" xMax="1126" yMax="1165">
      <contour>
        <pt x="736" y="1165" on="1"/>
        <pt x="1094" y="1165" on="1"/>
        <pt x="745" y="587" on="1"/>
        <pt x="1126" y="0" on="1"/>
        <pt x="757" y="0" on="1"/>
        <pt x="551" y="369" on="1"/>
        <pt x="354" y="0" on="1"/>
        <pt x="-5" y="0" on="1"/>
        <pt x="355" y="587" on="1"/>
        <pt x="5" y="1165" on="1"/>
        <pt x="361" y="1165" on="1"/>
        <pt x="547" y="803" on="1"/>
      </contour>
    </TTGlyph>
    <TTGlyph name="Y" xMin="-1" yMin="0" xMax="1276" yMax="1456">
      <contour>
        <pt x="924" y="1456" on="1"/>
        <pt x="1276" y="1456" on="1"/>
        <pt x="802" y="525" on="1"/>
        <pt x="802" y="0" on="1"/>
        <pt x="473" y="0" on="1"/>
        <pt x="473" y="525" on="1"/>
        <pt x="-1" y="1456" on="1"/>
        <pt x="352" y="1456" on="1"/>
        <pt x="638" y="817" on="1"/>
      </contour>
    </TTGlyph>
    <TTGlyph name="Y.smcp" xMin="-5" yMin="0" xMax="1116" yMax="1165">
      <contour>
        <pt x="708" y="407" on="1"/>
        <pt x="708" y="0" on="1"/>
        <pt x="395" y="0" on="1"/>
        <pt x="395" y="419" on="1"/>
        <pt x="-5" y="1165" on="1"/>
        <pt x="331" y="1165" on="1"/>
        <pt x="554" y="689" on="1"/>
        <pt x="779" y="1165" on="1"/>
        <pt x="1116" y="1165" on="1"/>
      </contour>
    </TTGlyph>
    <TTGlyph name="Yacute" xMin="-1" yMin="0" xMax="1276" yMax="1846">
      <component glyphName=".ttfautohint" x="0" y="0" flags="0x0"/>
      <component glyphName="Y" x="0" y="0" flags="0x0"/>
      <component glyphName="acutecomb" x="1171" y="310" flags="0x4"/>
    </TTGlyph>
    <TTGlyph name="Yacute.smcp" xMin="-5" yMin="0" xMax="1116" yMax="1566">
      <component glyphName=".ttfautohint" x="0" y="0" flags="0x0"/>
      <component glyphName="Y.smcp" x="0" y="0" flags="0x0"/>
      <component glyphName="acutecomb" x="1073" y="30" flags="0x4"/>
    </TTGlyph>
    <TTGlyph name="Z" xMin="69" yMin="0" xMax="1191" yMax="1456">
      <contour>
        <pt x="1191" y="261" on="1"/>
        <pt x="1191" y="0" on="1"/>
        <pt x="70" y="0" on="1"/>
        <pt x="70" y="182" on="1"/>
        <pt x="775" y="1194" on="1"/>
        <pt x="69" y="1194" on="1"/>
        <pt x="69" y="1456" on="1"/>
        <pt x="1179" y="1456" on="1"/>
        <pt x="1179" y="1279" on="1"/>
        <pt x="480" y="261" on="1"/>
      </contour>
    </TTGlyph>
    <TTGlyph name="Z.smcp" xMin="50" yMin="0" xMax="1037" yMax="1165">
      <contour>
        <pt x="1037" y="251" on="1"/>
        <pt x="1037" y="0" on="1"/>
        <pt x="55" y="0" on="1"/>
        <pt x="55" y="159" on="1"/>
        <pt x="625" y="913" on="1"/>
        <pt x="50" y="913" on="1"/>
        <pt x="50" y="1165" on="1"/>
        <pt x="1032" y="1165" on="1"/>
        <pt x="1032" y="1011" on="1"/>
        <pt x="470" y="251" on="1"/>
      </contour>
    </TTGlyph>
    <TTGlyph name="a" xMin="58" yMin="-20" xMax="1036" yMax="1102">
      <contour>
        <pt x="991" y="174" on="0"/>
        <pt x="1013" y="60" on="0"/>
        <pt x="1036" y="17" on="1"/>
        <pt x="1036" y="0" on="1"/>
        <pt x="722" y="0" on="1"/>
        <pt x="704" y="40" on="0"/>
        <pt x="693" y="96" on="1"/>
        <pt x="595" y="-20" on="0"/>
        <pt x="425" y="-20" on="1"/>
        <pt x="324" y="-20" on="0"/>
        <pt x="156" y="63" on="0"/>
        <pt x="58" y="212" on="0"/>
        <pt x="58" y="305" on="1"/>
        <pt x="58" y="476" on="0"/>
        <pt x="311" y="661" on="0"/>
        <pt x="561" y="661" on="1"/>
        <pt x="678" y="661" on="1"/>
        <pt x="678" y="720" on="1"/>
        <pt x="678" y="793" on="0"/>
        <pt x="607" y="874" on="0"/>
        <pt x="533" y="874" on="1"/>
        <pt x="467" y="874" on="0"/>
        <pt x="394" y="811" on="0"/>
        <pt x="394" y="752" on="1"/>
        <pt x="83" y="752" on="1"/>
        <pt x="83" y="850" on="0"/>
        <pt x="198" y="1010" on="0"/>
        <pt x="411" y="1102" on="0"/>
        <pt x="550" y="1102" on="1"/>
        <pt x="679" y="1102" on="0"/>
        <pt x="878" y="1015" on="0"/>
        <pt x="991" y="843" on="0"/>
        <pt x="991" y="718" on="1"/>
        <pt x="991" y="270" on="1"/>
      </contour>
      <contour>
        <pt x="559" y="214" on="0"/>
        <pt x="656" y="268" on="0"/>
        <pt x="678" y="307" on="1"/>
        <pt x="678" y="485" on="1"/>
        <pt x="566" y="485" on="1"/>
        <pt x="466" y="485" on="0"/>
        <pt x="370" y="394" on="0"/>
        <pt x="370" y="324" on="1"/>
        <pt x="370" y="275" on="0"/>
        <pt x="439" y="214" on="0"/>
        <pt x="496" y="214" on="1"/>
      </contour>
    </TTGlyph>
    <TTGlyph name="aacute" xMin="58" yMin="-20" xMax="1036" yMax="1536">
      <component glyphName=".ttfautohint" x="58" y="0" flags="0x0"/>
      <component glyphName="a" x="0" y="0" flags="0x0"/>
      <component glyphName="acutecomb" x="1076" y="0" flags="0x0"/>
    </TTGlyph>
    <TTGlyph name="acircumflex" xMin="58" yMin="-20" xMax="1036" yMax="1536">
      <component glyphName=".ttfautohint" x="58" y="0" flags="0x0"/>
      <component glyphName="a" x="0" y="0" flags="0x0"/>
      <component glyphName="circumflex" x="35" y="0" flags="0x0"/>
    </TTGlyph>
    <TTGlyph name="acute" xMin="96" yMin="1224" xMax="628" yMax="1536">
      <contour>
        <pt x="628" y="1536" on="1"/>
        <pt x="350" y="1224" on="1"/>
        <pt x="96" y="1224" on="1"/>
        <pt x="293" y="1536" on="1"/>
      </contour>
    </TTGlyph>
    <TTGlyph name="acutecomb" xMin="-686" yMin="1224" xMax="-155" yMax="1536">
      <contour>
        <pt x="-155" y="1536" on="1"/>
        <pt x="-433" y="1224" on="1"/>
        <pt x="-686" y="1224" on="1"/>
        <pt x="-490" y="1536" on="1"/>
      </contour>
    </TTGlyph>
    <TTGlyph name="adieresis" xMin="58" yMin="-20" xMax="1036" yMax="1496">
      <component glyphName=".ttfautohint" x="58" y="0" flags="0x0"/>
      <component glyphName="a" x="0" y="0" flags="0x0"/>
      <component glyphName="dieresis" x="53" y="0" flags="0x0"/>
    </TTGlyph>
    <TTGlyph name="ae" xMin="64" yMin="-20" xMax="1681" yMax="1103">
      <contour>
        <pt x="1681" y="440" on="1"/>
        <pt x="1027" y="440" on="1"/>
        <pt x="1039" y="343" on="0"/>
        <pt x="1164" y="232" on="0"/>
        <pt x="1280" y="232" on="1"/>
        <pt x="1373" y="232" on="0"/>
        <pt x="1499" y="267" on="0"/>
        <pt x="1571" y="302" on="1"/>
        <pt x="1650" y="101" on="1"/>
        <pt x="1588" y="51" on="0"/>
        <pt x="1368" y="-20" on="0"/>
        <pt x="1243" y="-20" on="1"/>
        <pt x="1120" y="-20" on="0"/>
        <pt x="926" y="53" on="0"/>
        <pt x="859" y="121" on="1"/>
        <pt x="799" y="59" on="0"/>
        <pt x="605" y="-20" on="0"/>
        <pt x="475" y="-20" on="1"/>
        <pt x="344" y="-20" on="0"/>
        <pt x="159" y="64" on="0"/>
        <pt x="64" y="218" on="0"/>
        <pt x="64" y="323" on="1"/>
        <pt x="64" y="482" on="0"/>
        <pt x="323" y="653" on="0"/>
        <pt x="571" y="653" on="1"/>
        <pt x="722" y="653" on="1"/>
        <pt x="722" y="703" on="1"/>
        <pt x="722" y="772" on="0"/>
        <pt x="646" y="850" on="0"/>
        <pt x="576" y="850" on="1"/>
        <pt x="500" y="850" on="0"/>
        <pt x="412" y="789" on="0"/>
        <pt x="412" y="742" on="1"/>
        <pt x="100" y="761" on="1"/>
        <pt x="100" y="860" on="0"/>
        <pt x="219" y="1015" on="0"/>
        <pt x="436" y="1102" on="0"/>
        <pt x="579" y="1102" on="1"/>
        <pt x="787" y="1102" on="0"/>
        <pt x="903" y="1002" on="1"/>
        <pt x="1031" y="1103" on="0"/>
        <pt x="1225" y="1102" on="1"/>
        <pt x="1366" y="1102" on="0"/>
        <pt x="1571" y="983" on="0"/>
        <pt x="1681" y="762" on="0"/>
        <pt x="1681" y="612" on="1"/>
      </contour>
      <contour>
        <pt x="1376" y="672" on="1"/>
        <pt x="1376" y="756" on="0"/>
        <pt x="1299" y="850" on="0"/>
        <pt x="1225" y="850" on="1"/>
        <pt x="1056" y="850" on="0"/>
        <pt x="1029" y="646" on="1"/>
        <pt x="1376" y="646" on="1"/>
      </contour>
      <contour>
        <pt x="376" y="266" on="0"/>
        <pt x="455" y="206" on="0"/>
        <pt x="534" y="206" on="1"/>
        <pt x="582" y="206" on="0"/>
        <pt x="686" y="246" on="0"/>
        <pt x="722" y="276" on="1"/>
        <pt x="722" y="454" on="1"/>
        <pt x="573" y="454" on="1"/>
        <pt x="511" y="454" on="0"/>
        <pt x="422" y="417" on="0"/>
        <pt x="376" y="355" on="0"/>
        <pt x="376" y="319" on="1"/>
      </contour>
    </TTGlyph>
    <TTGlyph name="agrave" xMin="58" yMin="-20" xMax="1036" yMax="1536">
      <component glyphName=".ttfautohint" x="58" y="0" flags="0x0"/>
      <component glyphName="a" x="0" y="0" flags="0x0"/>
      <component glyphName="gravecomb" x="1089" y="0" flags="0x0"/>
    </TTGlyph>
    <TTGlyph name="alpha" xMin="68" yMin="-21" xMax="1150" yMax="1102">
      <contour>
        <pt x="1150" y="1" on="1"/>
        <pt x="1119" y="-12" on="0"/>
        <pt x="1063" y="-21" on="0"/>
        <pt x="1025" y="-21" on="1"/>
        <pt x="833" y="-21" on="0"/>
        <pt x="760" y="148" on="1"/>
        <pt x="663" y="-20" on="0"/>
        <pt x="489" y="-20" on="1"/>
        <pt x="355" y="-20" on="0"/>
        <pt x="166" y="115" on="0"/>
        <pt x="68" y="358" on="0"/>
        <pt x="68" y="516" on="1"/>
        <pt x="68" y="537" on="1"/>
        <pt x="68" y="704" on="0"/>
        <pt x="166" y="959" on="0"/>
        <pt x="357" y="1102" on="0"/>
        <pt x="491" y="1102" on="1"/>
        <pt x="647" y="1102" on="0"/>
        <pt x="742" y="954" on="1"/>
        <pt x="764" y="1082" on="1"/>
        <pt x="1036" y="1082" on="1"/>
        <pt x="1036" y="364" on="1"/>
        <pt x="1036" y="293" on="0"/>
        <pt x="1071" y="234" on="0"/>
        <pt x="1106" y="234" on="1"/>
        <pt x="1119" y="234" on="0"/>
        <pt x="1125" y="237" on="1"/>
      </contour>
      <contour>
        <pt x="675" y="232" on="0"/>
        <pt x="724" y="309" on="1"/>
        <pt x="724" y="762" on="1"/>
        <pt x="674" y="850" on="0"/>
        <pt x="569" y="850" on="1"/>
        <pt x="471" y="850" on="0"/>
        <pt x="381" y="678" on="0"/>
        <pt x="381" y="537" on="1"/>
        <pt x="381" y="516" on="1"/>
        <pt x="381" y="382" on="0"/>
        <pt x="467" y="232" on="0"/>
        <pt x="567" y="232" on="1"/>
      </contour>
    </TTGlyph>
    <TTGlyph name="alpha.alt" xMin="68" yMin="-21" xMax="1116" yMax="1102">
      <contour>
        <pt x="845" y="0" on="1"/>
        <pt x="821" y="154" on="1"/>
        <pt x="712" y="-21" on="0"/>
        <pt x="507" y="-21" on="1"/>
        <pt x="368" y="-21" on="0"/>
        <pt x="170" y="115" on="0"/>
        <pt x="68" y="358" on="0"/>
        <pt x="68" y="516" on="1"/>
        <pt x="68" y="537" on="1"/>
        <pt x="68" y="704" on="0"/>
        <pt x="170" y="959" on="0"/>
        <pt x="369" y="1102" on="0"/>
        <pt x="509" y="1102" on="1"/>
        <pt x="707" y="1102" on="0"/>
        <pt x="816" y="925" on="1"/>
        <pt x="838" y="1082" on="1"/>
        <pt x="1109" y="1082" on="1"/>
        <pt x="1001" y="540" on="1"/>
        <pt x="1116" y="0" on="1"/>
      </contour>
      <contour>
        <pt x="760" y="561" on="1"/>
        <pt x="758" y="688" on="0"/>
        <pt x="665" y="850" on="0"/>
        <pt x="569" y="850" on="1"/>
        <pt x="471" y="850" on="0"/>
        <pt x="381" y="678" on="0"/>
        <pt x="381" y="537" on="1"/>
        <pt x="381" y="516" on="1"/>
        <pt x="381" y="382" on="0"/>
        <pt x="467" y="231" on="0"/>
        <pt x="567" y="231" on="1"/>
        <pt x="664" y="231" on="0"/>
        <pt x="758" y="376" on="0"/>
        <pt x="760" y="487" on="1"/>
      </contour>
    </TTGlyph>
    <TTGlyph name="ampersand" xMin="64" yMin="-21" xMax="1333" yMax="1477">
      <contour>
        <pt x="982" y="0" on="1"/>
        <pt x="911" y="81" on="1"/>
        <pt x="826" y="29" on="0"/>
        <pt x="647" y="-21" on="0"/>
        <pt x="540" y="-21" on="1"/>
        <pt x="396" y="-21" on="0"/>
        <pt x="180" y="84" on="0"/>
        <pt x="64" y="271" on="0"/>
        <pt x="64" y="391" on="1"/>
        <pt x="64" y="472" on="0"/>
        <pt x="127" y="600" on="0"/>
        <pt x="236" y="704" on="0"/>
        <pt x="324" y="766" on="1"/>
        <pt x="257" y="859" on="0"/>
        <pt x="191" y="1010" on="0"/>
        <pt x="191" y="1087" on="1"/>
        <pt x="191" y="1201" on="0"/>
        <pt x="291" y="1378" on="0"/>
        <pt x="474" y="1477" on="0"/>
        <pt x="595" y="1477" on="1"/>
        <pt x="706" y="1477" on="0"/>
        <pt x="877" y="1383" on="0"/>
        <pt x="971" y="1224" on="0"/>
        <pt x="971" y="1130" on="1"/>
        <pt x="971" y="1034" on="0"/>
        <pt x="867" y="872" on="0"/>
        <pt x="777" y="808" on="1"/>
        <pt x="688" y="745" on="1"/>
        <pt x="923" y="473" on="1"/>
        <pt x="982" y="588" on="0"/>
        <pt x="982" y="724" on="1"/>
        <pt x="1246" y="724" on="1"/>
        <pt x="1246" y="432" on="0"/>
        <pt x="1113" y="254" on="1"/>
        <pt x="1333" y="0" on="1"/>
      </contour>
      <contour>
        <pt x="533" y="1225" on="0"/>
        <pt x="466" y="1149" on="0"/>
        <pt x="466" y="1091" on="1"/>
        <pt x="466" y="1051" on="0"/>
        <pt x="507" y="965" on="0"/>
        <pt x="548" y="912" on="1"/>
        <pt x="619" y="958" on="1"/>
        <pt x="676" y="995" on="0"/>
        <pt x="717" y="1066" on="0"/>
        <pt x="717" y="1108" on="1"/>
        <pt x="717" y="1137" on="0"/>
        <pt x="687" y="1191" on="0"/>
        <pt x="631" y="1225" on="0"/>
        <pt x="594" y="1225" on="1"/>
      </contour>
      <contour>
        <pt x="650" y="231" on="0"/>
        <pt x="738" y="278" on="1"/>
        <pt x="467" y="588" on="1"/>
        <pt x="451" y="577" on="1"/>
        <pt x="409" y="538" on="0"/>
        <pt x="377" y="459" on="0"/>
        <pt x="377" y="412" on="1"/>
        <pt x="377" y="359" on="0"/>
        <pt x="424" y="277" on="0"/>
        <pt x="507" y="231" on="0"/>
        <pt x="559" y="231" on="1"/>
      </contour>
    </TTGlyph>
    <TTGlyph name="ampersand.smcp" xMin="83" yMin="-21" xMax="1265" yMax="1181">
      <contour>
        <pt x="929" y="0" on="1"/>
        <pt x="878" y="51" on="1"/>
        <pt x="802" y="15" on="0"/>
        <pt x="631" y="-21" on="0"/>
        <pt x="542" y="-21" on="1"/>
        <pt x="403" y="-21" on="0"/>
        <pt x="195" y="61" on="0"/>
        <pt x="83" y="206" on="0"/>
        <pt x="83" y="299" on="1"/>
        <pt x="83" y="393" on="0"/>
        <pt x="188" y="527" on="0"/>
        <pt x="297" y="594" on="1"/>
        <pt x="317" y="606" on="1"/>
        <pt x="246" y="680" on="0"/>
        <pt x="179" y="807" on="0"/>
        <pt x="179" y="890" on="1"/>
        <pt x="179" y="966" on="0"/>
        <pt x="265" y="1099" on="0"/>
        <pt x="430" y="1181" on="0"/>
        <pt x="542" y="1181" on="1"/>
        <pt x="656" y="1181" on="0"/>
        <pt x="827" y="1106" on="0"/>
        <pt x="919" y="965" on="0"/>
        <pt x="919" y="870" on="1"/>
        <pt x="919" y="791" on="0"/>
        <pt x="821" y="656" on="0"/>
        <pt x="736" y="602" on="1"/>
        <pt x="685" y="570" on="1"/>
        <pt x="880" y="378" on="1"/>
        <pt x="929" y="455" on="0"/>
        <pt x="929" y="557" on="1"/>
        <pt x="1193" y="557" on="1"/>
        <pt x="1193" y="338" on="0"/>
        <pt x="1067" y="195" on="1"/>
        <pt x="1265" y="0" on="1"/>
      </contour>
      <contour>
        <pt x="442" y="828" on="0"/>
        <pt x="480" y="773" on="0"/>
        <pt x="520" y="732" on="1"/>
        <pt x="556" y="754" on="1"/>
        <pt x="615" y="791" on="0"/>
        <pt x="652" y="839" on="0"/>
        <pt x="652" y="870" on="1"/>
        <pt x="652" y="900" on="0"/>
        <pt x="594" y="947" on="0"/>
        <pt x="547" y="947" on="1"/>
        <pt x="497" y="947" on="0"/>
        <pt x="442" y="896" on="0"/>
        <pt x="442" y="856" on="1"/>
      </contour>
      <contour>
        <pt x="615" y="229" on="0"/>
        <pt x="681" y="245" on="1"/>
        <pt x="482" y="442" on="1"/>
        <pt x="463" y="430" on="1"/>
        <pt x="395" y="387" on="0"/>
        <pt x="395" y="332" on="1"/>
        <pt x="395" y="283" on="0"/>
        <pt x="474" y="229" on="0"/>
        <pt x="544" y="229" on="1"/>
      </contour>
    </TTGlyph>
    <TTGlyph name="aring" xMin="58" yMin="-20" xMax="1036" yMax="1623">
      <component glyphName=".ttfautohint" x="58" y="0" flags="0x0"/>
      <component glyphName="a" x="0" y="0" flags="0x0"/>
      <component glyphName="ring" x="203" y="116" flags="0x4"/>
    </TTGlyph>
    <TTGlyph name="asciicircum" xMin="41" yMin="729" xMax="867" yMax="1456">
      <contour>
        <pt x="627" y="729" on="1"/>
        <pt x="454" y="1182" on="1"/>
        <pt x="282" y="729" on="1"/>
        <pt x="41" y="729" on="1"/>
        <pt x="340" y="1456" on="1"/>
        <pt x="568" y="1456" on="1"/>
        <pt x="867" y="729" on="1"/>
      </contour>
    </TTGlyph>
    <TTGlyph name="asciitilde" xMin="101" yMin="370" xMax="1210" yMax="833">
      <contour>
        <pt x="1210" y="667" on="0"/>
        <pt x="1125" y="474" on="0"/>
        <pt x="974" y="370" on="0"/>
        <pt x="876" y="370" on="1"/>
        <pt x="798" y="370" on="0"/>
        <pt x="674" y="430" on="0"/>
        <pt x="602" y="500" on="1"/>
        <pt x="559" y="542" on="0"/>
        <pt x="489" y="581" on="0"/>
        <pt x="451" y="581" on="1"/>
        <pt x="396" y="581" on="0"/>
        <pt x="327" y="482" on="0"/>
        <pt x="327" y="408" on="1"/>
        <pt x="101" y="411" on="1"/>
        <pt x="101" y="542" on="0"/>
        <pt x="184" y="733" on="0"/>
        <pt x="334" y="833" on="0"/>
        <pt x="432" y="833" on="1"/>
        <pt x="510" y="833" on="0"/>
        <pt x="642" y="770" on="0"/>
        <pt x="709" y="704" on="1"/>
        <pt x="751" y="663" on="0"/>
        <pt x="822" y="623" on="0"/>
        <pt x="858" y="623" on="1"/>
        <pt x="894" y="623" on="0"/>
        <pt x="952" y="669" on="0"/>
        <pt x="984" y="749" on="0"/>
        <pt x="984" y="798" on="1"/>
        <pt x="1210" y="797" on="1"/>
      </contour>
    </TTGlyph>
    <TTGlyph name="asterisk" xMin="27" yMin="565" xMax="931" yMax="1456">
      <contour>
        <pt x="27" y="1048" on="1"/>
        <pt x="89" y="1234" on="1"/>
        <pt x="403" y="1105" on="1"/>
        <pt x="381" y="1456" on="1"/>
        <pt x="586" y="1456" on="1"/>
        <pt x="563" y="1098" on="1"/>
        <pt x="869" y="1225" on="1"/>
        <pt x="931" y="1036" on="1"/>
        <pt x="606" y="946" on="1"/>
        <pt x="820" y="681" on="1"/>
        <pt x="655" y="565" on="1"/>
        <pt x="473" y="858" on="1"/>
        <pt x="290" y="575" on="1"/>
        <pt x="125" y="686" on="1"/>
        <pt x="347" y="958" on="1"/>
      </contour>
    </TTGlyph>
    <TTGlyph name="at" xMin="75" yMin="-453" xMax="1751" yMax="1412">
      <contour>
        <pt x="1212" y="1412" on="0"/>
        <pt x="1567" y="1211" on="0"/>
        <pt x="1751" y="845" on="0"/>
        <pt x="1751" y="601" on="1"/>
        <pt x="1751" y="565" on="0"/>
        <pt x="1750" y="546" on="1"/>
        <pt x="1745" y="396" on="0"/>
        <pt x="1649" y="139" on="0"/>
        <pt x="1453" y="-21" on="0"/>
        <pt x="1307" y="-21" on="1"/>
        <pt x="1224" y="-21" on="0"/>
        <pt x="1098" y="52" on="0"/>
        <pt x="1065" y="119" on="1"/>
        <pt x="1016" y="52" on="0"/>
        <pt x="882" y="-17" on="0"/>
        <pt x="802" y="-17" on="1"/>
        <pt x="714" y="-17" on="0"/>
        <pt x="581" y="76" on="0"/>
        <pt x="509" y="248" on="0"/>
        <pt x="509" y="363" on="1"/>
        <pt x="509" y="397" on="0"/>
        <pt x="512" y="434" on="1"/>
        <pt x="531" y="601" on="0"/>
        <pt x="663" y="853" on="0"/>
        <pt x="865" y="990" on="0"/>
        <pt x="985" y="990" on="1"/>
        <pt x="1058" y="990" on="0"/>
        <pt x="1167" y="961" on="0"/>
        <pt x="1241" y="919" on="0"/>
        <pt x="1297" y="880" on="1"/>
        <pt x="1246" y="296" on="1"/>
        <pt x="1244" y="272" on="0"/>
        <pt x="1244" y="263" on="1"/>
        <pt x="1244" y="201" on="0"/>
        <pt x="1303" y="150" on="0"/>
        <pt x="1347" y="150" on="1"/>
        <pt x="1407" y="150" on="0"/>
        <pt x="1502" y="251" on="0"/>
        <pt x="1558" y="428" on="0"/>
        <pt x="1561" y="537" on="1"/>
        <pt x="1563" y="579" on="0"/>
        <pt x="1563" y="599" on="1"/>
        <pt x="1563" y="796" on="0"/>
        <pt x="1431" y="1085" on="0"/>
        <pt x="1161" y="1243" on="0"/>
        <pt x="960" y="1243" on="1"/>
        <pt x="761" y="1243" on="0"/>
        <pt x="463" y="1040" on="0"/>
        <pt x="295" y="685" on="0"/>
        <pt x="284" y="460" on="1"/>
        <pt x="283" y="438" on="0"/>
        <pt x="283" y="397" on="1"/>
        <pt x="283" y="70" on="0"/>
        <pt x="600" y="-268" on="0"/>
        <pt x="895" y="-268" on="1"/>
        <pt x="979" y="-268" on="0"/>
        <pt x="1161" y="-231" on="0"/>
        <pt x="1226" y="-202" on="1"/>
        <pt x="1264" y="-364" on="1"/>
        <pt x="1198" y="-407" on="0"/>
        <pt x="990" y="-453" on="0"/>
        <pt x="891" y="-453" on="1"/>
        <pt x="632" y="-453" on="0"/>
        <pt x="267" y="-259" on="0"/>
        <pt x="75" y="123" on="0"/>
        <pt x="75" y="400" on="1"/>
        <pt x="75" y="440" on="0"/>
        <pt x="76" y="460" on="1"/>
        <pt x="88" y="734" on="0"/>
        <pt x="312" y="1167" on="0"/>
        <pt x="706" y="1412" on="0"/>
        <pt x="964" y="1412" on="1"/>
      </contour>
      <contour>
        <pt x="918" y="170" on="0"/>
        <pt x="1006" y="244" on="0"/>
        <pt x="1036" y="335" on="1"/>
        <pt x="1076" y="794" on="1"/>
        <pt x="1041" y="804" on="0"/>
        <pt x="1004" y="804" on="1"/>
        <pt x="890" y="804" on="0"/>
        <pt x="766" y="618" on="0"/>
        <pt x="747" y="434" on="1"/>
        <pt x="744" y="403" on="0"/>
        <pt x="744" y="376" on="1"/>
        <pt x="744" y="275" on="0"/>
        <pt x="811" y="170" on="0"/>
        <pt x="875" y="170" on="1"/>
      </contour>
    </TTGlyph>
    <TTGlyph name="atilde" xMin="58" yMin="-20" xMax="1036" yMax="1537">
      <component glyphName=".ttfautohint" x="58" y="0" flags="0x0"/>
      <component glyphName="a" x="0" y="0" flags="0x0"/>
      <component glyphName="tilde" x="47" y="-4" flags="0x4"/>
    </TTGlyph>
    <TTGlyph name="b" xMin="105" yMin="-20" xMax="1092" yMax="1536">
      <contour>
        <pt x="810" y="1102" on="0"/>
        <pt x="999" y="963" on="0"/>
        <pt x="1092" y="716" on="0"/>
        <pt x="1092" y="553" on="1"/>
        <pt x="1092" y="532" on="1"/>
        <pt x="1092" y="366" on="0"/>
        <pt x="999" y="118" on="0"/>
        <pt x="811" y="-20" on="0"/>
        <pt x="672" y="-20" on="1"/>
        <pt x="501" y="-20" on="0"/>
        <pt x="399" y="115" on="1"/>
        <pt x="385" y="0" on="1"/>
        <pt x="105" y="0" on="1"/>
        <pt x="105" y="1536" on="1"/>
        <pt x="417" y="1536" on="1"/>
        <pt x="417" y="990" on="1"/>
        <pt x="516" y="1102" on="0"/>
        <pt x="670" y="1102" on="1"/>
      </contour>
      <contour>
        <pt x="781" y="553" on="1"/>
        <pt x="781" y="690" on="0"/>
        <pt x="698" y="850" on="0"/>
        <pt x="592" y="850" on="1"/>
        <pt x="466" y="850" on="0"/>
        <pt x="417" y="751" on="1"/>
        <pt x="417" y="330" on="1"/>
        <pt x="441" y="281" on="0"/>
        <pt x="527" y="231" on="0"/>
        <pt x="594" y="231" on="1"/>
        <pt x="702" y="231" on="0"/>
        <pt x="781" y="384" on="0"/>
        <pt x="781" y="532" on="1"/>
      </contour>
    </TTGlyph>
    <TTGlyph name="b.ss06" xMin="105" yMin="-20" xMax="1112" yMax="1536">
      <contour>
        <pt x="811" y="1102" on="0"/>
        <pt x="1010" y="965" on="0"/>
        <pt x="1112" y="716" on="0"/>
        <pt x="1112" y="550" on="1"/>
        <pt x="1112" y="529" on="1"/>
        <pt x="1112" y="370" on="0"/>
        <pt x="1010" y="121" on="0"/>
        <pt x="811" y="-20" on="0"/>
        <pt x="672" y="-20" on="1"/>
        <pt x="499" y="-20" on="0"/>
        <pt x="394" y="121" on="1"/>
        <pt x="375" y="0" on="1"/>
        <pt x="105" y="0" on="1"/>
        <pt x="105" y="1536" on="1"/>
        <pt x="417" y="1536" on="1"/>
        <pt x="417" y="990" on="1"/>
        <pt x="515" y="1102" on="0"/>
        <pt x="670" y="1102" on="1"/>
      </contour>
      <contour>
        <pt x="801" y="550" on="1"/>
        <pt x="801" y="688" on="0"/>
        <pt x="701" y="850" on="0"/>
        <pt x="592" y="850" on="1"/>
        <pt x="469" y="850" on="0"/>
        <pt x="417" y="762" on="1"/>
        <pt x="417" y="320" on="1"/>
        <pt x="471" y="231" on="0"/>
        <pt x="594" y="231" on="1"/>
        <pt x="703" y="231" on="0"/>
        <pt x="801" y="393" on="0"/>
        <pt x="801" y="529" on="1"/>
      </contour>
    </TTGlyph>
    <TTGlyph name="backslash" xMin="-10" yMin="-125" xMax="920" yMax="1456">
      <contour>
        <pt x="312" y="1456" on="1"/>
        <pt x="920" y="-125" on="1"/>
        <pt x="598" y="-125" on="1"/>
        <pt x="-10" y="1456" on="1"/>
      </contour>
    </TTGlyph>
    <TTGlyph name="bar" xMin="173" yMin="-270" xMax="352" yMax="1456">
      <contour>
        <pt x="173" y="-270" on="1"/>
        <pt x="173" y="1456" on="1"/>
        <pt x="352" y="1456" on="1"/>
        <pt x="352" y="-270" on="1"/>
      </contour>
    </TTGlyph>
    <TTGlyph name="braceleft" xMin="45" yMin="-360" xMax="634" yMax="1597">
      <contour>
        <pt x="490" y="-7" on="0"/>
        <pt x="555" y="-158" on="0"/>
        <pt x="634" y="-188" on="1"/>
        <pt x="575" y="-360" on="1"/>
        <pt x="381" y="-306" on="0"/>
        <pt x="215" y="-65" on="0"/>
        <pt x="215" y="106" on="1"/>
        <pt x="215" y="309" on="1"/>
        <pt x="215" y="404" on="0"/>
        <pt x="132" y="508" on="0"/>
        <pt x="45" y="508" on="1"/>
        <pt x="45" y="729" on="1"/>
        <pt x="132" y="729" on="0"/>
        <pt x="215" y="834" on="0"/>
        <pt x="215" y="929" on="1"/>
        <pt x="215" y="1132" on="1"/>
        <pt x="215" y="1303" on="0"/>
        <pt x="381" y="1543" on="0"/>
        <pt x="575" y="1597" on="1"/>
        <pt x="634" y="1426" on="1"/>
        <pt x="555" y="1396" on="0"/>
        <pt x="490" y="1245" on="0"/>
        <pt x="490" y="1132" on="1"/>
        <pt x="490" y="929" on="1"/>
        <pt x="490" y="826" on="0"/>
        <pt x="400" y="665" on="0"/>
        <pt x="309" y="619" on="1"/>
        <pt x="400" y="573" on="0"/>
        <pt x="490" y="412" on="0"/>
        <pt x="490" y="309" on="1"/>
        <pt x="490" y="106" on="1"/>
      </contour>
    </TTGlyph>
    <TTGlyph name="braceright" xMin="38" yMin="-360" xMax="627" yMax="1597">
      <contour>
        <pt x="457" y="834" on="0"/>
        <pt x="540" y="729" on="0"/>
        <pt x="627" y="729" on="1"/>
        <pt x="627" y="508" on="1"/>
        <pt x="540" y="508" on="0"/>
        <pt x="457" y="404" on="0"/>
        <pt x="457" y="309" on="1"/>
        <pt x="457" y="106" on="1"/>
        <pt x="457" y="-65" on="0"/>
        <pt x="291" y="-306" on="0"/>
        <pt x="97" y="-360" on="1"/>
        <pt x="38" y="-188" on="1"/>
        <pt x="117" y="-158" on="0"/>
        <pt x="182" y="-7" on="0"/>
        <pt x="182" y="106" on="1"/>
        <pt x="182" y="309" on="1"/>
        <pt x="182" y="413" on="0"/>
        <pt x="273" y="574" on="0"/>
        <pt x="366" y="619" on="1"/>
        <pt x="273" y="664" on="0"/>
        <pt x="182" y="825" on="0"/>
        <pt x="182" y="929" on="1"/>
        <pt x="182" y="1132" on="1"/>
        <pt x="182" y="1245" on="0"/>
        <pt x="117" y="1396" on="0"/>
        <pt x="38" y="1426" on="1"/>
        <pt x="97" y="1597" on="1"/>
        <pt x="291" y="1543" on="0"/>
        <pt x="457" y="1303" on="0"/>
        <pt x="457" y="1132" on="1"/>
        <pt x="457" y="929" on="1"/>
      </contour>
    </TTGlyph>
    <TTGlyph name="bracketleft" xMin="115" yMin="-346" xMax="558" yMax="1703">
      <contour>
        <pt x="427" y="1464" on="1"/>
        <pt x="427" y="-108" on="1"/>
        <pt x="558" y="-108" on="1"/>
        <pt x="558" y="-346" on="1"/>
        <pt x="115" y="-346" on="1"/>
        <pt x="115" y="1703" on="1"/>
        <pt x="558" y="1703" on="1"/>
        <pt x="558" y="1464" on="1"/>
      </contour>
    </TTGlyph>
    <TTGlyph name="bracketright" xMin="14" yMin="-346" xMax="458" yMax="1703">
      <contour>
        <pt x="458" y="1703" on="1"/>
        <pt x="458" y="-346" on="1"/>
        <pt x="14" y="-346" on="1"/>
        <pt x="14" y="-108" on="1"/>
        <pt x="146" y="-108" on="1"/>
        <pt x="146" y="1464" on="1"/>
        <pt x="14" y="1464" on="1"/>
        <pt x="14" y="1703" on="1"/>
      </contour>
    </TTGlyph>
    <TTGlyph name="brokenbar" xMin="124" yMin="-270" xMax="399" yMax="1456">
      <contour>
        <pt x="124" y="698" on="1"/>
        <pt x="124" y="1456" on="1"/>
        <pt x="399" y="1456" on="1"/>
        <pt x="399" y="698" on="1"/>
      </contour>
      <contour>
        <pt x="124" y="525" on="1"/>
        <pt x="399" y="525" on="1"/>
        <pt x="399" y="-270" on="1"/>
        <pt x="124" y="-270" on="1"/>
      </contour>
    </TTGlyph>
    <TTGlyph name="bullet" xMin="135" yMin="492" xMax="625" yMax="1002">
      <contour>
        <pt x="135" y="833" on="0"/>
        <pt x="195" y="941" on="0"/>
        <pt x="306" y="1002" on="0"/>
        <pt x="379" y="1002" on="1"/>
        <pt x="455" y="1002" on="0"/>
        <pt x="566" y="941" on="0"/>
        <pt x="625" y="834" on="0"/>
        <pt x="625" y="764" on="1"/>
        <pt x="625" y="727" on="1"/>
        <pt x="625" y="658" on="0"/>
        <pt x="566" y="551" on="0"/>
        <pt x="456" y="492" on="0"/>
        <pt x="381" y="492" on="1"/>
        <pt x="307" y="492" on="0"/>
        <pt x="196" y="552" on="0"/>
        <pt x="135" y="658" on="0"/>
        <pt x="135" y="727" on="1"/>
        <pt x="135" y="764" on="1"/>
      </contour>
    </TTGlyph>
    <TTGlyph name="c" xMin="60" yMin="-20" xMax="1016" yMax="1102">
      <contour>
        <pt x="1016" y="382" on="1"/>
        <pt x="1016" y="265" on="0"/>
        <pt x="896" y="82" on="0"/>
        <pt x="690" y="-20" on="0"/>
        <pt x="563" y="-20" on="1"/>
        <pt x="400" y="-20" on="0"/>
        <pt x="173" y="122" on="0"/>
        <pt x="60" y="369" on="0"/>
        <pt x="60" y="528" on="1"/>
        <pt x="60" y="553" on="1"/>
        <pt x="60" y="712" on="0"/>
        <pt x="173" y="960" on="0"/>
        <pt x="399" y="1102" on="0"/>
        <pt x="562" y="1102" on="1"/>
        <pt x="696" y="1102" on="0"/>
        <pt x="901" y="999" on="0"/>
        <pt x="1016" y="804" on="0"/>
        <pt x="1016" y="671" on="1"/>
        <pt x="723" y="671" on="1"/>
        <pt x="722" y="750" on="0"/>
        <pt x="635" y="850" on="0"/>
        <pt x="555" y="850" on="1"/>
        <pt x="449" y="850" on="0"/>
        <pt x="372" y="691" on="0"/>
        <pt x="372" y="553" on="1"/>
        <pt x="372" y="528" on="1"/>
        <pt x="372" y="387" on="0"/>
        <pt x="449" y="232" on="0"/>
        <pt x="557" y="232" on="1"/>
        <pt x="632" y="232" on="0"/>
        <pt x="722" y="313" on="0"/>
        <pt x="723" y="382" on="1"/>
      </contour>
    </TTGlyph>
    <TTGlyph name="c.ss06" xMin="63" yMin="-20" xMax="1046" yMax="1102">
      <contour>
        <pt x="1046" y="382" on="1"/>
        <pt x="1043" y="265" on="0"/>
        <pt x="919" y="82" on="0"/>
        <pt x="711" y="-20" on="0"/>
        <pt x="584" y="-20" on="1"/>
        <pt x="420" y="-20" on="0"/>
        <pt x="185" y="122" on="0"/>
        <pt x="63" y="371" on="0"/>
        <pt x="63" y="528" on="1"/>
        <pt x="63" y="553" on="1"/>
        <pt x="63" y="710" on="0"/>
        <pt x="185" y="959" on="0"/>
        <pt x="420" y="1102" on="0"/>
        <pt x="583" y="1102" on="1"/>
        <pt x="717" y="1102" on="0"/>
        <pt x="924" y="999" on="0"/>
        <pt x="1043" y="804" on="0"/>
        <pt x="1046" y="671" on="1"/>
        <pt x="753" y="671" on="1"/>
        <pt x="751" y="749" on="0"/>
        <pt x="657" y="850" on="0"/>
        <pt x="576" y="850" on="1"/>
        <pt x="469" y="850" on="0"/>
        <pt x="375" y="686" on="0"/>
        <pt x="375" y="553" on="1"/>
        <pt x="375" y="528" on="1"/>
        <pt x="375" y="232" on="0"/>
        <pt x="578" y="232" on="1"/>
        <pt x="655" y="232" on="0"/>
        <pt x="751" y="313" on="0"/>
        <pt x="753" y="382" on="1"/>
      </contour>
    </TTGlyph>
    <TTGlyph name="ccedilla" xMin="60" yMin="-470" xMax="1016" yMax="1102">
      <component glyphName=".ttfautohint" x="60" y="0" flags="0x0"/>
      <component glyphName="c" x="0" y="0" flags="0x0"/>
      <component glyphName="cedilla" x="322" y="-1" flags="0x4"/>
    </TTGlyph>
    <TTGlyph name="cedilla" xMin="93" yMin="-469" xMax="498" yMax="9">
      <contour>
        <pt x="348" y="-51" on="1"/>
        <pt x="412" y="-62" on="0"/>
        <pt x="498" y="-145" on="0"/>
        <pt x="498" y="-224" on="1"/>
        <pt x="498" y="-298" on="0"/>
        <pt x="415" y="-408" on="0"/>
        <pt x="253" y="-469" on="0"/>
        <pt x="137" y="-469" on="1"/>
        <pt x="130" y="-289" on="1"/>
        <pt x="177" y="-289" on="0"/>
        <pt x="231" y="-251" on="0"/>
        <pt x="231" y="-211" on="1"/>
        <pt x="231" y="-172" on="0"/>
        <pt x="169" y="-141" on="0"/>
        <pt x="93" y="-136" on="1"/>
        <pt x="124" y="9" on="1"/>
        <pt x="359" y="9" on="1"/>
      </contour>
    </TTGlyph>
    <TTGlyph name="cent" xMin="99" yMin="-245" xMax="1055" yMax="1318">
      <contour>
        <pt x="671" y="232" on="0"/>
        <pt x="761" y="313" on="0"/>
        <pt x="762" y="382" on="1"/>
        <pt x="1055" y="382" on="1"/>
        <pt x="1055" y="281" on="0"/>
        <pt x="965" y="116" on="0"/>
        <pt x="807" y="8" on="0"/>
        <pt x="705" y="-11" on="1"/>
        <pt x="705" y="-245" on="1"/>
        <pt x="505" y="-245" on="1"/>
        <pt x="505" y="-13" on="1"/>
        <pt x="373" y="7" on="0"/>
        <pt x="190" y="157" on="0"/>
        <pt x="99" y="386" on="0"/>
        <pt x="99" y="528" on="1"/>
        <pt x="99" y="553" on="1"/>
        <pt x="99" y="695" on="0"/>
        <pt x="190" y="925" on="0"/>
        <pt x="373" y="1075" on="0"/>
        <pt x="505" y="1095" on="1"/>
        <pt x="505" y="1318" on="1"/>
        <pt x="705" y="1318" on="1"/>
        <pt x="705" y="1093" on="1"/>
        <pt x="811" y="1075" on="0"/>
        <pt x="968" y="964" on="0"/>
        <pt x="1055" y="786" on="0"/>
        <pt x="1055" y="671" on="1"/>
        <pt x="762" y="671" on="1"/>
        <pt x="761" y="750" on="0"/>
        <pt x="674" y="850" on="0"/>
        <pt x="594" y="850" on="1"/>
        <pt x="488" y="850" on="0"/>
        <pt x="411" y="691" on="0"/>
        <pt x="411" y="553" on="1"/>
        <pt x="411" y="528" on="1"/>
        <pt x="411" y="387" on="0"/>
        <pt x="488" y="232" on="0"/>
        <pt x="596" y="232" on="1"/>
      </contour>
    </TTGlyph>
    <TTGlyph name="circumflex" xMin="112" yMin="1243" xMax="913" yMax="1536">
      <contour>
        <pt x="913" y="1243" on="1"/>
        <pt x="666" y="1243" on="1"/>
        <pt x="509" y="1381" on="1"/>
        <pt x="353" y="1243" on="1"/>
        <pt x="112" y="1243" on="1"/>
        <pt x="112" y="1259" on="1"/>
        <pt x="420" y="1536" on="1"/>
        <pt x="600" y="1536" on="1"/>
        <pt x="913" y="1256" on="1"/>
      </contour>
    </TTGlyph>
    <TTGlyph name="colon" xMin="121" yMin="-11" xMax="469" yMax="1123">
      <component glyphName=".ttfautohint" x="121" y="0" flags="0x0"/>
      <component glyphName="period" x="-1" y="0" flags="0x0"/>
      <component glyphName="period" x="-1" y="805" flags="0x4"/>
    </TTGlyph>
    <TTGlyph name="comma" xMin="39" yMin="-384" xMax="401" yMax="252">
      <contour>
        <pt x="400" y="-74" on="0"/>
        <pt x="287" y="-307" on="0"/>
        <pt x="199" y="-384" on="1"/>
        <pt x="39" y="-304" on="1"/>
        <pt x="61" y="-263" on="1"/>
        <pt x="88" y="-211" on="0"/>
        <pt x="122" y="-136" on="0"/>
        <pt x="145" y="-36" on="0"/>
        <pt x="145" y="25" on="1"/>
        <pt x="145" y="252" on="1"/>
        <pt x="401" y="252" on="1"/>
        <pt x="400" y="43" on="1"/>
      </contour>
    </TTGlyph>
    <TTGlyph name="copyright" xMin="86" yMin="-20" xMax="1506" yMax="1476">
      <contour>
        <pt x="989" y="1476" on="0"/>
        <pt x="1315" y="1279" on="0"/>
        <pt x="1506" y="936" on="0"/>
        <pt x="1506" y="729" on="1"/>
        <pt x="1506" y="521" on="0"/>
        <pt x="1315" y="178" on="0"/>
        <pt x="989" y="-20" on="0"/>
        <pt x="796" y="-20" on="1"/>
        <pt x="602" y="-20" on="0"/>
        <pt x="277" y="178" on="0"/>
        <pt x="86" y="521" on="0"/>
        <pt x="86" y="729" on="1"/>
        <pt x="86" y="937" on="0"/>
        <pt x="277" y="1279" on="0"/>
        <pt x="602" y="1476" on="0"/>
        <pt x="796" y="1476" on="1"/>
      </contour>
      <contour>
        <pt x="956" y="105" on="0"/>
        <pt x="1225" y="270" on="0"/>
        <pt x="1383" y="556" on="0"/>
        <pt x="1383" y="729" on="1"/>
        <pt x="1383" y="902" on="0"/>
        <pt x="1225" y="1187" on="0"/>
        <pt x="956" y="1351" on="0"/>
        <pt x="796" y="1351" on="1"/>
        <pt x="635" y="1351" on="0"/>
        <pt x="366" y="1187" on="0"/>
        <pt x="208" y="902" on="0"/>
        <pt x="208" y="729" on="1"/>
        <pt x="208" y="556" on="0"/>
        <pt x="366" y="270" on="0"/>
        <pt x="636" y="105" on="0"/>
        <pt x="796" y="105" on="1"/>
      </contour>
      <contour>
        <pt x="1117" y="442" on="0"/>
        <pt x="940" y="282" on="0"/>
        <pt x="782" y="282" on="1"/>
        <pt x="676" y="282" on="0"/>
        <pt x="518" y="379" on="0"/>
        <pt x="433" y="554" on="0"/>
        <pt x="433" y="669" on="1"/>
        <pt x="433" y="788" on="1"/>
        <pt x="433" y="902" on="0"/>
        <pt x="518" y="1078" on="0"/>
        <pt x="676" y="1175" on="0"/>
        <pt x="782" y="1175" on="1"/>
        <pt x="940" y="1175" on="0"/>
        <pt x="1118" y="1015" on="0"/>
        <pt x="1118" y="861" on="1"/>
        <pt x="962" y="861" on="1"/>
        <pt x="962" y="955" on="0"/>
        <pt x="873" y="1040" on="0"/>
        <pt x="782" y="1040" on="1"/>
        <pt x="689" y="1040" on="0"/>
        <pt x="588" y="903" on="0"/>
        <pt x="588" y="789" on="1"/>
        <pt x="588" y="669" on="1"/>
        <pt x="588" y="554" on="0"/>
        <pt x="688" y="417" on="0"/>
        <pt x="782" y="417" on="1"/>
        <pt x="873" y="417" on="0"/>
        <pt x="961" y="501" on="0"/>
        <pt x="961" y="596" on="1"/>
        <pt x="1117" y="596" on="1"/>
      </contour>
    </TTGlyph>
    <TTGlyph name="crossbar" xMin="140" yMin="651" xMax="854" yMax="839">
      <contour>
        <pt x="140" y="651" on="1"/>
        <pt x="140" y="839" on="1"/>
        <pt x="854" y="839" on="1"/>
        <pt x="854" y="651" on="1"/>
      </contour>
    </TTGlyph>
    <TTGlyph name="currency" xMin="76" yMin="-27" xMax="1342" yMax="1265">
      <contour>
        <pt x="1301" y="512" on="0"/>
        <pt x="1250" y="335" on="0"/>
        <pt x="1203" y="259" on="1"/>
        <pt x="1342" y="118" on="1"/>
        <pt x="1200" y="-27" on="1"/>
        <pt x="1069" y="108" on="1"/>
        <pt x="992" y="46" on="0"/>
        <pt x="808" y="-20" on="0"/>
        <pt x="707" y="-20" on="1"/>
        <pt x="606" y="-20" on="0"/>
        <pt x="422" y="45" on="0"/>
        <pt x="346" y="106" on="1"/>
        <pt x="217" y="-26" on="1"/>
        <pt x="76" y="118" on="1"/>
        <pt x="212" y="256" on="1"/>
        <pt x="163" y="331" on="0"/>
        <pt x="111" y="510" on="0"/>
        <pt x="111" y="608" on="1"/>
        <pt x="111" y="710" on="0"/>
        <pt x="167" y="895" on="0"/>
        <pt x="220" y="973" on="1"/>
        <pt x="76" y="1120" on="1"/>
        <pt x="217" y="1264" on="1"/>
        <pt x="359" y="1119" on="1"/>
        <pt x="434" y="1175" on="0"/>
        <pt x="611" y="1234" on="0"/>
        <pt x="707" y="1234" on="1"/>
        <pt x="803" y="1234" on="0"/>
        <pt x="981" y="1173" on="0"/>
        <pt x="1056" y="1117" on="1"/>
        <pt x="1200" y="1265" on="1"/>
        <pt x="1342" y="1120" on="1"/>
        <pt x="1195" y="970" on="1"/>
        <pt x="1246" y="893" on="0"/>
        <pt x="1301" y="709" on="0"/>
        <pt x="1301" y="608" on="1"/>
      </contour>
      <contour>
        <pt x="819" y="172" on="0"/>
        <pt x="1006" y="287" on="0"/>
        <pt x="1116" y="487" on="0"/>
        <pt x="1116" y="608" on="1"/>
        <pt x="1116" y="729" on="0"/>
        <pt x="1006" y="928" on="0"/>
        <pt x="819" y="1043" on="0"/>
        <pt x="707" y="1043" on="1"/>
        <pt x="594" y="1043" on="0"/>
        <pt x="406" y="928" on="0"/>
        <pt x="297" y="729" on="0"/>
        <pt x="297" y="608" on="1"/>
        <pt x="297" y="487" on="0"/>
        <pt x="407" y="287" on="0"/>
        <pt x="595" y="172" on="0"/>
        <pt x="707" y="172" on="1"/>
      </contour>
    </TTGlyph>
    <TTGlyph name="d" xMin="60" yMin="-20" xMax="1048" yMax="1536">
      <contour>
        <pt x="1048" y="1536" on="1"/>
        <pt x="1048" y="0" on="1"/>
        <pt x="767" y="0" on="1"/>
        <pt x="752" y="116" on="1"/>
        <pt x="645" y="-20" on="0"/>
        <pt x="481" y="-20" on="1"/>
        <pt x="349" y="-20" on="0"/>
        <pt x="159" y="121" on="0"/>
        <pt x="60" y="369" on="0"/>
        <pt x="60" y="528" on="1"/>
        <pt x="60" y="549" on="1"/>
        <pt x="60" y="714" on="0"/>
        <pt x="159" y="964" on="0"/>
        <pt x="349" y="1102" on="0"/>
        <pt x="483" y="1102" on="1"/>
        <pt x="635" y="1102" on="0"/>
        <pt x="735" y="986" on="1"/>
        <pt x="735" y="1536" on="1"/>
      </contour>
      <contour>
        <pt x="683" y="232" on="0"/>
        <pt x="735" y="335" on="1"/>
        <pt x="735" y="747" on="1"/>
        <pt x="686" y="850" on="0"/>
        <pt x="562" y="850" on="1"/>
        <pt x="463" y="850" on="0"/>
        <pt x="372" y="688" on="0"/>
        <pt x="372" y="549" on="1"/>
        <pt x="372" y="528" on="1"/>
        <pt x="372" y="392" on="0"/>
        <pt x="460" y="232" on="0"/>
        <pt x="560" y="232" on="1"/>
      </contour>
    </TTGlyph>
    <TTGlyph name="d.ss06" xMin="63" yMin="-20" xMax="1071" yMax="1536">
      <contour>
        <pt x="1071" y="1536" on="1"/>
        <pt x="1071" y="0" on="1"/>
        <pt x="800" y="0" on="1"/>
        <pt x="779" y="123" on="1"/>
        <pt x="672" y="-20" on="0"/>
        <pt x="503" y="-20" on="1"/>
        <pt x="371" y="-20" on="0"/>
        <pt x="171" y="122" on="0"/>
        <pt x="63" y="373" on="0"/>
        <pt x="63" y="530" on="1"/>
        <pt x="63" y="551" on="1"/>
        <pt x="63" y="715" on="0"/>
        <pt x="171" y="964" on="0"/>
        <pt x="371" y="1102" on="0"/>
        <pt x="505" y="1102" on="1"/>
        <pt x="656" y="1102" on="0"/>
        <pt x="758" y="986" on="1"/>
        <pt x="758" y="1536" on="1"/>
      </contour>
      <contour>
        <pt x="642" y="232" on="0"/>
        <pt x="730" y="281" on="0"/>
        <pt x="758" y="326" on="1"/>
        <pt x="758" y="758" on="1"/>
        <pt x="703" y="850" on="0"/>
        <pt x="585" y="850" on="1"/>
        <pt x="483" y="850" on="0"/>
        <pt x="374" y="685" on="0"/>
        <pt x="374" y="551" on="1"/>
        <pt x="374" y="530" on="1"/>
        <pt x="374" y="399" on="0"/>
        <pt x="482" y="232" on="0"/>
        <pt x="583" y="232" on="1"/>
      </contour>
    </TTGlyph>
    <TTGlyph name="degree" xMin="126" yMin="921" xMax="674" yMax="1476">
      <contour>
        <pt x="476" y="1476" on="0"/>
        <pt x="601" y="1401" on="0"/>
        <pt x="674" y="1272" on="0"/>
        <pt x="674" y="1197" on="1"/>
        <pt x="674" y="1122" on="0"/>
        <pt x="601" y="995" on="0"/>
        <pt x="476" y="921" on="0"/>
        <pt x="402" y="921" on="1"/>
        <pt x="328" y="921" on="0"/>
        <pt x="201" y="995" on="0"/>
        <pt x="126" y="1122" on="0"/>
        <pt x="126" y="1197" on="1"/>
        <pt x="126" y="1272" on="0"/>
        <pt x="201" y="1400" on="0"/>
        <pt x="328" y="1476" on="0"/>
        <pt x="402" y="1476" on="1"/>
      </contour>
      <contour>
        <pt x="454" y="1073" on="0"/>
        <pt x="524" y="1143" on="0"/>
        <pt x="524" y="1197" on="1"/>
        <pt x="524" y="1252" on="0"/>
        <pt x="454" y="1325" on="0"/>
        <pt x="402" y="1325" on="1"/>
        <pt x="368" y="1325" on="0"/>
        <pt x="311" y="1291" on="0"/>
        <pt x="277" y="1233" on="0"/>
        <pt x="277" y="1197" on="1"/>
        <pt x="277" y="1144" on="0"/>
        <pt x="350" y="1073" on="0"/>
        <pt x="402" y="1073" on="1"/>
      </contour>
    </TTGlyph>
    <TTGlyph name="dieresis" xMin="95" yMin="1234" xMax="886" yMax="1496">
      <contour>
        <pt x="279" y="1496" on="0"/>
        <pt x="346" y="1461" on="0"/>
        <pt x="384" y="1401" on="0"/>
        <pt x="384" y="1365" on="1"/>
        <pt x="384" y="1329" on="0"/>
        <pt x="346" y="1269" on="0"/>
        <pt x="279" y="1234" on="0"/>
        <pt x="239" y="1234" on="1"/>
        <pt x="199" y="1234" on="0"/>
        <pt x="133" y="1269" on="0"/>
        <pt x="95" y="1329" on="0"/>
        <pt x="95" y="1365" on="1"/>
        <pt x="95" y="1401" on="0"/>
        <pt x="133" y="1461" on="0"/>
        <pt x="199" y="1496" on="0"/>
        <pt x="239" y="1496" on="1"/>
      </contour>
      <contour>
        <pt x="782" y="1496" on="0"/>
        <pt x="848" y="1461" on="0"/>
        <pt x="886" y="1401" on="0"/>
        <pt x="886" y="1365" on="1"/>
        <pt x="886" y="1329" on="0"/>
        <pt x="848" y="1269" on="0"/>
        <pt x="782" y="1234" on="0"/>
        <pt x="742" y="1234" on="1"/>
        <pt x="702" y="1234" on="0"/>
        <pt x="635" y="1269" on="0"/>
        <pt x="597" y="1329" on="0"/>
        <pt x="597" y="1365" on="1"/>
        <pt x="597" y="1401" on="0"/>
        <pt x="635" y="1461" on="0"/>
        <pt x="702" y="1496" on="0"/>
        <pt x="742" y="1496" on="1"/>
      </contour>
    </TTGlyph>
    <TTGlyph name="divide" xMin="62" yMin="117" xMax="1097" yMax="1247">
      <contour>
        <pt x="658" y="1247" on="0"/>
        <pt x="754" y="1158" on="0"/>
        <pt x="754" y="1087" on="1"/>
        <pt x="754" y="1017" on="0"/>
        <pt x="657" y="927" on="0"/>
        <pt x="580" y="927" on="1"/>
        <pt x="502" y="927" on="0"/>
        <pt x="405" y="1017" on="0"/>
        <pt x="405" y="1087" on="1"/>
        <pt x="405" y="1158" on="0"/>
        <pt x="502" y="1247" on="0"/>
        <pt x="580" y="1247" on="1"/>
      </contour>
      <contour>
        <pt x="62" y="566" on="1"/>
        <pt x="62" y="805" on="1"/>
        <pt x="1097" y="805" on="1"/>
        <pt x="1097" y="566" on="1"/>
      </contour>
      <contour>
        <pt x="658" y="437" on="0"/>
        <pt x="754" y="348" on="0"/>
        <pt x="754" y="277" on="1"/>
        <pt x="754" y="207" on="0"/>
        <pt x="657" y="117" on="0"/>
        <pt x="580" y="117" on="1"/>
        <pt x="502" y="117" on="0"/>
        <pt x="405" y="207" on="0"/>
        <pt x="405" y="277" on="1"/>
        <pt x="405" y="348" on="0"/>
        <pt x="502" y="437" on="0"/>
        <pt x="580" y="437" on="1"/>
      </contour>
    </TTGlyph>
    <TTGlyph name="dollar" xMin="88" yMin="-217" xMax="1092" yMax="1686">
      <contour>
        <pt x="798" y="800" on="0"/>
        <pt x="981" y="686" on="0"/>
        <pt x="1088" y="514" on="0"/>
        <pt x="1088" y="387" on="1"/>
        <pt x="1088" y="272" on="0"/>
        <pt x="989" y="99" on="0"/>
        <pt x="809" y="-4" on="0"/>
        <pt x="688" y="-17" on="1"/>
        <pt x="688" y="-217" on="1"/>
        <pt x="529" y="-217" on="1"/>
        <pt x="529" y="-17" on="1"/>
        <pt x="408" y="-4" on="0"/>
        <pt x="210" y="102" on="0"/>
        <pt x="88" y="309" on="0"/>
        <pt x="88" y="464" on="1"/>
        <pt x="400" y="464" on="1"/>
        <pt x="400" y="338" on="0"/>
        <pt x="517" y="227" on="0"/>
        <pt x="607" y="227" on="1"/>
        <pt x="689" y="227" on="0"/>
        <pt x="776" y="315" on="0"/>
        <pt x="776" y="385" on="1"/>
        <pt x="776" y="440" on="0"/>
        <pt x="739" y="514" on="0"/>
        <pt x="657" y="569" on="0"/>
        <pt x="585" y="598" on="1"/>
        <pt x="433" y="658" on="0"/>
        <pt x="249" y="770" on="0"/>
        <pt x="142" y="941" on="0"/>
        <pt x="142" y="1069" on="1"/>
        <pt x="142" y="1181" on="0"/>
        <pt x="243" y="1356" on="0"/>
        <pt x="427" y="1462" on="0"/>
        <pt x="549" y="1474" on="1"/>
        <pt x="549" y="1686" on="1"/>
        <pt x="708" y="1686" on="1"/>
        <pt x="708" y="1470" on="1"/>
        <pt x="825" y="1453" on="0"/>
        <pt x="998" y="1333" on="0"/>
        <pt x="1092" y="1136" on="0"/>
        <pt x="1092" y="1006" on="1"/>
        <pt x="780" y="1006" on="1"/>
        <pt x="780" y="1118" on="0"/>
        <pt x="689" y="1229" on="0"/>
        <pt x="611" y="1229" on="1"/>
        <pt x="532" y="1229" on="0"/>
        <pt x="454" y="1139" on="0"/>
        <pt x="454" y="1067" on="1"/>
        <pt x="454" y="1019" on="0"/>
        <pt x="489" y="952" on="0"/>
        <pt x="572" y="894" on="0"/>
        <pt x="647" y="863" on="1"/>
      </contour>
    </TTGlyph>
    <TTGlyph name="dollar.smcp" xMin="57" yMin="-237" xMax="1035" yMax="1395">
      <contour>
        <pt x="743" y="683" on="0"/>
        <pt x="936" y="586" on="0"/>
        <pt x="1031" y="437" on="0"/>
        <pt x="1031" y="327" on="1"/>
        <pt x="1031" y="181" on="0"/>
        <pt x="827" y="5" on="0"/>
        <pt x="649" y="-12" on="1"/>
        <pt x="649" y="-237" on="1"/>
        <pt x="489" y="-237" on="1"/>
        <pt x="489" y="-12" on="1"/>
        <pt x="370" y="-1" on="0"/>
        <pt x="175" y="89" on="0"/>
        <pt x="57" y="256" on="0"/>
        <pt x="57" y="377" on="1"/>
        <pt x="370" y="377" on="1"/>
        <pt x="370" y="289" on="0"/>
        <pt x="473" y="211" on="0"/>
        <pt x="587" y="211" on="1"/>
        <pt x="667" y="211" on="0"/>
        <pt x="737" y="276" on="0"/>
        <pt x="737" y="317" on="1"/>
        <pt x="737" y="352" on="0"/>
        <pt x="698" y="404" on="0"/>
        <pt x="606" y="445" on="0"/>
        <pt x="526" y="463" on="1"/>
        <pt x="368" y="500" on="0"/>
        <pt x="185" y="589" on="0"/>
        <pt x="97" y="725" on="0"/>
        <pt x="97" y="832" on="1"/>
        <pt x="97" y="926" on="0"/>
        <pt x="197" y="1077" on="0"/>
        <pt x="375" y="1169" on="0"/>
        <pt x="489" y="1179" on="1"/>
        <pt x="489" y="1395" on="1"/>
        <pt x="649" y="1395" on="1"/>
        <pt x="649" y="1175" on="1"/>
        <pt x="827" y="1153" on="0"/>
        <pt x="1035" y="968" on="0"/>
        <pt x="1035" y="816" on="1"/>
        <pt x="723" y="816" on="1"/>
        <pt x="723" y="852" on="0"/>
        <pt x="681" y="915" on="0"/>
        <pt x="601" y="953" on="0"/>
        <pt x="548" y="953" on="1"/>
        <pt x="496" y="953" on="0"/>
        <pt x="425" y="920" on="0"/>
        <pt x="390" y="871" on="0"/>
        <pt x="390" y="846" on="1"/>
        <pt x="390" y="815" on="0"/>
        <pt x="428" y="771" on="0"/>
        <pt x="514" y="734" on="0"/>
        <pt x="589" y="716" on="1"/>
      </contour>
    </TTGlyph>
    <TTGlyph name="dotlessi" xMin="129" yMin="0" xMax="442" yMax="1082">
      <contour>
        <pt x="129" y="0" on="1"/>
        <pt x="129" y="1082" on="1"/>
        <pt x="442" y="1082" on="1"/>
        <pt x="442" y="0" on="1"/>
      </contour>
    </TTGlyph>
    <TTGlyph name="e" xMin="67" yMin="-20" xMax="1064" yMax="1102">
      <contour>
        <pt x="1064" y="439" on="1"/>
        <pt x="385" y="439" on="1"/>
        <pt x="402" y="343" on="0"/>
        <pt x="532" y="232" on="0"/>
        <pt x="634" y="232" on="1"/>
        <pt x="712" y="232" on="0"/>
        <pt x="844" y="288" on="0"/>
        <pt x="891" y="347" on="1"/>
        <pt x="1038" y="172" on="1"/>
        <pt x="981" y="91" on="0"/>
        <pt x="761" y="-20" on="0"/>
        <pt x="614" y="-20" on="1"/>
        <pt x="447" y="-20" on="0"/>
        <pt x="199" y="121" on="0"/>
        <pt x="67" y="361" on="0"/>
        <pt x="67" y="505" on="1"/>
        <pt x="67" y="543" on="1"/>
        <pt x="67" y="704" on="0"/>
        <pt x="189" y="957" on="0"/>
        <pt x="420" y="1102" on="0"/>
        <pt x="580" y="1102" on="1"/>
        <pt x="733" y="1102" on="0"/>
        <pt x="951" y="973" on="0"/>
        <pt x="1064" y="734" on="0"/>
        <pt x="1064" y="572" on="1"/>
      </contour>
      <contour>
        <pt x="758" y="671" on="1"/>
        <pt x="758" y="755" on="0"/>
        <pt x="667" y="850" on="0"/>
        <pt x="578" y="850" on="1"/>
        <pt x="419" y="850" on="0"/>
        <pt x="386" y="646" on="1"/>
        <pt x="758" y="646" on="1"/>
      </contour>
    </TTGlyph>
    <TTGlyph name="e.ss07" xMin="67" yMin="-20" xMax="1064" yMax="1102">
      <contour>
        <pt x="1064" y="439" on="1"/>
        <pt x="385" y="439" on="1"/>
        <pt x="402" y="341" on="0"/>
        <pt x="545" y="232" on="0"/>
        <pt x="674" y="232" on="1"/>
        <pt x="745" y="232" on="0"/>
        <pt x="905" y="269" on="0"/>
        <pt x="962" y="299" on="1"/>
        <pt x="1017" y="81" on="1"/>
        <pt x="950" y="38" on="0"/>
        <pt x="749" y="-20" on="0"/>
        <pt x="627" y="-20" on="1"/>
        <pt x="458" y="-20" on="0"/>
        <pt x="204" y="119" on="0"/>
        <pt x="67" y="359" on="0"/>
        <pt x="67" y="506" on="1"/>
        <pt x="67" y="545" on="1"/>
        <pt x="67" y="705" on="0"/>
        <pt x="189" y="958" on="0"/>
        <pt x="420" y="1102" on="0"/>
        <pt x="580" y="1102" on="1"/>
        <pt x="733" y="1102" on="0"/>
        <pt x="951" y="973" on="0"/>
        <pt x="1064" y="736" on="0"/>
        <pt x="1064" y="575" on="1"/>
      </contour>
      <contour>
        <pt x="758" y="672" on="1"/>
        <pt x="758" y="757" on="0"/>
        <pt x="671" y="850" on="0"/>
        <pt x="580" y="850" on="1"/>
        <pt x="496" y="850" on="0"/>
        <pt x="401" y="741" on="0"/>
        <pt x="386" y="646" on="1"/>
        <pt x="758" y="646" on="1"/>
      </contour>
    </TTGlyph>
    <TTGlyph name="eacute" xMin="67" yMin="-20" xMax="1064" yMax="1537">
      <component glyphName=".ttfautohint" x="67" y="0" flags="0x0"/>
      <component glyphName="e" x="0" y="0" flags="0x0"/>
      <component glyphName="acutecomb" x="1071" y="1" flags="0x4"/>
    </TTGlyph>
    <TTGlyph name="ecircumflex" xMin="67" yMin="-20" xMax="1064" yMax="1537">
      <component glyphName=".ttfautohint" x="67" y="0" flags="0x0"/>
      <component glyphName="e" x="0" y="0" flags="0x0"/>
      <component glyphName="circumflex" x="30" y="1" flags="0x4"/>
    </TTGlyph>
    <TTGlyph name="edieresis" xMin="67" yMin="-20" xMax="1064" yMax="1497">
      <component glyphName=".ttfautohint" x="67" y="0" flags="0x0"/>
      <component glyphName="e" x="0" y="0" flags="0x0"/>
      <component glyphName="dieresis" x="48" y="1" flags="0x4"/>
    </TTGlyph>
    <TTGlyph name="egrave" xMin="67" yMin="-20" xMax="1064" yMax="1537">
      <component glyphName=".ttfautohint" x="67" y="0" flags="0x0"/>
      <component glyphName="e" x="0" y="0" flags="0x0"/>
      <component glyphName="gravecomb" x="1084" y="1" flags="0x4"/>
    </TTGlyph>
    <TTGlyph name="eight" xMin="90" yMin="-20" xMax="1090" yMax="1477">
      <contour>
        <pt x="970" y="700" on="0"/>
        <pt x="1090" y="519" on="0"/>
        <pt x="1090" y="401" on="1"/>
        <pt x="1090" y="266" on="0"/>
        <pt x="962" y="76" on="0"/>
        <pt x="737" y="-20" on="0"/>
        <pt x="592" y="-20" on="1"/>
        <pt x="447" y="-20" on="0"/>
        <pt x="220" y="76" on="0"/>
        <pt x="90" y="266" on="0"/>
        <pt x="90" y="401" on="1"/>
        <pt x="90" y="519" on="0"/>
        <pt x="211" y="699" on="0"/>
        <pt x="318" y="751" on="1"/>
        <pt x="225" y="801" on="0"/>
        <pt x="121" y="965" on="0"/>
        <pt x="121" y="1068" on="1"/>
        <pt x="121" y="1198" on="0"/>
        <pt x="240" y="1382" on="0"/>
        <pt x="453" y="1477" on="0"/>
        <pt x="590" y="1477" on="1"/>
        <pt x="729" y="1477" on="0"/>
        <pt x="941" y="1382" on="0"/>
        <pt x="1059" y="1198" on="0"/>
        <pt x="1059" y="1068" on="1"/>
        <pt x="1059" y="965" on="0"/>
        <pt x="956" y="801" on="0"/>
        <pt x="864" y="751" on="1"/>
      </contour>
      <contour>
        <pt x="515" y="1225" on="0"/>
        <pt x="434" y="1133" on="0"/>
        <pt x="434" y="1051" on="1"/>
        <pt x="434" y="968" on="0"/>
        <pt x="517" y="871" on="0"/>
        <pt x="592" y="871" on="1"/>
        <pt x="666" y="871" on="0"/>
        <pt x="747" y="968" on="0"/>
        <pt x="747" y="1051" on="1"/>
        <pt x="747" y="1132" on="0"/>
        <pt x="665" y="1225" on="0"/>
        <pt x="590" y="1225" on="1"/>
      </contour>
      <contour>
        <pt x="677" y="232" on="0"/>
        <pt x="777" y="336" on="0"/>
        <pt x="777" y="426" on="1"/>
        <pt x="777" y="516" on="0"/>
        <pt x="675" y="620" on="0"/>
        <pt x="590" y="620" on="1"/>
        <pt x="505" y="620" on="0"/>
        <pt x="403" y="516" on="0"/>
        <pt x="403" y="426" on="1"/>
        <pt x="403" y="336" on="0"/>
        <pt x="506" y="232" on="0"/>
        <pt x="592" y="232" on="1"/>
      </contour>
    </TTGlyph>
    <TTGlyph name="eight.frac" xMin="70" yMin="653" xMax="695" yMax="1465">
      <component glyphName=".ttfautohint" x="70" y="653" flags="0x0"/>
      <component glyphName="eight.sup" x="0" y="664" flags="0x4"/>
    </TTGlyph>
    <TTGlyph name="eight.smcp" xMin="74" yMin="-16" xMax="995" yMax="1182">
      <contour>
        <pt x="895" y="559" on="0"/>
        <pt x="995" y="418" on="0"/>
        <pt x="995" y="323" on="1"/>
        <pt x="995" y="212" on="0"/>
        <pt x="878" y="60" on="0"/>
        <pt x="672" y="-16" on="0"/>
        <pt x="536" y="-16" on="1"/>
        <pt x="402" y="-16" on="0"/>
        <pt x="193" y="60" on="0"/>
        <pt x="74" y="212" on="0"/>
        <pt x="74" y="323" on="1"/>
        <pt x="74" y="418" on="0"/>
        <pt x="175" y="559" on="0"/>
        <pt x="265" y="601" on="1"/>
        <pt x="187" y="641" on="0"/>
        <pt x="101" y="768" on="0"/>
        <pt x="101" y="850" on="1"/>
        <pt x="101" y="957" on="0"/>
        <pt x="212" y="1106" on="0"/>
        <pt x="407" y="1182" on="0"/>
        <pt x="534" y="1182" on="1"/>
        <pt x="663" y="1182" on="0"/>
        <pt x="858" y="1106" on="0"/>
        <pt x="967" y="957" on="0"/>
        <pt x="967" y="850" on="1"/>
        <pt x="967" y="768" on="0"/>
        <pt x="883" y="640" on="0"/>
        <pt x="806" y="600" on="1"/>
      </contour>
      <contour>
        <pt x="476" y="930" on="0"/>
        <pt x="414" y="878" on="0"/>
        <pt x="414" y="829" on="1"/>
        <pt x="414" y="779" on="0"/>
        <pt x="477" y="719" on="0"/>
        <pt x="536" y="719" on="1"/>
        <pt x="595" y="719" on="0"/>
        <pt x="655" y="778" on="0"/>
        <pt x="655" y="829" on="1"/>
        <pt x="655" y="930" on="0"/>
        <pt x="534" y="930" on="1"/>
      </contour>
      <contour>
        <pt x="603" y="235" on="0"/>
        <pt x="684" y="300" on="0"/>
        <pt x="684" y="355" on="1"/>
        <pt x="684" y="411" on="0"/>
        <pt x="603" y="468" on="0"/>
        <pt x="534" y="468" on="1"/>
        <pt x="467" y="468" on="0"/>
        <pt x="387" y="411" on="0"/>
        <pt x="387" y="355" on="1"/>
        <pt x="387" y="300" on="0"/>
        <pt x="469" y="235" on="0"/>
        <pt x="536" y="235" on="1"/>
      </contour>
    </TTGlyph>
    <TTGlyph name="eight.sup" xMin="70" yMin="-11" xMax="695" yMax="801">
      <contour>
        <pt x="628" y="379" on="0"/>
        <pt x="695" y="283" on="0"/>
        <pt x="695" y="219" on="1"/>
        <pt x="695" y="107" on="0"/>
        <pt x="524" y="-11" on="0"/>
        <pt x="383" y="-11" on="1"/>
        <pt x="243" y="-11" on="0"/>
        <pt x="70" y="107" on="0"/>
        <pt x="70" y="219" on="1"/>
        <pt x="70" y="283" on="0"/>
        <pt x="138" y="378" on="0"/>
        <pt x="199" y="407" on="1"/>
        <pt x="146" y="434" on="0"/>
        <pt x="88" y="520" on="0"/>
        <pt x="88" y="575" on="1"/>
        <pt x="88" y="684" on="0"/>
        <pt x="250" y="801" on="0"/>
        <pt x="382" y="801" on="1"/>
        <pt x="516" y="801" on="0"/>
        <pt x="677" y="684" on="0"/>
        <pt x="677" y="575" on="1"/>
        <pt x="677" y="520" on="0"/>
        <pt x="620" y="434" on="0"/>
        <pt x="567" y="407" on="1"/>
      </contour>
      <contour>
        <pt x="343" y="628" on="0"/>
        <pt x="303" y="593" on="0"/>
        <pt x="303" y="561" on="1"/>
        <pt x="303" y="528" on="0"/>
        <pt x="344" y="489" on="0"/>
        <pt x="383" y="489" on="1"/>
        <pt x="423" y="489" on="0"/>
        <pt x="462" y="527" on="0"/>
        <pt x="462" y="561" on="1"/>
        <pt x="462" y="628" on="0"/>
        <pt x="382" y="628" on="1"/>
      </contour>
      <contour>
        <pt x="428" y="162" on="0"/>
        <pt x="481" y="205" on="0"/>
        <pt x="481" y="241" on="1"/>
        <pt x="481" y="278" on="0"/>
        <pt x="427" y="316" on="0"/>
        <pt x="382" y="316" on="1"/>
        <pt x="338" y="316" on="0"/>
        <pt x="285" y="278" on="0"/>
        <pt x="285" y="241" on="1"/>
        <pt x="285" y="205" on="0"/>
        <pt x="340" y="162" on="0"/>
        <pt x="383" y="162" on="1"/>
      </contour>
    </TTGlyph>
    <TTGlyph name="eight.tnum" xMin="90" yMin="-20" xMax="1090" yMax="1477">
      <component glyphName=".ttfautohint" x="90" y="0" flags="0x0"/>
      <component glyphName="eight" x="0" y="0" flags="0x0"/>
    </TTGlyph>
    <TTGlyph name="ellipsis" xMin="131" yMin="-11" xMax="1435" yMax="318">
      <component glyphName=".ttfautohint" x="131" y="0" flags="0x0"/>
      <component glyphName="period" x="9" y="0" flags="0x0"/>
      <component glyphName="period" x="490" y="0" flags="0x0"/>
      <component glyphName="period" x="965" y="0" flags="0x0"/>
    </TTGlyph>
    <TTGlyph name="emdash" xMin="99" yMin="584" xMax="1491" yMax="839">
      <component glyphName=".ttfautohint" x="99" y="584" flags="0x0"/>
      <component glyphName="minus" x="-128" y="0" scalex="1.6" scaley="1.0" flags="0x0"/>
    </TTGlyph>
    <TTGlyph name="endash" xMin="149" yMin="584" xMax="1193" yMax="839">
      <component glyphName=".ttfautohint" x="149" y="584" flags="0x0"/>
      <component glyphName="minus" x="-21" y="0" scalex="1.2" scaley="1.0" flags="0x0"/>
    </TTGlyph>
    <TTGlyph name="equal" xMin="133" yMin="292" xMax="1042" yMax="982">
      <contour>
        <pt x="133" y="730" on="1"/>
        <pt x="133" y="982" on="1"/>
        <pt x="1042" y="982" on="1"/>
        <pt x="1042" y="730" on="1"/>
      </contour>
      <contour>
        <pt x="133" y="292" on="1"/>
        <pt x="133" y="545" on="1"/>
        <pt x="1042" y="545" on="1"/>
        <pt x="1042" y="292" on="1"/>
      </contour>
    </TTGlyph>
    <TTGlyph name="eth" xMin="75" yMin="-20" xMax="1114" yMax="1579">
      <contour>
        <pt x="980" y="1182" on="0"/>
        <pt x="1114" y="851" on="0"/>
        <pt x="1114" y="654" on="1"/>
        <pt x="1114" y="588" on="1"/>
        <pt x="1114" y="410" on="0"/>
        <pt x="977" y="134" on="0"/>
        <pt x="736" y="-20" on="0"/>
        <pt x="584" y="-20" on="1"/>
        <pt x="435" y="-20" on="0"/>
        <pt x="203" y="109" on="0"/>
        <pt x="75" y="332" on="0"/>
        <pt x="75" y="468" on="1"/>
        <pt x="75" y="617" on="0"/>
        <pt x="181" y="840" on="0"/>
        <pt x="385" y="963" on="0"/>
        <pt x="528" y="963" on="1"/>
        <pt x="662" y="963" on="0"/>
        <pt x="765" y="894" on="1"/>
        <pt x="715" y="1040" on="0"/>
        <pt x="602" y="1147" on="1"/>
        <pt x="418" y="1031" on="1"/>
        <pt x="340" y="1148" on="1"/>
        <pt x="483" y="1237" on="1"/>
        <pt x="371" y="1306" on="0"/>
        <pt x="230" y="1341" on="1"/>
        <pt x="329" y="1579" on="1"/>
        <pt x="569" y="1530" on="0"/>
        <pt x="746" y="1401" on="1"/>
        <pt x="912" y="1505" on="1"/>
        <pt x="989" y="1389" on="1"/>
        <pt x="857" y="1306" on="1"/>
      </contour>
      <contour>
        <pt x="692" y="232" on="0"/>
        <pt x="802" y="409" on="0"/>
        <pt x="802" y="552" on="1"/>
        <pt x="802" y="655" on="1"/>
        <pt x="773" y="688" on="0"/>
        <pt x="669" y="728" on="0"/>
        <pt x="597" y="728" on="1"/>
        <pt x="493" y="728" on="0"/>
        <pt x="387" y="591" on="0"/>
        <pt x="387" y="468" on="1"/>
        <pt x="387" y="401" on="0"/>
        <pt x="435" y="293" on="0"/>
        <pt x="526" y="232" on="0"/>
        <pt x="588" y="232" on="1"/>
      </contour>
    </TTGlyph>
    <TTGlyph name="exclam" xMin="114" yMin="-18" xMax="462" yMax="1456">
      <contour>
        <pt x="161" y="457" on="1"/>
        <pt x="123" y="1456" on="1"/>
        <pt x="455" y="1456" on="1"/>
        <pt x="417" y="457" on="1"/>
      </contour>
      <contour>
        <pt x="339" y="311" on="0"/>
        <pt x="418" y="268" on="0"/>
        <pt x="462" y="193" on="0"/>
        <pt x="462" y="147" on="1"/>
        <pt x="462" y="100" on="0"/>
        <pt x="418" y="25" on="0"/>
        <pt x="339" y="-18" on="0"/>
        <pt x="288" y="-18" on="1"/>
        <pt x="237" y="-18" on="0"/>
        <pt x="158" y="25" on="0"/>
        <pt x="114" y="100" on="0"/>
        <pt x="114" y="147" on="1"/>
        <pt x="114" y="193" on="0"/>
        <pt x="158" y="268" on="0"/>
        <pt x="237" y="311" on="0"/>
        <pt x="288" y="311" on="1"/>
      </contour>
    </TTGlyph>
    <TTGlyph name="exclamdown" xMin="126" yMin="-371" xMax="474" yMax="1102">
      <contour>
        <pt x="249" y="774" on="0"/>
        <pt x="170" y="817" on="0"/>
        <pt x="126" y="892" on="0"/>
        <pt x="126" y="938" on="1"/>
        <pt x="126" y="984" on="0"/>
        <pt x="170" y="1059" on="0"/>
        <pt x="249" y="1102" on="0"/>
        <pt x="300" y="1102" on="1"/>
        <pt x="351" y="1102" on="0"/>
        <pt x="430" y="1059" on="0"/>
        <pt x="474" y="984" on="0"/>
        <pt x="474" y="938" on="1"/>
        <pt x="474" y="892" on="0"/>
        <pt x="430" y="817" on="0"/>
        <pt x="351" y="774" on="0"/>
        <pt x="300" y="774" on="1"/>
      </contour>
      <contour>
        <pt x="427" y="628" on="1"/>
        <pt x="465" y="-371" on="1"/>
        <pt x="133" y="-371" on="1"/>
        <pt x="171" y="628" on="1"/>
      </contour>
    </TTGlyph>
    <TTGlyph name="f" xMin="22" yMin="0" xMax="738" yMax="1557">
      <contour>
        <pt x="575" y="1305" on="0"/>
        <pt x="493" y="1236" on="0"/>
        <pt x="493" y="1172" on="1"/>
        <pt x="493" y="1082" on="1"/>
        <pt x="706" y="1082" on="1"/>
        <pt x="706" y="855" on="1"/>
        <pt x="493" y="855" on="1"/>
        <pt x="493" y="0" on="1"/>
        <pt x="180" y="0" on="1"/>
        <pt x="180" y="855" on="1"/>
        <pt x="22" y="855" on="1"/>
        <pt x="22" y="1082" on="1"/>
        <pt x="180" y="1082" on="1"/>
        <pt x="180" y="1172" on="1"/>
        <pt x="180" y="1295" on="0"/>
        <pt x="278" y="1468" on="0"/>
        <pt x="461" y="1557" on="0"/>
        <pt x="586" y="1557" on="1"/>
        <pt x="656" y="1557" on="0"/>
        <pt x="738" y="1536" on="1"/>
        <pt x="738" y="1296" on="1"/>
        <pt x="700" y="1305" on="0"/>
        <pt x="651" y="1305" on="1"/>
      </contour>
    </TTGlyph>
    <TTGlyph name="f_f" xMin="22" yMin="0" xMax="1476" yMax="1557">
      <component glyphName=".ttfautohint" x="22" y="0" flags="0x0"/>
      <component glyphName="f" x="0" y="0" flags="0x0"/>
      <component glyphName="f" x="738" y="0" flags="0x0"/>
    </TTGlyph>
    <TTGlyph name="f_f_i" xMin="22" yMin="0" xMax="1817" yMax="1557">
      <contour>
        <pt x="1155" y="1082" on="1"/>
        <pt x="1367" y="1082" on="1"/>
        <pt x="1367" y="855" on="1"/>
        <pt x="1155" y="855" on="1"/>
        <pt x="1155" y="0" on="1"/>
        <pt x="843" y="0" on="1"/>
        <pt x="843" y="855" on="1"/>
        <pt x="493" y="855" on="1"/>
        <pt x="493" y="0" on="1"/>
        <pt x="180" y="0" on="1"/>
        <pt x="180" y="855" on="1"/>
        <pt x="22" y="855" on="1"/>
        <pt x="22" y="1082" on="1"/>
        <pt x="180" y="1082" on="1"/>
        <pt x="180" y="1172" on="1"/>
        <pt x="180" y="1295" on="0"/>
        <pt x="278" y="1468" on="0"/>
        <pt x="461" y="1557" on="0"/>
        <pt x="586" y="1557" on="1"/>
        <pt x="656" y="1557" on="0"/>
        <pt x="738" y="1536" on="1"/>
        <pt x="738" y="1296" on="1"/>
        <pt x="700" y="1305" on="0"/>
        <pt x="651" y="1305" on="1"/>
        <pt x="575" y="1305" on="0"/>
        <pt x="493" y="1236" on="0"/>
        <pt x="493" y="1172" on="1"/>
        <pt x="493" y="1082" on="1"/>
        <pt x="843" y="1082" on="1"/>
        <pt x="843" y="1115" on="1"/>
        <pt x="843" y="1329" on="0"/>
        <pt x="1099" y="1557" on="0"/>
        <pt x="1334" y="1557" on="1"/>
        <pt x="1415" y="1557" on="0"/>
        <pt x="1574" y="1528" on="0"/>
        <pt x="1674" y="1499" on="1"/>
        <pt x="1630" y="1241" on="1"/>
        <pt x="1546" y="1264" on="0"/>
        <pt x="1434" y="1286" on="0"/>
        <pt x="1353" y="1286" on="1"/>
        <pt x="1257" y="1286" on="0"/>
        <pt x="1155" y="1198" on="0"/>
        <pt x="1155" y="1115" on="1"/>
      </contour>
      <contour>
        <pt x="1817" y="1082" on="1"/>
        <pt x="1817" y="0" on="1"/>
        <pt x="1505" y="0" on="1"/>
        <pt x="1505" y="1082" on="1"/>
      </contour>
    </TTGlyph>
    <TTGlyph name="f_f_l" xMin="22" yMin="0" xMax="1817" yMax="1557">
      <contour>
        <pt x="1391" y="1557" on="0"/>
        <pt x="1691" y="1542" on="0"/>
        <pt x="1817" y="1533" on="1"/>
        <pt x="1817" y="0" on="1"/>
        <pt x="1505" y="0" on="1"/>
        <pt x="1505" y="1297" on="1"/>
        <pt x="1420" y="1305" on="0"/>
        <pt x="1351" y="1305" on="1"/>
        <pt x="1257" y="1305" on="0"/>
        <pt x="1155" y="1227" on="0"/>
        <pt x="1155" y="1154" on="1"/>
        <pt x="1155" y="1082" on="1"/>
        <pt x="1368" y="1082" on="1"/>
        <pt x="1368" y="855" on="1"/>
        <pt x="1155" y="855" on="1"/>
        <pt x="1155" y="0" on="1"/>
        <pt x="843" y="0" on="1"/>
        <pt x="843" y="855" on="1"/>
        <pt x="493" y="855" on="1"/>
        <pt x="493" y="0" on="1"/>
        <pt x="180" y="0" on="1"/>
        <pt x="180" y="855" on="1"/>
        <pt x="22" y="855" on="1"/>
        <pt x="22" y="1082" on="1"/>
        <pt x="180" y="1082" on="1"/>
        <pt x="180" y="1172" on="1"/>
        <pt x="180" y="1295" on="0"/>
        <pt x="278" y="1468" on="0"/>
        <pt x="461" y="1557" on="0"/>
        <pt x="586" y="1557" on="1"/>
        <pt x="656" y="1557" on="0"/>
        <pt x="738" y="1536" on="1"/>
        <pt x="738" y="1296" on="1"/>
        <pt x="700" y="1305" on="0"/>
        <pt x="651" y="1305" on="1"/>
        <pt x="575" y="1305" on="0"/>
        <pt x="493" y="1236" on="0"/>
        <pt x="493" y="1172" on="1"/>
        <pt x="493" y="1082" on="1"/>
        <pt x="843" y="1082" on="1"/>
        <pt x="843" y="1154" on="1"/>
        <pt x="843" y="1349" on="0"/>
        <pt x="1085" y="1557" on="0"/>
        <pt x="1306" y="1557" on="1"/>
      </contour>
    </TTGlyph>
    <TTGlyph name="f_l" xMin="22" yMin="0" xMax="1155" yMax="1557">
      <contour>
        <pt x="729" y="1557" on="0"/>
        <pt x="1029" y="1542" on="0"/>
        <pt x="1155" y="1533" on="1"/>
        <pt x="1155" y="0" on="1"/>
        <pt x="843" y="0" on="1"/>
        <pt x="843" y="1297" on="1"/>
        <pt x="758" y="1305" on="0"/>
        <pt x="689" y="1305" on="1"/>
        <pt x="595" y="1305" on="0"/>
        <pt x="493" y="1227" on="0"/>
        <pt x="493" y="1154" on="1"/>
        <pt x="493" y="1082" on="1"/>
        <pt x="706" y="1082" on="1"/>
        <pt x="706" y="855" on="1"/>
        <pt x="493" y="855" on="1"/>
        <pt x="493" y="0" on="1"/>
        <pt x="180" y="0" on="1"/>
        <pt x="180" y="855" on="1"/>
        <pt x="22" y="855" on="1"/>
        <pt x="22" y="1082" on="1"/>
        <pt x="180" y="1082" on="1"/>
        <pt x="180" y="1154" on="1"/>
        <pt x="180" y="1349" on="0"/>
        <pt x="423" y="1557" on="0"/>
        <pt x="644" y="1557" on="1"/>
      </contour>
    </TTGlyph>
    <TTGlyph name="fi" xMin="19" yMin="0" xMax="1153" yMax="1557">
      <contour>
        <pt x="491" y="1082" on="1"/>
        <pt x="703" y="1082" on="1"/>
        <pt x="703" y="855" on="1"/>
        <pt x="491" y="855" on="1"/>
        <pt x="491" y="0" on="1"/>
        <pt x="178" y="0" on="1"/>
        <pt x="178" y="855" on="1"/>
        <pt x="19" y="855" on="1"/>
        <pt x="19" y="1082" on="1"/>
        <pt x="178" y="1082" on="1"/>
        <pt x="178" y="1115" on="1"/>
        <pt x="178" y="1329" on="0"/>
        <pt x="434" y="1557" on="0"/>
        <pt x="669" y="1557" on="1"/>
        <pt x="751" y="1557" on="0"/>
        <pt x="911" y="1528" on="0"/>
        <pt x="1009" y="1499" on="1"/>
        <pt x="965" y="1241" on="1"/>
        <pt x="881" y="1264" on="0"/>
        <pt x="769" y="1286" on="0"/>
        <pt x="688" y="1286" on="1"/>
        <pt x="592" y="1286" on="0"/>
        <pt x="491" y="1198" on="0"/>
        <pt x="491" y="1115" on="1"/>
      </contour>
      <contour>
        <pt x="1153" y="1082" on="1"/>
        <pt x="1153" y="0" on="1"/>
        <pt x="840" y="0" on="1"/>
        <pt x="840" y="1082" on="1"/>
      </contour>
    </TTGlyph>
    <TTGlyph name="five" xMin="94" yMin="-20" xMax="1094" yMax="1456">
      <contour>
        <pt x="213" y="1456" on="1"/>
        <pt x="1046" y="1456" on="1"/>
        <pt x="1046" y="1201" on="1"/>
        <pt x="468" y="1201" on="1"/>
        <pt x="433" y="904" on="1"/>
        <pt x="469" y="924" on="0"/>
        <pt x="584" y="958" on="0"/>
        <pt x="647" y="958" on="1"/>
        <pt x="789" y="958" on="0"/>
        <pt x="989" y="843" on="0"/>
        <pt x="1094" y="623" on="0"/>
        <pt x="1094" y="469" on="1"/>
        <pt x="1094" y="337" on="0"/>
        <pt x="983" y="115" on="0"/>
        <pt x="759" y="-20" on="0"/>
        <pt x="596" y="-20" on="1"/>
        <pt x="467" y="-20" on="0"/>
        <pt x="236" y="86" on="0"/>
        <pt x="95" y="282" on="0"/>
        <pt x="94" y="411" on="1"/>
        <pt x="405" y="411" on="1"/>
        <pt x="412" y="328" on="0"/>
        <pt x="513" y="232" on="0"/>
        <pt x="594" y="232" on="1"/>
        <pt x="693" y="232" on="0"/>
        <pt x="782" y="374" on="0"/>
        <pt x="782" y="490" on="1"/>
        <pt x="782" y="603" on="0"/>
        <pt x="672" y="730" on="0"/>
        <pt x="561" y="730" on="1"/>
        <pt x="492" y="730" on="0"/>
        <pt x="407" y="687" on="0"/>
        <pt x="375" y="652" on="1"/>
        <pt x="127" y="713" on="1"/>
      </contour>
    </TTGlyph>
    <TTGlyph name="five.frac" xMin="65" yMin="653" xMax="691" yMax="1453">
      <component glyphName=".ttfautohint" x="65" y="653" flags="0x0"/>
      <component glyphName="five.sup" x="0" y="664" flags="0x4"/>
    </TTGlyph>
    <TTGlyph name="five.smcp" xMin="68" yMin="-16" xMax="990" yMax="1165">
      <contour>
        <pt x="175" y="1165" on="1"/>
        <pt x="923" y="1165" on="1"/>
        <pt x="923" y="920" on="1"/>
        <pt x="428" y="920" on="1"/>
        <pt x="399" y="728" on="1"/>
        <pt x="434" y="741" on="0"/>
        <pt x="537" y="767" on="0"/>
        <pt x="591" y="767" on="1"/>
        <pt x="786" y="767" on="0"/>
        <pt x="990" y="574" on="0"/>
        <pt x="990" y="394" on="1"/>
        <pt x="990" y="286" on="0"/>
        <pt x="888" y="99" on="0"/>
        <pt x="681" y="-16" on="0"/>
        <pt x="532" y="-16" on="1"/>
        <pt x="413" y="-16" on="0"/>
        <pt x="200" y="70" on="0"/>
        <pt x="69" y="229" on="0"/>
        <pt x="68" y="332" on="1"/>
        <pt x="382" y="332" on="1"/>
        <pt x="383" y="280" on="0"/>
        <pt x="460" y="235" on="0"/>
        <pt x="532" y="235" on="1"/>
        <pt x="678" y="235" on="0"/>
        <pt x="678" y="395" on="1"/>
        <pt x="678" y="471" on="0"/>
        <pt x="592" y="556" on="0"/>
        <pt x="508" y="556" on="1"/>
        <pt x="445" y="556" on="0"/>
        <pt x="374" y="525" on="0"/>
        <pt x="342" y="501" on="1"/>
        <pt x="94" y="562" on="1"/>
      </contour>
    </TTGlyph>
    <TTGlyph name="five.sup" xMin="65" yMin="-11" xMax="691" yMax="789">
      <contour>
        <pt x="137" y="789" on="1"/>
        <pt x="646" y="789" on="1"/>
        <pt x="646" y="622" on="1"/>
        <pt x="311" y="622" on="1"/>
        <pt x="291" y="494" on="1"/>
        <pt x="365" y="520" on="0"/>
        <pt x="421" y="520" on="1"/>
        <pt x="553" y="520" on="0"/>
        <pt x="691" y="389" on="0"/>
        <pt x="691" y="267" on="1"/>
        <pt x="691" y="194" on="0"/>
        <pt x="622" y="67" on="0"/>
        <pt x="482" y="-11" on="0"/>
        <pt x="380" y="-11" on="1"/>
        <pt x="299" y="-11" on="0"/>
        <pt x="154" y="48" on="0"/>
        <pt x="65" y="155" on="0"/>
        <pt x="65" y="225" on="1"/>
        <pt x="281" y="225" on="1"/>
        <pt x="281" y="191" on="0"/>
        <pt x="332" y="162" on="0"/>
        <pt x="380" y="162" on="1"/>
        <pt x="435" y="162" on="0"/>
        <pt x="477" y="219" on="0"/>
        <pt x="477" y="267" on="1"/>
        <pt x="477" y="319" on="0"/>
        <pt x="421" y="375" on="0"/>
        <pt x="364" y="375" on="1"/>
        <pt x="321" y="375" on="0"/>
        <pt x="271" y="354" on="0"/>
        <pt x="252" y="338" on="1"/>
        <pt x="82" y="381" on="1"/>
      </contour>
    </TTGlyph>
    <TTGlyph name="four" xMin="57" yMin="0" xMax="1123" yMax="1456">
      <contour>
        <pt x="1123" y="311" on="1"/>
        <pt x="967" y="311" on="1"/>
        <pt x="967" y="0" on="1"/>
        <pt x="655" y="0" on="1"/>
        <pt x="655" y="311" on="1"/>
        <pt x="74" y="311" on="1"/>
        <pt x="57" y="510" on="1"/>
        <pt x="654" y="1456" on="1"/>
        <pt x="967" y="1456" on="1"/>
        <pt x="967" y="563" on="1"/>
        <pt x="1123" y="563" on="1"/>
      </contour>
      <contour>
        <pt x="655" y="563" on="1"/>
        <pt x="655" y="1033" on="1"/>
        <pt x="634" y="997" on="1"/>
        <pt x="361" y="563" on="1"/>
      </contour>
    </TTGlyph>
    <TTGlyph name="four.frac" xMin="54" yMin="664" xMax="706" yMax="1453">
      <component glyphName=".ttfautohint" x="54" y="664" flags="0x0"/>
      <component glyphName="four.sup" x="0" y="664" flags="0x4"/>
    </TTGlyph>
    <TTGlyph name="four.smcp" xMin="53" yMin="0" xMax="1015" yMax="1165">
      <contour>
        <pt x="1015" y="234" on="1"/>
        <pt x="886" y="234" on="1"/>
        <pt x="886" y="0" on="1"/>
        <pt x="574" y="0" on="1"/>
        <pt x="574" y="234" on="1"/>
        <pt x="73" y="234" on="1"/>
        <pt x="53" y="441" on="1"/>
        <pt x="574" y="1162" on="1"/>
        <pt x="574" y="1165" on="1"/>
        <pt x="886" y="1165" on="1"/>
        <pt x="886" y="488" on="1"/>
        <pt x="1015" y="488" on="1"/>
      </contour>
      <contour>
        <pt x="574" y="488" on="1"/>
        <pt x="574" y="781" on="1"/>
        <pt x="556" y="753" on="1"/>
        <pt x="350" y="488" on="1"/>
      </contour>
    </TTGlyph>
    <TTGlyph name="four.sup" xMin="54" yMin="0" xMax="706" yMax="789">
      <contour>
        <pt x="706" y="158" on="1"/>
        <pt x="622" y="158" on="1"/>
        <pt x="622" y="0" on="1"/>
        <pt x="407" y="0" on="1"/>
        <pt x="407" y="158" on="1"/>
        <pt x="67" y="158" on="1"/>
        <pt x="54" y="300" on="1"/>
        <pt x="407" y="789" on="1"/>
        <pt x="622" y="789" on="1"/>
        <pt x="622" y="332" on="1"/>
        <pt x="706" y="332" on="1"/>
      </contour>
      <contour>
        <pt x="407" y="332" on="1"/>
        <pt x="407" y="530" on="1"/>
        <pt x="392" y="507" on="1"/>
        <pt x="257" y="332" on="1"/>
      </contour>
    </TTGlyph>
    <TTGlyph name="fraction" xMin="23" yMin="109" xMax="883" yMax="1325">
      <contour>
        <pt x="23" y="187" on="1"/>
        <pt x="734" y="1325" on="1"/>
        <pt x="883" y="1247" on="1"/>
        <pt x="172" y="109" on="1"/>
      </contour>
    </TTGlyph>
    <TTGlyph name="g" xMin="63" yMin="-426" xMax="1069" yMax="1102">
      <contour>
        <pt x="1069" y="1082" on="1"/>
        <pt x="1069" y="41" on="1"/>
        <pt x="1069" y="-106" on="0"/>
        <pt x="936" y="-317" on="0"/>
        <pt x="695" y="-426" on="0"/>
        <pt x="535" y="-426" on="1"/>
        <pt x="424" y="-426" on="0"/>
        <pt x="197" y="-340" on="0"/>
        <pt x="132" y="-262" on="1"/>
        <pt x="267" y="-71" on="1"/>
        <pt x="314" y="-123" on="0"/>
        <pt x="444" y="-184" on="0"/>
        <pt x="522" y="-184" on="1"/>
        <pt x="634" y="-184" on="0"/>
        <pt x="757" y="-66" on="0"/>
        <pt x="757" y="41" on="1"/>
        <pt x="757" y="93" on="1"/>
        <pt x="658" y="-20" on="0"/>
        <pt x="502" y="-20" on="1"/>
        <pt x="369" y="-20" on="0"/>
        <pt x="170" y="121" on="0"/>
        <pt x="63" y="371" on="0"/>
        <pt x="63" y="528" on="1"/>
        <pt x="63" y="549" on="1"/>
        <pt x="63" y="713" on="0"/>
        <pt x="170" y="963" on="0"/>
        <pt x="370" y="1102" on="0"/>
        <pt x="504" y="1102" on="1"/>
        <pt x="680" y="1102" on="0"/>
        <pt x="775" y="983" on="1"/>
        <pt x="787" y="1082" on="1"/>
      </contour>
      <contour>
        <pt x="703" y="232" on="0"/>
        <pt x="757" y="319" on="1"/>
        <pt x="757" y="763" on="1"/>
        <pt x="705" y="850" on="0"/>
        <pt x="583" y="850" on="1"/>
        <pt x="482" y="850" on="0"/>
        <pt x="375" y="683" on="0"/>
        <pt x="375" y="549" on="1"/>
        <pt x="375" y="528" on="1"/>
        <pt x="375" y="397" on="0"/>
        <pt x="480" y="232" on="0"/>
        <pt x="581" y="232" on="1"/>
      </contour>
    </TTGlyph>
    <TTGlyph name="g.alt" xMin="-13" yMin="-438" xMax="1057" yMax="1102">
      <contour>
        <pt x="792" y="235" on="0"/>
        <pt x="963" y="163" on="0"/>
        <pt x="1053" y="25" on="0"/>
        <pt x="1053" y="-70" on="1"/>
        <pt x="1053" y="-158" on="0"/>
        <pt x="918" y="-328" on="0"/>
        <pt x="663" y="-438" on="0"/>
        <pt x="494" y="-438" on="1"/>
        <pt x="335" y="-438" on="0"/>
        <pt x="106" y="-363" on="0"/>
        <pt x="-13" y="-237" on="0"/>
        <pt x="-13" y="-162" on="1"/>
        <pt x="-13" y="-78" on="0"/>
        <pt x="98" y="47" on="0"/>
        <pt x="186" y="84" on="1"/>
        <pt x="142" y="133" on="0"/>
        <pt x="142" y="209" on="1"/>
        <pt x="142" y="318" on="0"/>
        <pt x="258" y="395" on="1"/>
        <pt x="156" y="444" on="0"/>
        <pt x="41" y="610" on="0"/>
        <pt x="41" y="711" on="1"/>
        <pt x="41" y="733" on="1"/>
        <pt x="41" y="842" on="0"/>
        <pt x="160" y="1009" on="0"/>
        <pt x="377" y="1102" on="0"/>
        <pt x="520" y="1102" on="1"/>
        <pt x="612" y="1102" on="0"/>
        <pt x="694" y="1082" on="1"/>
        <pt x="1055" y="1082" on="1"/>
        <pt x="1057" y="928" on="1"/>
        <pt x="939" y="928" on="1"/>
        <pt x="1000" y="844" on="0"/>
        <pt x="1000" y="733" on="1"/>
        <pt x="1000" y="711" on="1"/>
        <pt x="1000" y="608" on="0"/>
        <pt x="881" y="439" on="0"/>
        <pt x="664" y="341" on="0"/>
        <pt x="522" y="341" on="1"/>
        <pt x="448" y="341" on="0"/>
        <pt x="378" y="355" on="1"/>
        <pt x="359" y="333" on="0"/>
        <pt x="359" y="306" on="1"/>
        <pt x="359" y="264" on="0"/>
        <pt x="424" y="235" on="0"/>
        <pt x="486" y="235" on="1"/>
        <pt x="673" y="235" on="1"/>
      </contour>
      <contour>
        <pt x="351" y="711" on="1"/>
        <pt x="351" y="673" on="0"/>
        <pt x="392" y="611" on="0"/>
        <pt x="469" y="574" on="0"/>
        <pt x="522" y="574" on="1"/>
        <pt x="574" y="574" on="0"/>
        <pt x="650" y="611" on="0"/>
        <pt x="690" y="673" on="0"/>
        <pt x="690" y="711" on="1"/>
        <pt x="690" y="733" on="1"/>
        <pt x="690" y="793" on="0"/>
        <pt x="599" y="869" on="0"/>
        <pt x="520" y="869" on="1"/>
        <pt x="442" y="869" on="0"/>
        <pt x="351" y="793" on="0"/>
        <pt x="351" y="733" on="1"/>
      </contour>
      <contour>
        <pt x="579" y="-206" on="0"/>
        <pt x="691" y="-171" on="0"/>
        <pt x="743" y="-118" on="0"/>
        <pt x="743" y="-88" on="1"/>
        <pt x="743" y="-51" on="0"/>
        <pt x="685" y="1" on="0"/>
        <pt x="619" y="1" on="1"/>
        <pt x="427" y="1" on="1"/>
        <pt x="381" y="1" on="0"/>
        <pt x="333" y="9" on="1"/>
        <pt x="309" y="-5" on="0"/>
        <pt x="279" y="-55" on="0"/>
        <pt x="279" y="-85" on="1"/>
        <pt x="279" y="-137" on="0"/>
        <pt x="390" y="-206" on="0"/>
        <pt x="494" y="-206" on="1"/>
      </contour>
    </TTGlyph>
    <TTGlyph name="g.ss06" xMin="63" yMin="-426" xMax="1071" yMax="1102">
      <contour>
        <pt x="1071" y="1082" on="1"/>
        <pt x="1071" y="82" on="1"/>
        <pt x="1071" y="-79" on="0"/>
        <pt x="942" y="-308" on="0"/>
        <pt x="701" y="-426" on="0"/>
        <pt x="535" y="-426" on="1"/>
        <pt x="456" y="-426" on="0"/>
        <pt x="291" y="-394" on="0"/>
        <pt x="224" y="-360" on="1"/>
        <pt x="266" y="-137" on="1"/>
        <pt x="329" y="-161" on="0"/>
        <pt x="432" y="-184" on="0"/>
        <pt x="496" y="-184" on="1"/>
        <pt x="630" y="-184" on="0"/>
        <pt x="758" y="-53" on="0"/>
        <pt x="758" y="83" on="1"/>
        <pt x="758" y="93" on="1"/>
        <pt x="659" y="-20" on="0"/>
        <pt x="503" y="-20" on="1"/>
        <pt x="370" y="-20" on="0"/>
        <pt x="171" y="123" on="0"/>
        <pt x="63" y="373" on="0"/>
        <pt x="63" y="531" on="1"/>
        <pt x="63" y="552" on="1"/>
        <pt x="63" y="716" on="0"/>
        <pt x="170" y="965" on="0"/>
        <pt x="370" y="1102" on="0"/>
        <pt x="505" y="1102" on="1"/>
        <pt x="685" y="1102" on="0"/>
        <pt x="782" y="978" on="1"/>
        <pt x="798" y="1082" on="1"/>
      </contour>
      <contour>
        <pt x="704" y="232" on="0"/>
        <pt x="758" y="320" on="1"/>
        <pt x="758" y="765" on="1"/>
        <pt x="706" y="850" on="0"/>
        <pt x="585" y="850" on="1"/>
        <pt x="483" y="850" on="0"/>
        <pt x="374" y="686" on="0"/>
        <pt x="374" y="552" on="1"/>
        <pt x="374" y="531" on="1"/>
        <pt x="374" y="400" on="0"/>
        <pt x="482" y="232" on="0"/>
        <pt x="583" y="232" on="1"/>
      </contour>
    </TTGlyph>
    <TTGlyph name="g.ss07" xMin="60" yMin="-426" xMax="1048" yMax="1102">
      <contour>
        <pt x="1048" y="1082" on="1"/>
        <pt x="1048" y="81" on="1"/>
        <pt x="1048" y="-80" on="0"/>
        <pt x="920" y="-308" on="0"/>
        <pt x="679" y="-426" on="0"/>
        <pt x="513" y="-426" on="1"/>
        <pt x="434" y="-426" on="0"/>
        <pt x="271" y="-395" on="0"/>
        <pt x="205" y="-362" on="1"/>
        <pt x="247" y="-139" on="1"/>
        <pt x="310" y="-162" on="0"/>
        <pt x="410" y="-184" on="0"/>
        <pt x="474" y="-184" on="1"/>
        <pt x="607" y="-184" on="0"/>
        <pt x="735" y="-53" on="0"/>
        <pt x="735" y="82" on="1"/>
        <pt x="735" y="93" on="1"/>
        <pt x="636" y="-20" on="0"/>
        <pt x="481" y="-20" on="1"/>
        <pt x="349" y="-20" on="0"/>
        <pt x="159" y="122" on="0"/>
        <pt x="60" y="372" on="0"/>
        <pt x="60" y="531" on="1"/>
        <pt x="60" y="552" on="1"/>
        <pt x="60" y="717" on="0"/>
        <pt x="158" y="965" on="0"/>
        <pt x="349" y="1102" on="0"/>
        <pt x="483" y="1102" on="1"/>
        <pt x="662" y="1102" on="0"/>
        <pt x="759" y="977" on="1"/>
        <pt x="776" y="1082" on="1"/>
      </contour>
      <contour>
        <pt x="686" y="232" on="0"/>
        <pt x="735" y="329" on="1"/>
        <pt x="735" y="756" on="1"/>
        <pt x="711" y="803" on="0"/>
        <pt x="627" y="850" on="0"/>
        <pt x="562" y="850" on="1"/>
        <pt x="463" y="850" on="0"/>
        <pt x="372" y="690" on="0"/>
        <pt x="372" y="552" on="1"/>
        <pt x="372" y="531" on="1"/>
        <pt x="372" y="395" on="0"/>
        <pt x="461" y="232" on="0"/>
        <pt x="560" y="232" on="1"/>
      </contour>
    </TTGlyph>
    <TTGlyph name="germandbls" xMin="135" yMin="-20" xMax="1247" yMax="1561">
      <contour>
        <pt x="135" y="0" on="1"/>
        <pt x="135" y="1100" on="1"/>
        <pt x="135" y="1250" on="0"/>
        <pt x="253" y="1456" on="0"/>
        <pt x="475" y="1561" on="0"/>
        <pt x="628" y="1561" on="1"/>
        <pt x="748" y="1561" on="0"/>
        <pt x="944" y="1474" on="0"/>
        <pt x="1059" y="1304" on="0"/>
        <pt x="1059" y="1184" on="1"/>
        <pt x="1059" y="1117" on="0"/>
        <pt x="1032" y="1037" on="0"/>
        <pt x="1005" y="992" on="1"/>
        <pt x="981" y="952" on="0"/>
        <pt x="958" y="885" on="0"/>
        <pt x="958" y="834" on="1"/>
        <pt x="958" y="800" on="0"/>
        <pt x="1010" y="733" on="0"/>
        <pt x="1065" y="682" on="1"/>
        <pt x="1122" y="628" on="0"/>
        <pt x="1195" y="545" on="0"/>
        <pt x="1247" y="432" on="0"/>
        <pt x="1247" y="364" on="1"/>
        <pt x="1247" y="244" on="0"/>
        <pt x="1141" y="72" on="0"/>
        <pt x="935" y="-20" on="0"/>
        <pt x="787" y="-20" on="1"/>
        <pt x="708" y="-20" on="0"/>
        <pt x="552" y="9" on="0"/>
        <pt x="513" y="33" on="1"/>
        <pt x="569" y="278" on="1"/>
        <pt x="607" y="259" on="0"/>
        <pt x="718" y="232" on="0"/>
        <pt x="784" y="232" on="1"/>
        <pt x="855" y="232" on="0"/>
        <pt x="936" y="300" on="0"/>
        <pt x="936" y="360" on="1"/>
        <pt x="936" y="393" on="0"/>
        <pt x="905" y="449" on="0"/>
        <pt x="859" y="495" on="0"/>
        <pt x="817" y="531" on="1"/>
        <pt x="763" y="576" on="0"/>
        <pt x="694" y="648" on="0"/>
        <pt x="646" y="751" on="0"/>
        <pt x="646" y="817" on="1"/>
        <pt x="646" y="881" on="0"/>
        <pt x="674" y="961" on="0"/>
        <pt x="701" y="1010" on="1"/>
        <pt x="725" y="1053" on="0"/>
        <pt x="749" y="1120" on="0"/>
        <pt x="749" y="1169" on="1"/>
        <pt x="749" y="1231" on="0"/>
        <pt x="664" y="1310" on="0"/>
        <pt x="599" y="1310" on="1"/>
        <pt x="525" y="1310" on="0"/>
        <pt x="447" y="1211" on="0"/>
        <pt x="447" y="1094" on="1"/>
        <pt x="447" y="0" on="1"/>
      </contour>
    </TTGlyph>
    <TTGlyph name="grave" xMin="53" yMin="1224" xMax="587" yMax="1536">
      <contour>
        <pt x="332" y="1224" on="1"/>
        <pt x="53" y="1536" on="1"/>
        <pt x="388" y="1536" on="1"/>
        <pt x="587" y="1224" on="1"/>
      </contour>
    </TTGlyph>
    <TTGlyph name="gravecomb" xMin="-903" yMin="1224" xMax="-370" yMax="1536">
      <contour>
        <pt x="-624" y="1224" on="1"/>
        <pt x="-903" y="1536" on="1"/>
        <pt x="-569" y="1536" on="1"/>
        <pt x="-370" y="1224" on="1"/>
      </contour>
    </TTGlyph>
    <TTGlyph name="greater" xMin="116" yMin="123" xMax="991" yMax="1103">
      <contour>
        <pt x="991" y="741" on="1"/>
        <pt x="991" y="485" on="1"/>
        <pt x="116" y="123" on="1"/>
        <pt x="116" y="421" on="1"/>
        <pt x="678" y="615" on="1"/>
        <pt x="116" y="806" on="1"/>
        <pt x="116" y="1103" on="1"/>
      </contour>
    </TTGlyph>
    <TTGlyph name="guillemotleft" xMin="70" yMin="119" xMax="943" yMax="918">
      <component glyphName=".ttfautohint" x="70" y="119" flags="0x0"/>
      <component glyphName="guilsinglleft" x="-38" y="0" flags="0x0"/>
      <component glyphName="guilsinglleft" x="362" y="0" flags="0x0"/>
    </TTGlyph>
    <TTGlyph name="guillemotright" xMin="82" yMin="118" xMax="957" yMax="917">
      <component glyphName=".ttfautohint" x="82" y="118" flags="0x0"/>
      <component glyphName="guilsinglright" x="3" y="0" flags="0x0"/>
      <component glyphName="guilsinglright" x="406" y="0" flags="0x0"/>
    </TTGlyph>
    <TTGlyph name="guilsinglleft" xMin="108" yMin="119" xMax="581" yMax="918">
      <contour>
        <pt x="345" y="519" on="1"/>
        <pt x="581" y="119" on="1"/>
        <pt x="385" y="119" on="1"/>
        <pt x="108" y="509" on="1"/>
        <pt x="108" y="528" on="1"/>
        <pt x="385" y="918" on="1"/>
        <pt x="581" y="918" on="1"/>
      </contour>
    </TTGlyph>
    <TTGlyph name="guilsinglright" xMin="79" yMin="118" xMax="551" yMax="917">
      <contour>
        <pt x="551" y="527" on="1"/>
        <pt x="551" y="508" on="1"/>
        <pt x="275" y="118" on="1"/>
        <pt x="79" y="118" on="1"/>
        <pt x="315" y="518" on="1"/>
        <pt x="79" y="917" on="1"/>
        <pt x="275" y="917" on="1"/>
      </contour>
    </TTGlyph>
    <TTGlyph name="h" xMin="97" yMin="0" xMax="1051" yMax="1536">
      <contour>
        <pt x="861" y="1102" on="0"/>
        <pt x="1051" y="899" on="0"/>
        <pt x="1051" y="675" on="1"/>
        <pt x="1051" y="0" on="1"/>
        <pt x="738" y="0" on="1"/>
        <pt x="738" y="677" on="1"/>
        <pt x="738" y="774" on="0"/>
        <pt x="657" y="850" on="0"/>
        <pt x="574" y="850" on="1"/>
        <pt x="460" y="850" on="0"/>
        <pt x="409" y="770" on="1"/>
        <pt x="409" y="0" on="1"/>
        <pt x="97" y="0" on="1"/>
        <pt x="97" y="1536" on="1"/>
        <pt x="409" y="1536" on="1"/>
        <pt x="409" y="967" on="1"/>
        <pt x="463" y="1032" on="0"/>
        <pt x="606" y="1102" on="0"/>
        <pt x="691" y="1102" on="1"/>
      </contour>
    </TTGlyph>
    <TTGlyph name="hyphen" xMin="130" yMin="500" xMax="711" yMax="753">
      <contour>
        <pt x="130" y="500" on="1"/>
        <pt x="130" y="753" on="1"/>
        <pt x="711" y="753" on="1"/>
        <pt x="711" y="500" on="1"/>
      </contour>
    </TTGlyph>
    <TTGlyph name="i" xMin="102" yMin="0" xMax="449" yMax="1521">
      <contour>
        <pt x="353" y="1521" on="0"/>
        <pt x="449" y="1432" on="0"/>
        <pt x="449" y="1361" on="1"/>
        <pt x="449" y="1291" on="0"/>
        <pt x="353" y="1202" on="0"/>
        <pt x="275" y="1202" on="1"/>
        <pt x="197" y="1202" on="0"/>
        <pt x="102" y="1291" on="0"/>
        <pt x="102" y="1361" on="1"/>
        <pt x="102" y="1432" on="0"/>
        <pt x="197" y="1521" on="0"/>
        <pt x="275" y="1521" on="1"/>
      </contour>
      <contour>
        <pt x="120" y="0" on="1"/>
        <pt x="120" y="1082" on="1"/>
        <pt x="433" y="1082" on="1"/>
        <pt x="433" y="0" on="1"/>
      </contour>
    </TTGlyph>
    <TTGlyph name="iacute" xMin="129" yMin="0" xMax="663" yMax="1517">
      <component glyphName=".ttfautohint" x="129" y="0" flags="0x0"/>
      <component glyphName="dotlessi" x="0" y="0" flags="0x0"/>
      <component glyphName="acutecomb" x="818" y="-19" flags="0x4"/>
    </TTGlyph>
    <TTGlyph name="icircumflex" xMin="-111" yMin="0" xMax="690" yMax="1517">
      <component glyphName=".ttfautohint" x="0" y="0" flags="0x0"/>
      <component glyphName="dotlessi" x="0" y="0" flags="0x0"/>
      <component glyphName="circumflex" x="-223" y="-19" flags="0x4"/>
    </TTGlyph>
    <TTGlyph name="idieresis" xMin="-111" yMin="0" xMax="680" yMax="1477">
      <component glyphName=".ttfautohint" x="0" y="0" flags="0x0"/>
      <component glyphName="dotlessi" x="0" y="0" flags="0x0"/>
      <component glyphName="dieresis" x="-206" y="-19" flags="0x4"/>
    </TTGlyph>
    <TTGlyph name="igrave" xMin="-72" yMin="0" xMax="461" yMax="1517">
      <component glyphName=".ttfautohint" x="0" y="0" flags="0x0"/>
      <component glyphName="dotlessi" x="0" y="0" flags="0x0"/>
      <component glyphName="gravecomb" x="831" y="-19" flags="0x4"/>
    </TTGlyph>
    <TTGlyph name="j" xMin="-106" yMin="-437" xMax="448" yMax="1521">
      <contour>
        <pt x="352" y="1521" on="0"/>
        <pt x="448" y="1432" on="0"/>
        <pt x="448" y="1361" on="1"/>
        <pt x="448" y="1291" on="0"/>
        <pt x="352" y="1202" on="0"/>
        <pt x="274" y="1202" on="1"/>
        <pt x="196" y="1202" on="0"/>
        <pt x="100" y="1291" on="0"/>
        <pt x="100" y="1361" on="1"/>
        <pt x="100" y="1432" on="0"/>
        <pt x="196" y="1521" on="0"/>
        <pt x="274" y="1521" on="1"/>
      </contour>
      <contour>
        <pt x="436" y="-43" on="1"/>
        <pt x="436" y="-233" on="0"/>
        <pt x="231" y="-437" on="0"/>
        <pt x="46" y="-437" on="1"/>
        <pt x="-37" y="-437" on="0"/>
        <pt x="-106" y="-420" on="1"/>
        <pt x="-106" y="-173" on="1"/>
        <pt x="-47" y="-182" on="0"/>
        <pt x="-12" y="-182" on="1"/>
        <pt x="124" y="-182" on="0"/>
        <pt x="124" y="-43" on="1"/>
        <pt x="124" y="1082" on="1"/>
        <pt x="436" y="1082" on="1"/>
      </contour>
    </TTGlyph>
    <TTGlyph name="k" xMin="105" yMin="0" xMax="1132" yMax="1537">
      <contour>
        <pt x="517" y="418" on="1"/>
        <pt x="417" y="320" on="1"/>
        <pt x="417" y="0" on="1"/>
        <pt x="105" y="0" on="1"/>
        <pt x="105" y="1537" on="1"/>
        <pt x="417" y="1537" on="1"/>
        <pt x="417" y="704" on="1"/>
        <pt x="462" y="763" on="1"/>
        <pt x="728" y="1082" on="1"/>
        <pt x="1102" y="1082" on="1"/>
        <pt x="717" y="632" on="1"/>
        <pt x="1132" y="0" on="1"/>
        <pt x="774" y="0" on="1"/>
      </contour>
    </TTGlyph>
    <TTGlyph name="k.alt" xMin="106" yMin="0" xMax="1115" yMax="1536">
      <contour>
        <pt x="498" y="436" on="1"/>
        <pt x="417" y="436" on="1"/>
        <pt x="417" y="0" on="1"/>
        <pt x="106" y="0" on="1"/>
        <pt x="106" y="1536" on="1"/>
        <pt x="417" y="1536" on="1"/>
        <pt x="417" y="683" on="1"/>
        <pt x="487" y="683" on="1"/>
        <pt x="720" y="1082" on="1"/>
        <pt x="1080" y="1082" on="1"/>
        <pt x="747" y="588" on="1"/>
        <pt x="1115" y="0" on="1"/>
        <pt x="757" y="0" on="1"/>
      </contour>
    </TTGlyph>
    <TTGlyph name="k.alt2" xMin="106" yMin="0" xMax="1112" yMax="1560">
      <contour>
        <pt x="744" y="0" on="1"/>
        <pt x="417" y="464" on="1"/>
        <pt x="417" y="0" on="1"/>
        <pt x="106" y="0" on="1"/>
        <pt x="106" y="1560" on="1"/>
        <pt x="417" y="1560" on="1"/>
        <pt x="417" y="683" on="1"/>
        <pt x="707" y="1082" on="1"/>
        <pt x="1069" y="1082" on="1"/>
        <pt x="686" y="577" on="1"/>
        <pt x="1112" y="0" on="1"/>
      </contour>
    </TTGlyph>
    <TTGlyph name="l" xMin="120" yMin="0" xMax="433" yMax="1536">
      <contour>
        <pt x="120" y="0" on="1"/>
        <pt x="120" y="1536" on="1"/>
        <pt x="433" y="1536" on="1"/>
        <pt x="433" y="0" on="1"/>
      </contour>
    </TTGlyph>
    <TTGlyph name="less" xMin="51" yMin="124" xMax="923" yMax="1104">
      <contour>
        <pt x="923" y="806" on="1"/>
        <pt x="364" y="612" on="1"/>
        <pt x="923" y="423" on="1"/>
        <pt x="923" y="124" on="1"/>
        <pt x="51" y="486" on="1"/>
        <pt x="51" y="742" on="1"/>
        <pt x="923" y="1104" on="1"/>
      </contour>
    </TTGlyph>
    <TTGlyph name="logicalnot" xMin="126" yMin="374" xMax="961" yMax="805">
      <contour>
        <pt x="961" y="805" on="1"/>
        <pt x="961" y="374" on="1"/>
        <pt x="761" y="374" on="1"/>
        <pt x="761" y="634" on="1"/>
        <pt x="126" y="634" on="1"/>
        <pt x="126" y="805" on="1"/>
      </contour>
    </TTGlyph>
    <TTGlyph name="longs" xMin="107" yMin="0" xMax="682" yMax="1557">
      <contour>
        <pt x="107" y="1172" on="1"/>
        <pt x="107" y="1358" on="0"/>
        <pt x="323" y="1557" on="0"/>
        <pt x="519" y="1557" on="1"/>
        <pt x="586" y="1557" on="0"/>
        <pt x="682" y="1536" on="1"/>
        <pt x="658" y="1295" on="1"/>
        <pt x="608" y="1305" on="0"/>
        <pt x="559" y="1305" on="1"/>
        <pt x="491" y="1305" on="0"/>
        <pt x="419" y="1236" on="0"/>
        <pt x="419" y="1172" on="1"/>
        <pt x="419" y="0" on="1"/>
        <pt x="107" y="0" on="1"/>
      </contour>
    </TTGlyph>
    <TTGlyph name="longst" xMin="22" yMin="-20" xMax="1305" yMax="1557">
      <contour>
        <pt x="1268" y="236" on="0"/>
        <pt x="1305" y="243" on="1"/>
        <pt x="1305" y="8" on="1"/>
        <pt x="1223" y="-20" on="0"/>
        <pt x="1123" y="-20" on="1"/>
        <pt x="966" y="-20" on="0"/>
        <pt x="799" y="138" on="0"/>
        <pt x="799" y="308" on="1"/>
        <pt x="799" y="855" on="1"/>
        <pt x="651" y="855" on="1"/>
        <pt x="651" y="1082" on="1"/>
        <pt x="799" y="1082" on="1"/>
        <pt x="799" y="1280" on="1"/>
        <pt x="776" y="1289" on="0"/>
        <pt x="685" y="1305" on="0"/>
        <pt x="633" y="1305" on="1"/>
        <pt x="565" y="1305" on="0"/>
        <pt x="492" y="1236" on="0"/>
        <pt x="492" y="1172" on="1"/>
        <pt x="492" y="0" on="1"/>
        <pt x="180" y="0" on="1"/>
        <pt x="180" y="855" on="1"/>
        <pt x="22" y="855" on="1"/>
        <pt x="22" y="1082" on="1"/>
        <pt x="180" y="1082" on="1"/>
        <pt x="180" y="1172" on="1"/>
        <pt x="180" y="1358" on="0"/>
        <pt x="396" y="1557" on="0"/>
        <pt x="592" y="1557" on="1"/>
        <pt x="728" y="1557" on="0"/>
        <pt x="972" y="1498" on="0"/>
        <pt x="1111" y="1449" on="1"/>
        <pt x="1111" y="1082" on="1"/>
        <pt x="1292" y="1082" on="1"/>
        <pt x="1292" y="855" on="1"/>
        <pt x="1111" y="855" on="1"/>
        <pt x="1111" y="346" on="1"/>
        <pt x="1111" y="282" on="0"/>
        <pt x="1161" y="236" on="0"/>
        <pt x="1221" y="236" on="1"/>
      </contour>
    </TTGlyph>
    <TTGlyph name="m" xMin="105" yMin="0" xMax="1664" yMax="1102">
      <contour>
        <pt x="1485" y="1102" on="0"/>
        <pt x="1664" y="906" on="0"/>
        <pt x="1664" y="684" on="1"/>
        <pt x="1664" y="0" on="1"/>
        <pt x="1351" y="0" on="1"/>
        <pt x="1351" y="684" on="1"/>
        <pt x="1351" y="750" on="0"/>
        <pt x="1317" y="823" on="0"/>
        <pt x="1254" y="850" on="0"/>
        <pt x="1204" y="850" on="1"/>
        <pt x="1147" y="850" on="0"/>
        <pt x="1064" y="795" on="0"/>
        <pt x="1040" y="745" on="1"/>
        <pt x="1040" y="722" on="1"/>
        <pt x="1040" y="0" on="1"/>
        <pt x="728" y="0" on="1"/>
        <pt x="728" y="682" on="1"/>
        <pt x="728" y="749" on="0"/>
        <pt x="694" y="823" on="0"/>
        <pt x="630" y="850" on="0"/>
        <pt x="580" y="850" on="1"/>
        <pt x="525" y="850" on="0"/>
        <pt x="443" y="801" on="0"/>
        <pt x="417" y="756" on="1"/>
        <pt x="417" y="0" on="1"/>
        <pt x="105" y="0" on="1"/>
        <pt x="105" y="1082" on="1"/>
        <pt x="398" y="1082" on="1"/>
        <pt x="408" y="959" on="1"/>
        <pt x="462" y="1028" on="0"/>
        <pt x="618" y="1102" on="0"/>
        <pt x="717" y="1102" on="1"/>
        <pt x="816" y="1102" on="0"/>
        <pt x="961" y="1021" on="0"/>
        <pt x="1000" y="938" on="1"/>
        <pt x="1053" y="1017" on="0"/>
        <pt x="1215" y="1102" on="0"/>
        <pt x="1321" y="1102" on="1"/>
      </contour>
    </TTGlyph>
    <TTGlyph name="macron" xMin="174" yMin="1286" xMax="866" yMax="1457">
      <contour>
        <pt x="174" y="1286" on="1"/>
        <pt x="174" y="1457" on="1"/>
        <pt x="866" y="1457" on="1"/>
        <pt x="866" y="1286" on="1"/>
      </contour>
    </TTGlyph>
    <TTGlyph name="minus" xMin="142" yMin="584" xMax="1012" yMax="839">
      <contour>
        <pt x="142" y="584" on="1"/>
        <pt x="142" y="839" on="1"/>
        <pt x="1012" y="839" on="1"/>
        <pt x="1012" y="584" on="1"/>
      </contour>
    </TTGlyph>
    <TTGlyph name="multiply" xMin="60" yMin="200" xMax="1020" yMax="1173">
      <contour>
        <pt x="718" y="687" on="1"/>
        <pt x="1020" y="379" on="1"/>
        <pt x="839" y="200" on="1"/>
        <pt x="540" y="505" on="1"/>
        <pt x="241" y="200" on="1"/>
        <pt x="60" y="379" on="1"/>
        <pt x="362" y="687" on="1"/>
        <pt x="60" y="994" on="1"/>
        <pt x="241" y="1173" on="1"/>
        <pt x="540" y="868" on="1"/>
        <pt x="839" y="1173" on="1"/>
        <pt x="1020" y="994" on="1"/>
      </contour>
    </TTGlyph>
    <TTGlyph name="n" xMin="98" yMin="0" xMax="1051" yMax="1102">
      <contour>
        <pt x="872" y="1102" on="0"/>
        <pt x="1051" y="906" on="0"/>
        <pt x="1051" y="683" on="1"/>
        <pt x="1051" y="0" on="1"/>
        <pt x="738" y="0" on="1"/>
        <pt x="738" y="685" on="1"/>
        <pt x="738" y="779" on="0"/>
        <pt x="659" y="850" on="0"/>
        <pt x="575" y="850" on="1"/>
        <pt x="462" y="850" on="0"/>
        <pt x="409" y="759" on="1"/>
        <pt x="409" y="0" on="1"/>
        <pt x="98" y="0" on="1"/>
        <pt x="98" y="1082" on="1"/>
        <pt x="390" y="1082" on="1"/>
        <pt x="400" y="957" on="1"/>
        <pt x="456" y="1028" on="0"/>
        <pt x="614" y="1102" on="0"/>
        <pt x="710" y="1102" on="1"/>
      </contour>
    </TTGlyph>
    <TTGlyph name="nine" xMin="84" yMin="-18" xMax="1081" yMax="1477">
      <contour>
        <pt x="726" y="1477" on="0"/>
        <pt x="953" y="1334" on="0"/>
        <pt x="1081" y="1065" on="0"/>
        <pt x="1081" y="881" on="1"/>
        <pt x="1081" y="770" on="1"/>
        <pt x="1081" y="521" on="0"/>
        <pt x="900" y="166" on="0"/>
        <pt x="561" y="-18" on="0"/>
        <pt x="328" y="-18" on="1"/>
        <pt x="303" y="-18" on="1"/>
        <pt x="303" y="243" on="1"/>
        <pt x="323" y="243" on="1"/>
        <pt x="526" y="243" on="0"/>
        <pt x="747" y="403" on="0"/>
        <pt x="766" y="571" on="1"/>
        <pt x="713" y="522" on="0"/>
        <pt x="582" y="467" on="0"/>
        <pt x="510" y="467" on="1"/>
        <pt x="377" y="467" on="0"/>
        <pt x="185" y="590" on="0"/>
        <pt x="84" y="813" on="0"/>
        <pt x="84" y="958" on="1"/>
        <pt x="84" y="1100" on="0"/>
        <pt x="209" y="1338" on="0"/>
        <pt x="436" y="1477" on="0"/>
        <pt x="581" y="1477" on="1"/>
      </contour>
      <contour>
        <pt x="654" y="703" on="0"/>
        <pt x="746" y="764" on="0"/>
        <pt x="770" y="812" on="1"/>
        <pt x="770" y="941" on="1"/>
        <pt x="770" y="1080" on="0"/>
        <pt x="666" y="1225" on="0"/>
        <pt x="579" y="1225" on="1"/>
        <pt x="523" y="1225" on="0"/>
        <pt x="439" y="1149" on="0"/>
        <pt x="395" y="1027" on="0"/>
        <pt x="395" y="959" on="1"/>
        <pt x="395" y="846" on="0"/>
        <pt x="496" y="703" on="0"/>
        <pt x="591" y="703" on="1"/>
      </contour>
    </TTGlyph>
    <TTGlyph name="nine.frac" xMin="67" yMin="651" xMax="692" yMax="1465">
      <component glyphName=".ttfautohint" x="67" y="651" flags="0x0"/>
      <component glyphName="nine.sup" x="0" y="664" flags="0x4"/>
    </TTGlyph>
    <TTGlyph name="nine.smcp" xMin="70" yMin="-19" xMax="989" yMax="1182">
      <contour>
        <pt x="660" y="1182" on="0"/>
        <pt x="867" y="1084" on="0"/>
        <pt x="989" y="869" on="0"/>
        <pt x="989" y="702" on="1"/>
        <pt x="989" y="621" on="1"/>
        <pt x="989" y="267" on="0"/>
        <pt x="627" y="-19" on="0"/>
        <pt x="314" y="-19" on="1"/>
        <pt x="291" y="-19" on="1"/>
        <pt x="291" y="229" on="1"/>
        <pt x="309" y="229" on="1"/>
        <pt x="422" y="229" on="0"/>
        <pt x="566" y="259" on="0"/>
        <pt x="659" y="354" on="0"/>
        <pt x="672" y="446" on="1"/>
        <pt x="627" y="410" on="0"/>
        <pt x="516" y="370" on="0"/>
        <pt x="458" y="370" on="1"/>
        <pt x="275" y="370" on="0"/>
        <pt x="70" y="565" on="0"/>
        <pt x="70" y="758" on="1"/>
        <pt x="70" y="872" on="0"/>
        <pt x="189" y="1067" on="0"/>
        <pt x="399" y="1182" on="0"/>
        <pt x="530" y="1182" on="1"/>
      </contour>
      <contour>
        <pt x="590" y="600" on="0"/>
        <pt x="658" y="630" on="0"/>
        <pt x="678" y="652" on="1"/>
        <pt x="678" y="768" on="1"/>
        <pt x="678" y="853" on="0"/>
        <pt x="603" y="930" on="0"/>
        <pt x="530" y="930" on="1"/>
        <pt x="462" y="930" on="0"/>
        <pt x="382" y="828" on="0"/>
        <pt x="382" y="752" on="1"/>
        <pt x="382" y="677" on="0"/>
        <pt x="463" y="600" on="0"/>
        <pt x="543" y="600" on="1"/>
      </contour>
    </TTGlyph>
    <TTGlyph name="nine.sup" xMin="67" yMin="-13" xMax="692" yMax="801">
      <contour>
        <pt x="517" y="801" on="0"/>
        <pt x="692" y="643" on="0"/>
        <pt x="692" y="476" on="1"/>
        <pt x="692" y="420" on="1"/>
        <pt x="692" y="179" on="0"/>
        <pt x="445" y="-13" on="0"/>
        <pt x="233" y="-13" on="1"/>
        <pt x="217" y="-13" on="1"/>
        <pt x="217" y="157" on="1"/>
        <pt x="230" y="157" on="1"/>
        <pt x="306" y="157" on="0"/>
        <pt x="401" y="176" on="0"/>
        <pt x="464" y="238" on="0"/>
        <pt x="474" y="300" on="1"/>
        <pt x="444" y="276" on="0"/>
        <pt x="369" y="250" on="0"/>
        <pt x="330" y="250" on="1"/>
        <pt x="206" y="250" on="0"/>
        <pt x="67" y="382" on="0"/>
        <pt x="67" y="513" on="1"/>
        <pt x="67" y="590" on="0"/>
        <pt x="148" y="723" on="0"/>
        <pt x="291" y="801" on="0"/>
        <pt x="379" y="801" on="1"/>
      </contour>
      <contour>
        <pt x="281" y="409" on="0"/>
        <pt x="389" y="409" on="1"/>
        <pt x="420" y="409" on="0"/>
        <pt x="465" y="428" on="0"/>
        <pt x="478" y="443" on="1"/>
        <pt x="478" y="521" on="1"/>
        <pt x="478" y="578" on="0"/>
        <pt x="429" y="628" on="0"/>
        <pt x="379" y="628" on="1"/>
        <pt x="335" y="628" on="0"/>
        <pt x="281" y="559" on="0"/>
        <pt x="281" y="509" on="1"/>
      </contour>
    </TTGlyph>
    <TTGlyph name="ntilde" xMin="98" yMin="0" xMax="1051" yMax="1537">
      <component glyphName=".ttfautohint" x="98" y="0" flags="0x0"/>
      <component glyphName="n" x="0" y="0" flags="0x0"/>
      <component glyphName="tilde" x="80" y="-4" flags="0x4"/>
    </TTGlyph>
    <TTGlyph name="numbersign" xMin="48" yMin="0" xMax="1164" yMax="1456">
      <contour>
        <pt x="909" y="860" on="1"/>
        <pt x="863" y="590" on="1"/>
        <pt x="1088" y="590" on="1"/>
        <pt x="1088" y="410" on="1"/>
        <pt x="832" y="410" on="1"/>
        <pt x="762" y="0" on="1"/>
        <pt x="572" y="0" on="1"/>
        <pt x="642" y="410" on="1"/>
        <pt x="464" y="410" on="1"/>
        <pt x="394" y="0" on="1"/>
        <pt x="203" y="0" on="1"/>
        <pt x="273" y="410" on="1"/>
        <pt x="48" y="410" on="1"/>
        <pt x="48" y="590" on="1"/>
        <pt x="304" y="590" on="1"/>
        <pt x="350" y="860" on="1"/>
        <pt x="123" y="860" on="1"/>
        <pt x="123" y="1040" on="1"/>
        <pt x="381" y="1040" on="1"/>
        <pt x="452" y="1456" on="1"/>
        <pt x="641" y="1456" on="1"/>
        <pt x="570" y="1040" on="1"/>
        <pt x="749" y="1040" on="1"/>
        <pt x="820" y="1456" on="1"/>
        <pt x="1011" y="1456" on="1"/>
        <pt x="940" y="1040" on="1"/>
        <pt x="1164" y="1040" on="1"/>
        <pt x="1164" y="860" on="1"/>
      </contour>
      <contour>
        <pt x="718" y="860" on="1"/>
        <pt x="540" y="860" on="1"/>
        <pt x="494" y="590" on="1"/>
        <pt x="672" y="590" on="1"/>
      </contour>
    </TTGlyph>
    <TTGlyph name="o" xMin="60" yMin="-20" xMax="1094" yMax="1102">
      <contour>
        <pt x="60" y="710" on="0"/>
        <pt x="181" y="960" on="0"/>
        <pt x="414" y="1102" on="0"/>
        <pt x="576" y="1102" on="1"/>
        <pt x="739" y="1102" on="0"/>
        <pt x="973" y="960" on="0"/>
        <pt x="1094" y="711" on="0"/>
        <pt x="1094" y="551" on="1"/>
        <pt x="1094" y="530" on="1"/>
        <pt x="1094" y="371" on="0"/>
        <pt x="973" y="121" on="0"/>
        <pt x="740" y="-20" on="0"/>
        <pt x="578" y="-20" on="1"/>
        <pt x="415" y="-20" on="0"/>
        <pt x="181" y="121" on="0"/>
        <pt x="60" y="370" on="0"/>
        <pt x="60" y="530" on="1"/>
        <pt x="60" y="551" on="1"/>
      </contour>
      <contour>
        <pt x="372" y="393" on="0"/>
        <pt x="469" y="232" on="0"/>
        <pt x="578" y="232" on="1"/>
        <pt x="685" y="232" on="0"/>
        <pt x="782" y="394" on="0"/>
        <pt x="782" y="530" on="1"/>
        <pt x="782" y="551" on="1"/>
        <pt x="782" y="685" on="0"/>
        <pt x="685" y="850" on="0"/>
        <pt x="576" y="850" on="1"/>
        <pt x="469" y="850" on="0"/>
        <pt x="372" y="685" on="0"/>
        <pt x="372" y="551" on="1"/>
        <pt x="372" y="530" on="1"/>
      </contour>
    </TTGlyph>
    <TTGlyph name="o.ss06" xMin="53" yMin="-20" xMax="1126" yMax="1102">
      <contour>
        <pt x="53" y="709" on="0"/>
        <pt x="183" y="960" on="0"/>
        <pt x="426" y="1102" on="0"/>
        <pt x="588" y="1102" on="1"/>
        <pt x="752" y="1102" on="0"/>
        <pt x="996" y="960" on="0"/>
        <pt x="1126" y="709" on="0"/>
        <pt x="1126" y="551" on="1"/>
        <pt x="1126" y="530" on="1"/>
        <pt x="1126" y="372" on="0"/>
        <pt x="996" y="122" on="0"/>
        <pt x="753" y="-20" on="0"/>
        <pt x="590" y="-20" on="1"/>
        <pt x="427" y="-20" on="0"/>
        <pt x="184" y="122" on="0"/>
        <pt x="53" y="372" on="0"/>
        <pt x="53" y="530" on="1"/>
        <pt x="53" y="551" on="1"/>
      </contour>
      <contour>
        <pt x="365" y="397" on="0"/>
        <pt x="479" y="232" on="0"/>
        <pt x="590" y="232" on="1"/>
        <pt x="700" y="232" on="0"/>
        <pt x="814" y="398" on="0"/>
        <pt x="814" y="530" on="1"/>
        <pt x="814" y="551" on="1"/>
        <pt x="814" y="635" on="0"/>
        <pt x="764" y="770" on="0"/>
        <pt x="663" y="850" on="0"/>
        <pt x="588" y="850" on="1"/>
        <pt x="515" y="850" on="0"/>
        <pt x="414" y="770" on="0"/>
        <pt x="365" y="635" on="0"/>
        <pt x="365" y="551" on="1"/>
        <pt x="365" y="530" on="1"/>
      </contour>
    </TTGlyph>
    <TTGlyph name="oacute" xMin="60" yMin="-20" xMax="1094" yMax="1536">
      <component glyphName=".ttfautohint" x="60" y="0" flags="0x0"/>
      <component glyphName="o" x="0" y="0" flags="0x0"/>
      <component glyphName="acutecomb" x="1108" y="0" flags="0x0"/>
    </TTGlyph>
    <TTGlyph name="ocircumflex" xMin="60" yMin="-20" xMax="1094" yMax="1536">
      <component glyphName=".ttfautohint" x="60" y="0" flags="0x0"/>
      <component glyphName="o" x="0" y="0" flags="0x0"/>
      <component glyphName="circumflex" x="67" y="0" flags="0x0"/>
    </TTGlyph>
    <TTGlyph name="odieresis" xMin="60" yMin="-20" xMax="1094" yMax="1496">
      <component glyphName=".ttfautohint" x="60" y="0" flags="0x0"/>
      <component glyphName="o" x="0" y="0" flags="0x0"/>
      <component glyphName="dieresis" x="85" y="0" flags="0x0"/>
    </TTGlyph>
</ttFont>
